<svg width="18" height="20" viewBox="0 0 18 20" fill="none" xmlns="http://www.w3.org/2000/svg">
<path d="M13 15.0004C13.4167 15.0004 13.7707 14.8544 14.062 14.5624C14.354 14.2711 14.5 13.9171 14.5 13.5004C14.5 13.0837 14.354 12.7297 14.062 12.4384C13.7707 12.1464 13.4167 12.0004 13 12.0004C12.5833 12.0004 12.2293 12.1464 11.938 12.4384C11.646 12.7297 11.5 13.0837 11.5 13.5004C11.5 13.9171 11.646 14.2711 11.938 14.5624C12.2293 14.8544 12.5833 15.0004 13 15.0004ZM13 18.0004C13.5167 18.0004 13.9917 17.8794 14.425 17.6374C14.8583 17.3961 15.2083 17.0754 15.475 16.6754C15.1083 16.4587 14.7167 16.2921 14.3 16.1754C13.8833 16.0587 13.45 16.0004 13 16.0004C12.55 16.0004 12.1167 16.0587 11.7 16.1754C11.2833 16.2921 10.8917 16.4587 10.525 16.6754C10.7917 17.0754 11.1417 17.3961 11.575 17.6374C12.0083 17.8794 12.4833 18.0004 13 18.0004ZM13 20.0004C11.6167 20.0004 10.4377 19.5131 9.463 18.5384C8.48767 17.5631 8 16.3837 8 15.0004C8 13.6171 8.48767 12.4377 9.463 11.4624C10.4377 10.4877 11.6167 10.0004 13 10.0004C14.3833 10.0004 15.5627 10.4877 16.538 11.4624C17.5127 12.4377 18 13.6171 18 15.0004C18 16.3837 17.5127 17.5631 16.538 18.5384C15.5627 19.5131 14.3833 20.0004 13 20.0004ZM8 19.9254H7.762C7.68733 19.9254 7.60833 19.9087 7.525 19.8754C5.34167 19.2087 3.54167 17.8587 2.125 15.8254C0.708333 13.7921 0 11.5504 0 9.10039V4.37539C0 3.95872 0.121 3.58372 0.363 3.25039C0.604333 2.91706 0.916667 2.67539 1.3 2.52539L7.3 0.275391C7.53333 0.192057 7.76667 0.150391 8 0.150391C8.23333 0.150391 8.46667 0.192057 8.7 0.275391L14.7 2.52539C15.0833 2.67539 15.396 2.91706 15.638 3.25039C15.8793 3.58372 16 3.95872 16 4.37539V8.67539C15.6833 8.54206 15.3583 8.42106 15.025 8.31239C14.6917 8.20439 14.35 8.12539 14 8.07539V4.40039L8 2.15039L2 4.40039V9.10039C2 9.88373 2.104 10.6671 2.312 11.4504C2.52067 12.2337 2.81267 12.9797 3.188 13.6884C3.56267 14.3964 4.01667 15.0504 4.55 15.6504C5.08333 16.2504 5.675 16.7504 6.325 17.1504C6.50833 17.6837 6.74167 18.1837 7.025 18.6504C7.30833 19.1171 7.64167 19.5421 8.025 19.9254H8Z" fill="#5455A9"/>
</svg>
