<svg width="17" height="17" viewBox="0 0 17 17" fill="none" xmlns="http://www.w3.org/2000/svg">
<path d="M8.4987 0.583008C12.8711 0.583008 16.4154 4.1273 16.4154 8.49967C16.4154 12.872 12.8711 16.4163 8.4987 16.4163C4.39313 16.4163 1.01767 13.2914 0.621007 9.29023C0.577873 8.85514 0.936473 8.49967 1.3737 8.49967C1.81092 8.49967 2.16017 8.85589 2.21418 9.28977C2.6031 12.4145 5.26868 14.833 8.4987 14.833C11.9963 14.833 14.832 11.9973 14.832 8.49967C14.832 5.00209 11.9963 2.16634 8.4987 2.16634C6.32161 2.16634 4.40103 3.26438 3.26182 4.93717H4.54037C4.97759 4.93717 5.33203 5.29162 5.33203 5.72884C5.33203 6.16607 4.97759 6.52051 4.54036 6.52051H1.58203C1.02975 6.52051 0.582031 6.07279 0.582031 5.52051V2.56217C0.582031 2.12495 0.936473 1.77051 1.3737 1.77051C1.81092 1.77051 2.16536 2.12495 2.16536 2.56217V3.74967C3.60936 1.82592 5.90916 0.583008 8.4987 0.583008ZM8.4987 4.54134C8.93592 4.54134 9.29036 4.89578 9.29036 5.33301V7.10799C9.29036 7.78871 9.56078 8.44155 10.0421 8.92289L11.2977 10.1785C11.607 10.4878 11.607 10.9892 11.2977 11.2985C10.9884 11.6079 10.4868 11.6078 10.1775 11.2984L8.59408 9.71415C8.0261 9.14586 7.70703 8.37529 7.70703 7.57183V5.33301C7.70703 4.89578 8.06147 4.54134 8.4987 4.54134Z" fill="#C0C1FF"/>
</svg>
