<svg width="26" height="26" viewBox="0 0 26 26" fill="none" xmlns="http://www.w3.org/2000/svg">
<path d="M13 26C20.1797 26 26 20.1797 26 13C26 5.8203 20.1797 0 13 0C5.8203 0 0 5.8203 0 13C0 20.1797 5.8203 26 13 26Z" fill="#5455A9"/>
<path d="M12.9167 5C17.289 5 20.8333 8.54429 20.8333 12.9167C20.8333 17.289 17.289 20.8333 12.9167 20.8333C8.8111 20.8333 5.43564 17.7084 5.03898 13.7072C4.99584 13.2721 5.35444 12.9167 5.79167 12.9167C6.22889 12.9167 6.57814 13.2729 6.63215 13.7068C7.02107 16.8315 9.68664 19.25 12.9167 19.25C16.4142 19.25 19.25 16.4142 19.25 12.9167C19.25 9.41908 16.4142 6.58333 12.9167 6.58333C10.7396 6.58333 8.819 7.68138 7.67979 9.35417H8.95833C9.39556 9.35417 9.75 9.70861 9.75 10.1458C9.75 10.5831 9.39556 10.9375 8.95833 10.9375H6C5.44772 10.9375 5 10.4898 5 9.9375V6.97917C5 6.54194 5.35444 6.1875 5.79167 6.1875C6.22889 6.1875 6.58333 6.54194 6.58333 6.97917V8.16667C8.02733 6.24292 10.3271 5 12.9167 5ZM12.9167 8.95833C13.3539 8.95833 13.7083 9.31277 13.7083 9.75V11.525C13.7083 12.2057 13.9787 12.8585 14.4601 13.3399L15.7157 14.5955C16.025 14.9048 16.025 15.4062 15.7157 15.7155C15.4063 16.0249 14.9047 16.0248 14.5955 15.7154L13.012 14.1311C12.4441 13.5629 12.125 12.7923 12.125 11.9888V9.75C12.125 9.31277 12.4794 8.95833 12.9167 8.95833Z" fill="white"/>
</svg>
