<svg width="17" height="17" viewBox="0 0 17 17" fill="none" xmlns="http://www.w3.org/2000/svg">
<path d="M8.50065 0.583984C12.873 0.583984 16.4173 4.12828 16.4173 8.50065C16.4173 12.873 12.873 16.4173 8.50065 16.4173C4.39508 16.4173 1.01962 13.2924 0.62296 9.29121C0.579826 8.85612 0.938426 8.50065 1.37565 8.50065C1.81288 8.50065 2.16213 8.85687 2.21613 9.29074C2.60506 12.4155 5.27063 14.834 8.50065 14.834C11.9982 14.834 14.834 11.9982 14.834 8.50065C14.834 5.00307 11.9982 2.16732 8.50065 2.16732C6.32357 2.16732 4.40298 3.26536 3.26378 4.93815H4.54232C4.97954 4.93815 5.33398 5.29259 5.33398 5.72982C5.33398 6.16704 4.97954 6.52148 4.54232 6.52148H1.58398C1.0317 6.52148 0.583984 6.07377 0.583984 5.52148V2.56315C0.583984 2.12593 0.938426 1.77148 1.37565 1.77148C1.81288 1.77148 2.16732 2.12593 2.16732 2.56315V3.75065C3.61132 1.8269 5.91111 0.583984 8.50065 0.583984ZM8.50065 4.54232C8.93788 4.54232 9.29232 4.89676 9.29232 5.33398V7.10897C9.29232 7.78969 9.56273 8.44252 10.0441 8.92386L11.2997 10.1795C11.609 10.4887 11.609 10.9902 11.2997 11.2995C10.9903 11.6089 10.4887 11.6088 10.1795 11.2994L8.59603 9.71512C8.02805 9.14684 7.70898 8.37626 7.70898 7.5728V5.33398C7.70898 4.89676 8.06343 4.54232 8.50065 4.54232Z" fill="#5455A9"/>
</svg>
