<svg width="16" height="10" viewBox="0 0 16 10" fill="none" xmlns="http://www.w3.org/2000/svg">
<path d="M15.4573 0.5L11.1441 0.5C10.8478 0.5 10.6049 0.73203 10.6049 1.02032C10.6049 1.30861 10.8477 1.54064 11.1441 1.54064L14.1327 1.54064L9.20519 6.53975L6.13803 3.58316C6.03449 3.48473 5.90237 3.43199 5.75598 3.43199C5.61316 3.43199 5.47748 3.48473 5.37393 3.58316L0.149968 8.61409C0.0821266 8.68088 0 8.7969 0 8.99025C0 9.13439 0.0499869 9.25392 0.149968 9.34883C0.253516 9.44727 0.38563 9.5 0.53202 9.5C0.674845 9.5 0.810527 9.44727 0.914073 9.34883L5.75575 4.68369L8.82291 7.64027C8.92646 7.73871 9.05858 7.79144 9.20496 7.79144C9.34779 7.79144 9.48347 7.73871 9.58702 7.64027L14.9216 2.30013V5.17235C14.9216 5.45711 15.1644 5.69267 15.4608 5.69267C15.7572 5.69267 16 5.46064 16 5.17235V1.02051C15.9964 0.732235 15.7536 0.500193 15.4573 0.500193V0.5Z" fill="#1B1B1E"/>
</svg>
