<svg width="18" height="18" viewBox="0 0 18 18" fill="none" xmlns="http://www.w3.org/2000/svg">
<path d="M6 6H6.96V5H7.92V6H8.88V5H9.84V6.015C10.92 6.14 11.76 7.09 11.76 8.25C11.76 8.9 11.496 9.5 11.0688 9.9C11.6304 10.305 12 10.985 12 11.75C12 13 11.04 14 9.84 14V15H8.88V14H7.92V15H6.96V14H6L6.24 13H6.96V7H6V6ZM7.92 10.5V13H9.84C10.1583 13 10.4635 12.8683 10.6885 12.6339C10.9136 12.3995 11.04 12.0815 11.04 11.75C11.04 11.4185 10.9136 11.1005 10.6885 10.8661C10.4635 10.6317 10.1583 10.5 9.84 10.5H7.92ZM7.92 7V9.5H9.6C9.91826 9.5 10.2235 9.3683 10.4485 9.13388C10.6736 8.89946 10.8 8.58152 10.8 8.25C10.8 7.91848 10.6736 7.60054 10.4485 7.36612C10.2235 7.1317 9.91826 7 9.6 7H7.92Z" fill="#5455A9"/>
<path fill-rule="evenodd" clip-rule="evenodd" d="M8.70233 2H8.67702C7.44837 2 6.49135 2 5.72409 2.06251C4.94493 2.12651 4.31237 2.25749 3.74307 2.54772C2.79783 3.02933 2.02933 3.79783 1.54772 4.74307C1.25749 5.31237 1.12651 5.94493 1.06251 6.72409C1 7.49135 1 8.44837 1 9.67702V10.323C1 11.5516 1 12.5087 1.06251 13.2759C1.12651 14.0551 1.25749 14.6876 1.54772 15.2569C2.02933 16.2022 2.79783 16.9707 3.74307 17.4523C4.31237 17.7425 4.94493 17.8735 5.72409 17.9375C6.49135 18 7.44837 18 8.67702 18H9.32298C10.5516 18 11.5087 18 12.2759 17.9375C13.0551 17.8735 13.6876 17.7425 14.2569 17.4523C15.2022 16.9707 15.9707 16.2022 16.4523 15.2569C16.7425 14.6876 16.8735 14.0551 16.9375 13.2759C17 12.5087 17 11.5516 17 10.323V9.67702C17 8.44837 17 7.49135 16.9375 6.72409C16.8735 5.94493 16.7425 5.31237 16.4523 4.74307C15.9707 3.79783 15.2022 3.02933 14.2569 2.54772C13.6876 2.25749 13.0551 2.12651 12.2759 2.06251C11.5087 2 10.5516 2 9.32298 2H8.70233ZM4.24986 3.54195C4.63535 3.34549 5.10567 3.23312 5.81488 3.17507C6.53153 3.11702 7.44242 3.11628 8.70233 3.11628H9.29767C10.5568 3.11628 11.4685 3.11628 12.1851 3.17581C12.8951 3.23312 13.3647 3.34549 13.7501 3.54195C14.4855 3.91657 15.0834 4.51446 15.458 5.24986C15.6545 5.63535 15.7669 6.10567 15.8249 6.81488C15.883 7.53153 15.8837 8.44242 15.8837 9.70233V10.2977C15.8837 11.5568 15.8837 12.4685 15.8242 13.1851C15.7669 13.8951 15.6545 14.3647 15.458 14.7501C15.0834 15.4855 14.4855 16.0834 13.7501 16.458C13.3647 16.6545 12.8943 16.7669 12.1851 16.8249C11.4685 16.883 10.5568 16.8837 9.29767 16.8837H8.70233C7.44242 16.8837 6.53153 16.8837 5.81488 16.8242C5.10493 16.7669 4.63535 16.6545 4.24986 16.458C3.51446 16.0834 2.91657 15.4855 2.54195 14.7501C2.34549 14.3647 2.23312 13.8943 2.17507 13.1851C2.11702 12.4685 2.11628 11.5568 2.11628 10.2977V9.70233C2.11628 8.44242 2.11628 7.53153 2.17581 6.81488C2.23312 6.10493 2.34549 5.63535 2.54195 5.24986C2.91657 4.51446 3.51446 3.91657 4.24986 3.54195Z" fill="#5455A9"/>
</svg>
