<svg width="26" height="26" viewBox="0 0 26 26" fill="none" xmlns="http://www.w3.org/2000/svg">
<circle cx="13" cy="13" r="13" fill="#C0C1FF"/>
<path fill-rule="evenodd" clip-rule="evenodd" d="M12.6977 4.875H12.672C11.4241 4.875 10.4522 4.875 9.67291 4.93849C8.88157 5.00349 8.23913 5.13651 7.66093 5.43128C6.70092 5.92041 5.92041 6.70092 5.43128 7.66093C5.13651 8.23913 5.00349 8.88157 4.93849 9.67291C4.875 10.4522 4.875 11.4241 4.875 12.672V13.328C4.875 14.5759 4.875 15.5478 4.93849 16.3271C5.00349 17.1184 5.13651 17.7609 5.43128 18.3391C5.92041 19.2991 6.70092 20.0796 7.66093 20.5687C8.23913 20.8635 8.88157 20.9965 9.67291 21.0615C10.4522 21.125 11.4241 21.125 12.672 21.125H13.328C14.5759 21.125 15.5478 21.125 16.3271 21.0615C17.1184 20.9965 17.7609 20.8635 18.3391 20.5687C19.2991 20.0796 20.0796 19.2991 20.5687 18.3391C20.8635 17.7609 20.9965 17.1184 21.0615 16.3271C21.125 15.5478 21.125 14.5759 21.125 13.328V12.672C21.125 11.4241 21.125 10.4522 21.0615 9.67291C20.9965 8.88157 20.8635 8.23913 20.5687 7.66093C20.0796 6.70092 19.2991 5.92041 18.3391 5.43128C17.7609 5.13651 17.1184 5.00349 16.3271 4.93849C15.5478 4.875 14.5759 4.875 13.328 4.875H12.6977V4.875ZM8.17564 6.44105C8.56715 6.24151 9.04483 6.12738 9.76512 6.06843C10.493 6.00948 11.4181 6.00872 12.6977 6.00872H13.3023C14.5812 6.00872 15.507 6.00872 16.2349 6.06919C16.9559 6.12738 17.4328 6.24151 17.8244 6.44105C18.5713 6.82152 19.1785 7.42874 19.559 8.17564C19.7585 8.56715 19.8726 9.04483 19.9316 9.76512C19.9905 10.493 19.9913 11.4181 19.9913 12.6977V13.3023C19.9913 14.5812 19.9913 15.507 19.9308 16.2349C19.8726 16.9559 19.7585 17.4328 19.559 17.8244C19.1785 18.5713 18.5713 19.1785 17.8244 19.559C17.4328 19.7585 16.9552 19.8726 16.2349 19.9316C15.507 19.9905 14.5812 19.9913 13.3023 19.9913H12.6977C11.4181 19.9913 10.493 19.9913 9.76512 19.9308C9.04407 19.8726 8.56715 19.7585 8.17564 19.559C7.42874 19.1785 6.82152 18.5713 6.44105 17.8244C6.24151 17.4328 6.12738 16.9552 6.06843 16.2349C6.00948 15.507 6.00872 14.5812 6.00872 13.3023V12.6977C6.00872 11.4181 6.00872 10.493 6.06919 9.76512C6.12738 9.04407 6.24151 8.56715 6.44105 8.17564C6.82152 7.42874 7.42874 6.82152 8.17564 6.44105V6.44105ZM13.5669 9.97674C13.5669 9.8264 13.5071 9.68222 13.4008 9.57591C13.2945 9.46961 13.1503 9.40988 13 9.40988C12.8497 9.40988 12.7055 9.46961 12.5992 9.57591C12.4929 9.68222 12.4331 9.8264 12.4331 9.97674V12.4331H9.97674C9.8264 12.4331 9.68222 12.4929 9.57591 12.5992C9.46961 12.7055 9.40988 12.8497 9.40988 13C9.40988 13.1503 9.46961 13.2945 9.57591 13.4008C9.68222 13.5071 9.8264 13.5669 9.97674 13.5669H12.4331V16.0233C12.4331 16.1736 12.4929 16.3178 12.5992 16.4241C12.7055 16.5304 12.8497 16.5901 13 16.5901C13.1503 16.5901 13.2945 16.5304 13.4008 16.4241C13.5071 16.3178 13.5669 16.1736 13.5669 16.0233V13.5669H16.0233C16.1736 13.5669 16.3178 13.5071 16.4241 13.4008C16.5304 13.2945 16.5901 13.1503 16.5901 13C16.5901 12.8497 16.5304 12.7055 16.4241 12.5992C16.3178 12.4929 16.1736 12.4331 16.0233 12.4331H13.5669V9.97674Z" fill="#242477"/>
</svg>
