<svg width="19" height="20" viewBox="0 0 19 20" fill="none" xmlns="http://www.w3.org/2000/svg">
<g filter="url(#filter0_d_53198_15127)">
<path d="M1.5 3C1.5 2.44772 1.94772 2 2.5 2H16.5C17.0523 2 17.5 2.44772 17.5 3V17C17.5 17.5523 17.0523 18 16.5 18H2.5C1.94772 18 1.5 17.5523 1.5 17V3Z" fill="#FFFBFF"/>
<path d="M1.5 3C1.5 2.44772 1.94772 2 2.5 2H16.5C17.0523 2 17.5 2.44772 17.5 3V17C17.5 17.5523 17.0523 18 16.5 18H2.5C1.94772 18 1.5 17.5523 1.5 17V3Z" fill="#5455A9" fill-opacity="0.08"/>
<path d="M5.69531 10.3908L8.34809 13.4226C8.6011 13.7117 9.057 13.6915 9.28337 13.381L14.0857 6.79492" stroke="#FFC444" stroke-width="1.19863" stroke-linecap="round"/>
<path d="M2.5 3H16.5V1H2.5V3ZM16.5 3V17H18.5V3H16.5ZM16.5 17H2.5V19H16.5V17ZM2.5 17V3H0.5V17H2.5ZM2.5 17H0.5C0.5 18.1046 1.39543 19 2.5 19V17ZM16.5 17V19C17.6046 19 18.5 18.1046 18.5 17H16.5ZM16.5 3H18.5C18.5 1.89543 17.6046 1 16.5 1V3ZM2.5 1C1.39543 1 0.5 1.89543 0.5 3H2.5V1Z" fill="#FFC444"/>
</g>
<defs>
<filter id="filter0_d_53198_15127" x="0.30137" y="0.80137" width="18.3973" height="18.3973" filterUnits="userSpaceOnUse" color-interpolation-filters="sRGB">
<feFlood flood-opacity="0" result="BackgroundImageFix"/>
<feColorMatrix in="SourceAlpha" type="matrix" values="0 0 0 0 0 0 0 0 0 0 0 0 0 0 0 0 0 0 127 0" result="hardAlpha"/>
<feMorphology radius="1.19863" operator="dilate" in="SourceAlpha" result="effect1_dropShadow_53198_15127"/>
<feOffset/>
<feComposite in2="hardAlpha" operator="out"/>
<feColorMatrix type="matrix" values="0 0 0 0 1 0 0 0 0 0.54902 0 0 0 0 0.34902 0 0 0 0.25 0"/>
<feBlend mode="normal" in2="BackgroundImageFix" result="effect1_dropShadow_53198_15127"/>
<feBlend mode="normal" in="SourceGraphic" in2="effect1_dropShadow_53198_15127" result="shape"/>
</filter>
</defs>
</svg>
