<svg width="26" height="26" viewBox="0 0 26 26" fill="none" xmlns="http://www.w3.org/2000/svg">
<path d="M13.4 15.499H11.0663C11.0733 14.9365 11.1291 14.4647 11.2337 14.0837C11.3384 13.6966 11.5128 13.3458 11.757 13.0312C12.0081 12.7167 12.3395 12.3841 12.7512 12.0333C13.0721 11.7671 13.3616 11.5161 13.6198 11.2802C13.8779 11.0383 14.0837 10.7843 14.2372 10.5181C14.3907 10.246 14.4674 9.93448 14.4674 9.58367C14.4674 9.20262 14.3942 8.87903 14.2477 8.6129C14.1012 8.34677 13.8849 8.14415 13.5988 8.00504C13.3198 7.86593 12.9709 7.79637 12.5523 7.79637C12.2035 7.79637 11.8756 7.85685 11.5686 7.97782C11.2616 8.09274 11.014 8.27419 10.8256 8.52218C10.6372 8.76411 10.536 9.08468 10.5221 9.48387H8C8.01395 8.72177 8.22326 8.08065 8.62791 7.56048C9.03256 7.04032 9.57674 6.6502 10.2605 6.39012C10.9442 6.13004 11.7081 6 12.5523 6C13.4872 6 14.286 6.13911 14.9488 6.41734C15.6116 6.68952 16.1174 7.08871 16.4663 7.61492C16.8221 8.13508 17 8.76411 17 9.50202C17 10.0343 16.8779 10.5181 16.6337 10.9536C16.3895 11.3831 16.0721 11.7853 15.6814 12.1603C15.2907 12.5292 14.8686 12.8982 14.4151 13.2671C14.0244 13.5756 13.7593 13.9113 13.6198 14.2742C13.4802 14.631 13.407 15.0393 13.4 15.499ZM10.857 18.3296C10.857 18.003 10.986 17.7278 11.2442 17.504C11.5023 17.2742 11.8547 17.1593 12.3012 17.1593C12.7477 17.1593 13.1 17.2742 13.3581 17.504C13.6163 17.7278 13.7453 18.003 13.7453 18.3296C13.7453 18.6562 13.6163 18.9345 13.3581 19.1643C13.1 19.3881 12.7477 19.5 12.3012 19.5C11.8547 19.5 11.5023 19.3881 11.2442 19.1643C10.986 18.9345 10.857 18.6562 10.857 18.3296Z" fill="#C0C1FF"/>
</svg>
