<svg width="26" height="26" viewBox="0 0 26 26" fill="none" xmlns="http://www.w3.org/2000/svg">
<path d="M10 10H10.96V9H11.92V10H12.88V9H13.84V10.015C14.92 10.14 15.76 11.09 15.76 12.25C15.76 12.9 15.496 13.5 15.0688 13.9C15.6304 14.305 16 14.985 16 15.75C16 17 15.04 18 13.84 18V19H12.88V18H11.92V19H10.96V18H10L10.24 17H10.96V11H10V10ZM11.92 14.5V17H13.84C14.1583 17 14.4635 16.8683 14.6885 16.6339C14.9136 16.3995 15.04 16.0815 15.04 15.75C15.04 15.4185 14.9136 15.1005 14.6885 14.8661C14.4635 14.6317 14.1583 14.5 13.84 14.5H11.92ZM11.92 11V13.5H13.6C13.9183 13.5 14.2235 13.3683 14.4485 13.1339C14.6736 12.8995 14.8 12.5815 14.8 12.25C14.8 11.9185 14.6736 11.6005 14.4485 11.3661C14.2235 11.1317 13.9183 11 13.6 11H11.92Z" fill="#C0C1FF"/>
<path fill-rule="evenodd" clip-rule="evenodd" d="M12.7023 6H12.677C11.4484 6 10.4913 6 9.72409 6.06251C8.94493 6.12651 8.31237 6.25749 7.74307 6.54772C6.79783 7.02933 6.02933 7.79783 5.54772 8.74307C5.25749 9.31237 5.12651 9.94493 5.06251 10.7241C5 11.4913 5 12.4484 5 13.677V14.323C5 15.5516 5 16.5087 5.06251 17.2759C5.12651 18.0551 5.25749 18.6876 5.54772 19.2569C6.02933 20.2022 6.79783 20.9707 7.74307 21.4523C8.31237 21.7425 8.94493 21.8735 9.72409 21.9375C10.4913 22 11.4484 22 12.677 22H13.323C14.5516 22 15.5087 22 16.2759 21.9375C17.0551 21.8735 17.6876 21.7425 18.2569 21.4523C19.2022 20.9707 19.9707 20.2022 20.4523 19.2569C20.7425 18.6876 20.8735 18.0551 20.9375 17.2759C21 16.5087 21 15.5516 21 14.323V13.677C21 12.4484 21 11.4913 20.9375 10.7241C20.8735 9.94493 20.7425 9.31237 20.4523 8.74307C19.9707 7.79783 19.2022 7.02933 18.2569 6.54772C17.6876 6.25749 17.0551 6.12651 16.2759 6.06251C15.5087 6 14.5516 6 13.323 6H12.7023ZM8.24986 7.54195C8.63535 7.34549 9.10567 7.23312 9.81488 7.17507C10.5315 7.11702 11.4424 7.11628 12.7023 7.11628H13.2977C14.5568 7.11628 15.4685 7.11628 16.1851 7.17581C16.8951 7.23312 17.3647 7.34549 17.7501 7.54195C18.4855 7.91657 19.0834 8.51446 19.458 9.24986C19.6545 9.63535 19.7669 10.1057 19.8249 10.8149C19.883 11.5315 19.8837 12.4424 19.8837 13.7023V14.2977C19.8837 15.5568 19.8837 16.4685 19.8242 17.1851C19.7669 17.8951 19.6545 18.3647 19.458 18.7501C19.0834 19.4855 18.4855 20.0834 17.7501 20.458C17.3647 20.6545 16.8943 20.7669 16.1851 20.8249C15.4685 20.883 14.5568 20.8837 13.2977 20.8837H12.7023C11.4424 20.8837 10.5315 20.8837 9.81488 20.8242C9.10493 20.7669 8.63535 20.6545 8.24986 20.458C7.51446 20.0834 6.91657 19.4855 6.54195 18.7501C6.34549 18.3647 6.23312 17.8943 6.17507 17.1851C6.11702 16.4685 6.11628 15.5568 6.11628 14.2977V13.7023C6.11628 12.4424 6.11628 11.5315 6.17581 10.8149C6.23312 10.1049 6.34549 9.63535 6.54195 9.24986C6.91657 8.51446 7.51446 7.91657 8.24986 7.54195Z" fill="#C0C1FF"/>
</svg>
