<svg width="24" height="25" viewBox="0 0 24 25" fill="none" xmlns="http://www.w3.org/2000/svg">
<path d="M12.25 18.5C13.2442 18.499 14.1974 18.1035 14.9005 17.4005C15.6035 16.6975 15.9989 15.7442 16 14.75V8.18201C16.0012 7.78774 15.9241 7.39715 15.7732 7.03289C15.6223 6.66863 15.4007 6.33795 15.121 6.06001L13.439 4.37901C13.1612 4.09948 12.8307 3.87785 12.4666 3.72697C12.1025 3.57609 11.7121 3.49894 11.318 3.50001H7.75C6.75576 3.50107 5.80255 3.8965 5.09952 4.59953C4.39649 5.30256 4.00106 6.25577 4 7.25001V14.75C4.00106 15.7442 4.39649 16.6975 5.09952 17.4005C5.80255 18.1035 6.75576 18.499 7.75 18.5H12.25ZM5.5 14.75V7.25001C5.5 6.65327 5.73705 6.08098 6.15901 5.65902C6.58097 5.23706 7.15326 5.00001 7.75 5.00001C7.75 5.00001 11.439 5.01001 11.5 5.01801V6.50001C11.5 6.89784 11.658 7.27937 11.9393 7.56067C12.2206 7.84198 12.6022 8.00001 13 8.00001H14.482C14.489 8.06101 14.5 14.75 14.5 14.75C14.5 15.3467 14.2629 15.919 13.841 16.341C13.419 16.763 12.8467 17 12.25 17H7.75C7.15326 17 6.58097 16.763 6.15901 16.341C5.73705 15.919 5.5 15.3467 5.5 14.75ZM19 9.50001V17.75C18.9989 18.7442 18.6035 19.6975 17.9005 20.4005C17.1974 21.1035 16.2442 21.499 15.25 21.5H8.5C8.30109 21.5 8.11032 21.421 7.96967 21.2803C7.82902 21.1397 7.75 20.9489 7.75 20.75C7.75 20.5511 7.82902 20.3603 7.96967 20.2197C8.11032 20.079 8.30109 20 8.5 20H15.25C15.8467 20 16.419 19.763 16.841 19.341C17.2629 18.919 17.5 18.3467 17.5 17.75V9.50001C17.5 9.3011 17.579 9.11033 17.7197 8.96968C17.8603 8.82903 18.0511 8.75001 18.25 8.75001C18.4489 8.75001 18.6397 8.82903 18.7803 8.96968C18.921 9.11033 19 9.3011 19 9.50001Z" fill="#080415"/>
</svg>
