<svg width="11" height="13" viewBox="0 0 11 13" fill="none" xmlns="http://www.w3.org/2000/svg">
<path d="M1.00092 12H10.0009C10.1259 11.9998 10.2464 12.0463 10.3387 12.1305C10.431 12.2147 10.4885 12.3304 10.4998 12.4548C10.5111 12.5793 10.4754 12.7034 10.3997 12.8028C10.324 12.9023 10.2139 12.9697 10.0909 12.992L10.0009 13H1.00092C0.875976 13.0002 0.755471 12.9537 0.663139 12.8695C0.570806 12.7853 0.513336 12.6696 0.502046 12.5452C0.490757 12.4207 0.526466 12.2966 0.602141 12.1972C0.677817 12.0977 0.787974 12.0303 0.910922 12.008L1.00092 12H10.0009H1.00092ZM5.41092 0.00800004L5.50092 2.78103e-08C5.61795 -3.89861e-05 5.73128 0.0409714 5.82118 0.115889C5.91108 0.190807 5.97186 0.294886 5.99292 0.41L6.00092 0.5V9.292L8.68292 6.611C8.76565 6.52817 8.87482 6.477 8.99141 6.4664C9.108 6.4558 9.22461 6.48645 9.32092 6.553L9.39092 6.611C9.4736 6.69386 9.52458 6.80309 9.535 6.91967C9.54541 7.03626 9.5146 7.1528 9.44792 7.249L9.38992 7.318L5.85492 10.854C5.77207 10.9367 5.66283 10.9877 5.54625 10.9981C5.42966 11.0085 5.31312 10.9777 5.21692 10.911L5.14692 10.854L1.61192 7.318C1.52334 7.22981 1.471 7.11164 1.46522 6.98678C1.45944 6.86191 1.50064 6.73941 1.5807 6.64342C1.66076 6.54742 1.77387 6.4849 1.89774 6.46816C2.02161 6.45142 2.14726 6.48169 2.24992 6.553L2.31892 6.611L5.00092 9.292V0.5C5.00088 0.382974 5.04189 0.269643 5.11681 0.179741C5.19173 0.0898397 5.29581 0.0290646 5.41092 0.00800004L5.50092 2.78103e-08L5.41092 0.00800004Z" fill="#5455A9"/>
</svg>
