<svg width="300" height="248" viewBox="0 0 300 248" fill="none" xmlns="http://www.w3.org/2000/svg">
<ellipse cx="148.5" cy="124" rx="124.5" ry="124" fill="white"/>
<path d="M159.201 50.7888C159.201 50.7888 170.913 37.6262 195.372 54.9455C219.83 72.2648 201.228 136 201.228 136L153 123.876L159.201 50.7888Z" fill="black"/>
<path d="M102 223.195C102 223.195 133.364 230.464 158.803 228.734C184.242 227.003 194 222.157 194 222.157V179.232L172.045 110L132.318 112.077L107.924 157.77L102 223.195Z" fill="#8A8ADD"/>
<path d="M165 92L164.653 110.238C164.653 110.238 161.181 115.305 150.417 115.98C142.431 116.318 140 112.265 140 112.265L142.431 96.053L161.875 92.3377L165 92Z" fill="#FF9280"/>
<path d="M165 91C165 91.3488 164.652 92.0465 164.304 92.7442C160.13 102.163 145.522 105.651 141 106L142.391 96.5814L165 91Z" fill="black"/>
<path d="M140.2 53.7731C140.2 53.7731 130.303 77.2784 133.716 90.4137C137.128 103.549 148.39 101.821 155.215 99.0554C162.04 96.6357 165.111 92.1421 165.111 92.1421C165.111 92.1421 171.595 94.5617 175.69 88.3397C180.127 82.1177 177.397 74.8587 173.984 73.1304C170.23 71.4021 166.135 74.1674 166.135 74.1674L169.548 67.2541C169.548 67.5997 155.556 32.6874 140.2 53.7731Z" fill="#FF9280"/>
<path d="M140.826 84C140.545 84 140.265 83.6535 140.265 83.6535C139.143 78.8031 141.948 73.6063 141.948 73.2598C142.229 72.9134 142.509 72.9134 142.79 73.2598C143.07 73.6063 143.07 73.9528 142.79 74.2992C142.79 74.2992 140.265 79.1496 141.387 83.3071C141.387 83.6535 141.387 84 140.826 84C141.106 84 140.826 84 140.826 84Z" fill="black"/>
<path d="M167.622 85H167.267C166.911 84.6484 166.911 84.2967 167.267 83.9451L173.667 77.2637C174.022 76.9121 174.378 76.9121 174.733 77.2637C175.089 77.6154 175.089 77.967 174.733 78.3187L168.333 85C167.978 85 167.622 85 167.622 85Z" fill="black"/>
<path d="M172.688 83L168.625 82.3333C168.313 82.3333 168 82 168 81.6667C168 81.3333 168.313 81 168.625 81L172.375 81.6667C172.687 81.6667 173 82 173 82.3333C173 82.6667 172.688 83 172.688 83Z" fill="black"/>
<path d="M135.625 64C135.313 64 135 63.6667 135 63.3333C135 63 135 62.6667 135.625 62.6667L139.375 62C139.687 62 140 62 140 62.6667C140 63 140 63.3333 139.375 63.3333L135.625 64Z" fill="black"/>
<path d="M153.304 67C153.304 67 152.957 67 153.304 67L146.348 63.4286C146 63.4286 146 62.7143 146 62.3571C146 62 146.696 62 147.043 62L153.652 65.5714C154 65.5714 154 66.2857 154 66.6429C153.652 67 153.304 67 153.304 67Z" fill="black"/>
<path d="M135.985 74C135.582 74 135.582 74 135.985 74C135.179 74 135.179 73.6322 135.179 73.2644L136.388 68.8506L135.179 67.3793C134.776 67.0115 135.179 66.6437 135.179 66.2759C135.582 65.908 135.985 65.908 136.388 66.2759L138 68.1149C138 68.1149 138 68.4828 138 68.8506L136.388 73.6322C136.388 74 135.985 74 135.985 74Z" fill="black"/>
<path d="M148.224 75C147.897 75 147.897 75 148.224 75C147.571 75 147.571 74.6322 147.571 74.2644L148.55 70.2184L147.245 68.3793C146.918 68.0115 146.918 67.6437 147.245 67.2759C147.571 66.908 147.897 66.908 148.224 67.2759L149.855 69.4828C149.855 69.4828 150.181 69.8506 149.855 70.2184L148.55 74.6322C148.55 75 148.224 75 148.224 75Z" fill="black"/>
<path d="M140.22 116.333C140.22 116.333 139.188 106.667 141.596 106.333C144.347 106 147.099 108 153.29 107C159.481 106 162.921 104 164.984 104C167.048 104 165.328 116 165.328 116L149.85 121L140.22 116.333Z" fill="#8A8ADD"/>
<path d="M174.513 74.1477C174.513 74.1477 171.745 72.7469 169.324 73.0971C166.902 73.4473 165.172 74.4979 165.172 74.4979L162.059 78L164.134 70.2954C164.134 70.2954 162.405 68.8946 159.291 67.4937L161.021 60.8397L157.908 66.7933C155.14 65.3925 152.027 64.3418 148.567 63.6414C146.838 63.2912 145.108 62.941 143.724 62.941L145.108 55.5866L141.648 62.5908C138.189 62.2406 136.113 62.5908 136.113 62.5908L133 69.9452C133 69.9452 134.038 49.633 143.378 44.7301C152.718 39.8272 168.286 41.228 174.859 51.3841C182.123 62.2406 174.513 74.1477 174.513 74.1477Z" fill="black"/>
<path d="M146.609 87H146.261C145.913 86.7091 145.913 86.4182 146.261 86.1273L148.696 83.2182C149.043 82.9273 149.391 82.9273 149.739 83.2182C150.087 83.5091 150.087 83.8 149.739 84.0909L147.304 87C146.957 87 146.609 87 146.609 87Z" fill="black"/>
<path d="M51.8068 146C51.8068 146 28.0663 140.749 14.9918 132.698C1.91727 124.647 -0.835258 118.697 0.19694 116.596C1.22914 114.496 10.5189 117.647 10.5189 117.647C10.5189 117.647 -1.52339 109.596 0.541005 105.045C2.6054 100.495 13.9596 106.095 13.9596 106.095C13.9596 106.095 6.39012 98.7444 10.1748 96.2941C13.9596 93.8438 33.9154 106.445 33.9154 106.445C33.9154 106.445 26.0019 96.9942 29.0985 95.2439C31.851 93.4937 47.334 101.545 51.1187 107.145C54.9034 112.746 58 121.847 58 121.847L51.8068 146Z" fill="#FF9280"/>
<path d="M47.0319 127H46.6798C33.3023 117.016 34.0064 107.377 34.0064 106.689C34.0064 106.344 34.3584 106 34.7105 106C35.0625 106 35.4146 106.344 35.4146 106.689C35.4146 106.689 35.0625 115.984 47.736 125.623C48.088 125.967 48.088 126.311 47.736 126.656C47.3839 127 47.0319 127 47.0319 127Z" fill="black"/>
<path d="M23.7083 129C23.3541 129 23.3541 129 23.7083 129C23 129 23 128.659 23 128.319L30.7909 104.482C30.7909 104.141 31.145 103.801 31.4992 104.141C31.8533 104.141 32.2074 104.482 31.8533 104.822L24.0624 128.659C24.0624 129 23.7083 129 23.7083 129Z" fill="black"/>
<path d="M248.193 149C248.193 149 271.934 143.749 285.008 135.698C298.083 127.647 300.835 121.697 299.803 119.596C298.771 117.496 289.481 120.647 289.481 120.647C289.481 120.647 301.523 112.596 299.459 108.045C297.395 103.495 286.04 109.095 286.04 109.095C286.04 109.095 293.61 101.744 289.825 99.2941C286.04 96.8438 266.085 109.445 266.085 109.445C266.085 109.445 273.998 99.9942 270.902 98.2439C268.149 96.4937 252.666 104.545 248.881 110.145C245.097 115.746 242 124.847 242 124.847L248.193 149Z" fill="#FF9280"/>
<path d="M253.512 129C253.158 129 253.158 129 253.158 128.656C252.803 128.311 253.158 127.967 253.158 127.623C265.929 117.984 265.575 108.689 265.575 108.689C265.575 108.344 265.929 108 266.284 108C266.639 108 266.994 108.344 266.994 108.689C266.994 109.033 267.703 118.672 254.222 129C253.867 129 253.512 129 253.512 129Z" fill="black"/>
<path d="M277.419 132C277.068 132 276.717 131.658 276.717 131.658L269 107.685C269 107.342 269 107 269.351 107C269.702 107 270.052 107 270.052 107.342L277.77 131.315C278.12 131.315 278.12 131.658 277.419 132C277.77 132 277.419 132 277.419 132Z" fill="black"/>
<path d="M30 148.46C30 148.46 53.9555 186.92 76.5223 191.425C99.089 195.583 127.558 175.833 127.558 175.833L147 113.811C147 113.811 135.89 106.534 127.558 108.267C118.878 109.999 95.9644 135.986 89.0208 135.64C82.0771 135.293 58.816 117.968 58.816 117.968L30 148.46Z" fill="#8A8ADD"/>
<path d="M271 150.46C271 150.46 247.045 188.92 224.478 193.425C201.911 197.583 173.442 177.833 173.442 177.833L154 115.811C154 115.811 165.11 108.534 173.442 110.267C182.122 111.999 205.036 137.986 211.979 137.64C218.923 137.293 242.184 119.968 242.184 119.968L271 150.46Z" fill="#8A8ADD"/>
<path d="M152.667 113C152.333 113 152 112.571 152 112.143C152 111.714 152.333 111.286 152.667 111.286C152.667 111.286 157.667 110.857 164.333 110C164.667 110 165 110.429 165 110.857C165 111.286 164.667 111.714 164.333 111.714C157.667 112.143 152.667 113 152.667 113Z" fill="white"/>
<path d="M87.3546 151C87.0094 151 86.6643 151 86.3191 150.652C85.2836 150.304 84.5933 149.609 84.2481 148.565C82.8674 144.391 87.6997 135.696 87.6997 135.348C87.6997 135 88.0449 135 88.3901 135C88.7352 135 88.7352 135.348 89.0804 135.348C89.4256 137.435 91.1514 148.217 88.7352 150.304C88.3901 150.652 88.0449 151 87.3546 151ZM88.0449 137.435C86.6643 140.565 84.5933 145.435 85.6288 147.87C85.9739 148.565 86.3191 148.913 86.6642 149.261C87.3546 149.609 87.6997 149.261 87.6997 149.261C89.0804 148.217 88.7352 142.304 88.0449 137.435Z" fill="white"/>
<path d="M212.695 152C212.028 152 211.36 151.659 211.026 151.318C208.69 148.591 211.026 138.364 211.36 137.341C211.36 137 211.694 137 212.028 137C212.362 137 212.695 137 212.695 137.341C213.029 138.364 216.367 148.932 214.364 151.659C214.03 151.659 213.363 152 212.695 152ZM212.028 139.727C211.36 143.477 210.693 148.591 212.028 150.295C212.362 150.636 212.362 150.636 212.695 150.636C213.029 150.636 213.029 150.636 213.363 150.295C214.364 148.932 213.363 143.818 212.028 139.727Z" fill="white"/>
<path d="M106.702 180C106.356 180 106.009 179.653 106.009 179.306C106.009 179.306 106.356 166.821 106.009 155.376C105.663 143.584 115.01 135.607 115.702 135.26C116.048 134.913 116.394 134.913 116.74 135.26C117.087 135.607 117.087 135.954 116.74 136.301C116.74 136.301 107.394 144.277 107.74 155.376C108.086 166.821 107.74 179.306 107.74 179.306C107.394 180 107.048 180 106.702 180Z" fill="white"/>
</svg>
