<svg width="178" height="178" viewBox="0 0 178 178" fill="none" xmlns="http://www.w3.org/2000/svg">
<path d="M101.852 163.619C60.1552 170.956 20.4668 143.452 13.2054 102.187C5.94403 60.9213 33.8594 21.5211 75.5561 14.1838C117.253 6.84649 156.941 34.3506 164.203 75.6159C171.464 116.881 143.549 156.281 101.852 163.619Z" fill="#EDDDD6"/>
<path d="M136.805 147.716C144.87 141.338 151.624 133.207 156.531 124.078C147.407 114.939 126.151 103.306 115.352 101.735C101.467 99.7155 125.804 126.014 136.805 147.716Z" fill="#7772D3"/>
<path d="M66.0094 61.4873C62.0364 61.6905 58.2891 63.1764 55.6059 65.9628C53.1902 68.3715 51.1623 72.0344 51.1495 77.657C51.1384 90.8831 56.4857 93.7441 49.8795 99.8657C43.2733 105.987 38.5531 103.842 35.9708 116.695C33.3884 129.547 43.5005 144.298 58.0035 138.439C72.5065 132.581 107.21 116.226 107.21 116.226L99.4352 62.5481L80.2812 60.9595L66.0094 61.4873Z" fill="#E56445"/>
<path d="M58.5585 158.672C67.2098 162.274 76.4455 164.451 86.1809 164.722C91.3726 164.8 96.6699 164.529 102.016 163.588C104.285 163.189 106.525 162.63 108.765 162.07C112.272 161.122 115.724 159.854 119.147 158.425C125.67 155.624 131.565 152.107 136.967 147.685C142.827 143.017 147.869 137.502 152.151 131.458C148.811 125.765 145.583 120.712 142.476 117.292C127.996 100.499 111.16 101.644 111.16 101.644C92.5975 99.6204 77.3608 101.31 62.8378 111.8C56.196 116.771 56.1303 137.28 58.5585 158.672Z" fill="#7772D3"/>
<path d="M65.9017 153.909L67.8266 162.001C73.7865 163.597 79.9858 164.655 86.2061 164.883C91.3978 164.961 96.6951 164.69 102.042 163.749C104.31 163.35 106.55 162.79 108.79 162.231C112.298 161.283 115.749 160.015 119.172 158.586C125.695 155.785 131.59 152.268 136.992 147.846C137.288 147.629 137.584 147.411 137.88 147.194C141.105 144.643 144.084 141.639 146.739 138.692C133.027 119.616 115.405 102.054 115.405 102.054L93.2006 101.167L66.9625 110.578L65.9017 153.909Z" fill="#46467F"/>
<path d="M115.186 101.763C115.186 101.763 128.408 127.538 137.689 147.063C141.049 144.323 144.19 141.291 146.951 137.995L122.732 105.725L115.186 101.763Z" fill="#7772D3"/>
<path d="M115.369 63.8731C115.369 63.8731 120.6 50.8855 119.077 46.0291C115.447 33.9397 96.4538 28.5208 79.972 37.3719C63.4901 46.2231 63.7066 68.3356 68.1254 77.3108C79.3242 100.136 99.2429 88.0348 99.2429 88.0348C99.2429 88.0348 131.222 76.1261 115.369 63.8731Z" fill="#E56445"/>
<path d="M114.081 90.7212L114.166 91.2022L114.689 99.8712L115.036 106.588C115.036 106.588 115.804 108.105 107.83 108.352C97.2071 108.733 93.3106 104.625 93.3106 104.625L91.2218 88.9581L94.4412 89.2181L114.081 90.7212Z" fill="#FCA397"/>
<path d="M114.165 91.1974L114.689 99.8664C109.497 99.7881 99.9163 98.4986 95.2371 90.8915C94.9623 90.2787 94.6874 89.6658 94.4407 89.2133L114.165 91.1974Z" fill="black"/>
<path d="M113.238 49.8703C113.238 49.8703 125.345 71.2128 123.086 84.0079C120.856 96.9633 109.198 96.2047 102.047 94.4875C94.8969 92.7703 91.2188 88.9543 91.2188 88.9543C91.2188 88.9543 85.0486 91.8584 80.0599 86.2895C75.0994 80.8809 77.0209 73.7653 80.6835 71.7984C84.1842 69.86 88.9044 72.0048 88.9044 72.0048L84.8313 65.9441C84.6411 65.8123 95.7703 31.2893 113.238 49.8703Z" fill="#FCA397"/>
<path d="M115.228 78.2836C115.552 78.2266 115.847 78.0092 115.953 77.66C116.917 72.6966 113.098 68.079 112.908 67.9472C112.689 67.655 112.175 67.5802 111.717 67.8261C111.421 68.0434 111.344 68.5529 111.59 69.0054C111.59 69.0054 115.163 73.1706 114.22 77.3038C114.143 77.8133 114.361 78.1055 114.875 78.1803C115.066 78.3121 115.065 78.3121 115.228 78.2836Z" fill="black"/>
<path d="M88.9296 82.5794C89.0916 82.5509 89.2536 82.5224 89.3874 82.3335C89.655 81.9558 89.5703 81.4748 89.3519 81.1826L82.6584 75.4178C82.278 75.1541 81.7919 75.2396 81.4961 75.457C81.2285 75.8347 81.3131 76.3157 81.5316 76.6079L88.2251 82.3727C88.4153 82.5046 88.7675 82.6079 88.9296 82.5794Z" fill="black"/>
<path d="M82.2146 81.4485L86.3705 80.3866C86.8566 80.301 87.0959 79.763 87.0395 79.4423C86.9549 78.9613 86.4124 78.7262 86.0884 78.7832L81.9324 79.8451C81.4464 79.9306 81.207 80.4687 81.2634 80.7893C81.5101 81.2418 81.8905 81.5055 82.2146 81.4485Z" fill="black"/>
<path d="M109.044 85.8163C111.15 85.4457 112.812 83.5002 112.812 83.5002C112.946 83.3113 113.052 82.9621 112.995 82.6415C112.939 82.3208 112.749 82.1889 112.396 82.0856L103.351 80.0407C102.999 79.9374 102.703 80.1547 102.569 80.3436C102.435 80.5324 102.33 80.8816 102.386 81.2023C102.414 81.3626 103.789 84.4268 106.825 85.5455C107.558 85.9125 108.396 85.9303 109.044 85.8163ZM110.459 83.4183C109.734 84.0418 108.494 84.5906 107.247 84.1488C106.162 83.6785 105.345 82.8305 104.746 82.2747L110.459 83.4183Z" fill="black"/>
<path d="M99.5732 63.3499C99.8972 63.2929 100.031 63.104 100.165 62.9152C100.989 60.9519 103.694 61.1371 103.722 61.2975C104.236 61.3723 104.504 60.9946 104.609 60.6454C104.687 60.1359 104.306 59.8722 103.954 59.7689C103.792 59.7974 99.8681 59.3307 98.5938 62.5304C98.4883 62.8796 98.5729 63.3606 99.1154 63.5958C99.2492 63.4069 99.4112 63.3784 99.5732 63.3499Z" fill="black"/>
<path d="M116.549 59.206C116.711 59.1775 117.035 59.1204 117.007 58.9601C117.275 58.5824 117.19 58.1014 116.81 57.8377C116.81 57.8377 114.717 56.3876 112.773 56.7297C111.801 56.9008 111.075 57.5243 110.435 58.6289C110.167 59.0066 110.414 59.4591 110.794 59.7228C111.175 59.9864 111.632 59.7406 111.9 59.3629C112.301 58.7963 112.569 58.4186 113.055 58.3331C114.351 58.105 115.873 59.1597 115.873 59.1597C116.197 59.1026 116.387 59.2345 116.549 59.206Z" fill="black"/>
<path d="M116.567 68.79C117.053 68.7045 117.292 68.1664 117.236 67.8458L116.235 64.0547L117.411 62.1947C117.678 61.817 117.594 61.336 117.213 61.0723C116.833 60.8087 116.347 60.8942 116.079 61.2719L114.607 63.3492C114.474 63.5381 114.502 63.6984 114.558 64.0191L115.616 68.1309C115.701 68.6119 116.081 68.8755 116.567 68.79Z" fill="black"/>
<path d="M102.631 71.2397C103.117 71.1542 103.385 70.7765 103.3 70.2955L102.489 66.6362L104.257 64.3415C104.525 63.9638 104.44 63.4828 104.222 63.1906C103.841 62.927 103.355 63.0125 103.059 63.2299L100.996 65.7419C100.862 65.9307 100.756 66.2799 100.785 66.4403L101.68 70.5806C101.765 71.0616 102.145 71.3252 102.631 71.2397Z" fill="black"/>
<path d="M73.7863 52.5176C73.7863 52.5176 72.2375 25.6805 54.3531 31.3071C35.3628 37.2937 58.3057 65.1599 70.5551 61.682C75.9507 60.0713 73.7863 52.5176 73.7863 52.5176Z" fill="#E56445"/>
<path d="M116.02 108.393C116.668 108.279 116.992 108.222 116.992 108.222C117.478 108.137 117.745 107.759 117.661 107.278C117.576 106.797 117.196 106.533 116.709 106.619C116.547 106.647 105.453 109.096 95.4493 105.401C95.097 105.298 94.611 105.383 94.3716 105.921C94.266 106.27 94.3507 106.751 94.8931 106.987C103.622 110.079 112.941 108.935 116.02 108.393Z" fill="#F7734F"/>
<path d="M44.7085 151.192C60.6877 162.266 81.1105 167.268 101.848 163.618C104.116 163.219 106.356 162.66 108.596 162.1C105.784 154.661 103.395 149.626 103.395 149.626L75.8411 105.049C75.8411 105.049 56.8081 108.894 47.5567 130.359C45.536 135.012 44.5092 142.466 44.7085 151.192Z" fill="#7772D3"/>
<path d="M86.0156 164.755C91.2073 164.834 96.5046 164.563 101.851 163.622C104.119 163.223 106.359 162.663 108.599 162.104C112.107 161.156 115.559 159.887 118.982 158.459C107.183 131.276 92.7143 101.258 92.7143 101.258L75.8439 105.053L86.0156 164.755Z" fill="#7772D3"/>
<path d="M66.1516 62.2876C66.6377 62.2021 66.9053 61.8244 66.8206 61.3434C65.9515 49.7598 72.9946 44.2226 72.9946 44.2226C73.2904 44.0052 73.3678 43.4957 73.1211 43.0432C72.9027 42.751 72.3884 42.6762 71.9306 42.9221C71.6348 43.1394 64.1339 48.9225 65.0103 61.4966C65.2569 61.9491 65.6656 62.3731 66.1516 62.2876C65.9896 62.3161 66.1516 62.2876 66.1516 62.2876Z" fill="white"/>
<path d="M100.231 42.4034C100.231 42.4034 103.605 45.4462 104.917 51.001C106.229 56.5558 106.229 56.5558 106.229 56.5558L83.6257 67.6412L81.1364 56.3427L100.231 42.4034Z" fill="#E56445"/>
<path d="M102.855 45.9132C102.855 45.9132 105.271 47.3063 106.667 49.5403C108.062 51.7743 109.881 56.4134 109.881 56.4134L116.544 54.4143L113.646 42.6919L103.424 38.7051L97.8662 40.3443L100.031 47.8979L102.855 45.9132Z" fill="#E56445"/>
</svg>
