<svg width="17" height="17" viewBox="0 0 17 17" fill="none" xmlns="http://www.w3.org/2000/svg">
<path fill-rule="evenodd" clip-rule="evenodd" d="M8.32298 0H7.67702C6.44837 0 5.49135 0 4.72409 0.0625116C3.94493 0.126512 3.31237 0.257488 2.74307 0.547721C1.79783 1.02933 1.02933 1.79783 0.547721 2.74307C0.257488 3.31237 0.126512 3.94493 0.0625116 4.72409C0 5.49135 0 6.44837 0 7.67702V8.32298C0 9.55163 0 10.5087 0.0625116 11.2759C0.126512 12.0551 0.257488 12.6876 0.547721 13.2569C1.02933 14.2022 1.79783 14.9707 2.74307 15.4523C3.31237 15.7425 3.94493 15.8735 4.72409 15.9375C5.49135 16 6.44837 16 7.67702 16H9.75777C9.52892 15.6581 9.34568 15.2831 9.21675 14.8837H7.70233C6.44242 14.8837 5.53153 14.883 4.81488 14.8249C4.10567 14.7669 3.63535 14.6545 3.24986 14.458C2.51446 14.0834 1.91657 13.4855 1.54195 12.7501C1.34549 12.3647 1.23312 11.8951 1.17581 11.1851C1.11628 10.4685 1.11628 9.55684 1.11628 8.29767V7.70233C1.11628 6.44242 1.11702 5.53153 1.17507 4.81488C1.23312 4.10567 1.34549 3.63535 1.54195 3.24986C1.91657 2.51446 2.51446 1.91657 3.24986 1.54195C3.63535 1.34549 4.10493 1.23312 4.81488 1.17581C5.53153 1.11628 6.44242 1.11628 7.70233 1.11628H8.29767C9.55684 1.11628 10.4685 1.11702 11.1851 1.17507C11.8943 1.23312 12.3647 1.34549 12.7501 1.54195C13.4855 1.91657 14.0834 2.51446 14.458 3.24986C14.6545 3.63535 14.7669 4.10493 14.8242 4.81488C14.8837 5.53152 14.8837 6.44239 14.8837 7.70227V7.70233V9.21675C15.2831 9.34568 15.6581 9.52892 16 9.75777V7.67702C16 6.44837 16 5.49135 15.9375 4.72409C15.8735 3.94493 15.7425 3.31237 15.4523 2.74307C14.9707 1.79783 14.2022 1.02933 13.2569 0.547721C12.6876 0.257488 12.0551 0.126512 11.2759 0.0625116C10.5087 0 9.55163 0 8.32298 0ZM3.88441 3.88441C3.98908 3.77973 4.13104 3.72093 4.27907 3.72093H10.2326C10.3806 3.72093 10.5226 3.77973 10.6272 3.88441C10.7319 3.98908 10.7907 4.13104 10.7907 4.27907C10.7907 4.4271 10.7319 4.56906 10.6272 4.67373C10.5226 4.77841 10.3806 4.83721 10.2326 4.83721H4.27907C4.13104 4.83721 3.98908 4.77841 3.88441 4.67373C3.77973 4.56906 3.72093 4.4271 3.72093 4.27907C3.72093 4.13104 3.77973 3.98908 3.88441 3.88441ZM3.88441 6.86115C3.77973 6.96582 3.72093 7.10779 3.72093 7.25581C3.72093 7.40384 3.77973 7.54581 3.88441 7.65048C3.98908 7.75515 4.13104 7.81395 4.27907 7.81395H8.74419C8.89221 7.81395 9.03418 7.75515 9.13885 7.65048C9.24352 7.54581 9.30233 7.40384 9.30233 7.25581C9.30233 7.10779 9.24352 6.96582 9.13885 6.86115C9.03418 6.75648 8.89221 6.69767 8.74419 6.69767H4.27907C4.13104 6.69767 3.98908 6.75648 3.88441 6.86115ZM3.88441 9.83789C3.98908 9.73322 4.13104 9.67442 4.27907 9.67442H5.76744C5.91547 9.67442 6.05743 9.73322 6.16211 9.83789C6.26678 9.94257 6.32558 10.0845 6.32558 10.2326C6.32558 10.3806 6.26678 10.5226 6.16211 10.6272C6.05743 10.7319 5.91547 10.7907 5.76744 10.7907H4.27907C4.13104 10.7907 3.98908 10.7319 3.88441 10.6272C3.77973 10.5226 3.72093 10.3806 3.72093 10.2326C3.72093 10.0845 3.77973 9.94257 3.88441 9.83789Z" fill="#5455A9"/>
<path d="M17 12.5C17 11.3065 16.5259 10.1619 15.682 9.31802C14.8381 8.47411 13.6935 8 12.5 8C11.3065 8 10.1619 8.47411 9.31802 9.31802C8.47411 10.1619 8 11.3065 8 12.5C8 13.6935 8.47411 14.8381 9.31802 15.682C10.1619 16.5259 11.3065 17 12.5 17C13.6935 17 14.8381 16.5259 15.682 15.682C16.5259 14.8381 17 13.6935 17 12.5ZM12.5 14.38C12.6658 14.38 12.8247 14.4458 12.9419 14.5631C13.0592 14.6803 13.125 14.8392 13.125 15.005C13.125 15.1708 13.0592 15.3297 12.9419 15.4469C12.8247 15.5642 12.6658 15.63 12.5 15.63C12.3342 15.63 12.1753 15.5642 12.0581 15.4469C11.9408 15.3297 11.875 15.1708 11.875 15.005C11.875 14.8392 11.9408 14.6803 12.0581 14.5631C12.1753 14.4458 12.3342 14.38 12.5 14.38ZM12.5 9.503C13.531 9.503 14.353 10.349 14.353 11.453C14.353 12.039 14.139 12.361 13.626 12.772L13.349 12.986C13.103 13.18 13.02 13.286 13.003 13.434L12.992 13.59C12.9697 13.7129 12.9023 13.8231 12.8028 13.8988C12.7034 13.9745 12.5793 14.0102 12.4548 13.9989C12.3304 13.9876 12.2147 13.9301 12.1305 13.8378C12.0463 13.7455 11.9998 13.6249 12 13.5C12 12.93 12.21 12.616 12.716 12.212L12.994 11.997C13.282 11.767 13.354 11.655 13.354 11.453C13.354 10.895 12.972 10.503 12.5 10.503C12.006 10.503 11.641 10.869 11.647 11.448C11.6477 11.5137 11.6354 11.5788 11.6109 11.6397C11.5863 11.7006 11.5501 11.7561 11.5041 11.803C11.4581 11.8499 11.4034 11.8873 11.343 11.913C11.2825 11.9388 11.2177 11.9523 11.152 11.953C11.0863 11.9537 11.0212 11.9414 10.9603 11.9169C10.8994 11.8923 10.8439 11.8561 10.797 11.8101C10.7501 11.7641 10.7127 11.7094 10.687 11.649C10.6612 11.5885 10.6477 11.5237 10.647 11.458C10.636 10.321 11.452 9.503 12.5 9.503Z" fill="#5455A9"/>
</svg>
