<svg width="5" height="10" viewBox="0 0 5 10" fill="none" xmlns="http://www.w3.org/2000/svg">
<path d="M3.08459 3.47889L3.0856 3.47881C3.09773 3.47783 3.10815 3.47736 3.11703 3.47722C3.11739 3.47947 3.11775 3.48183 3.1181 3.4843C3.12768 3.55087 3.12559 3.64524 3.11086 3.76432C3.09903 3.85993 3.08234 3.94901 3.06562 4.03832C3.06284 4.05311 3.06007 4.06791 3.05732 4.08275C2.92354 4.58468 2.76006 5.14462 2.59726 5.70224C2.48898 6.07309 2.38101 6.44292 2.28227 6.79398C2.16013 7.22822 2.05271 7.63225 1.98377 7.95398C1.94947 8.11405 1.92226 8.26481 1.90859 8.39434C1.89824 8.49235 1.88351 8.667 1.93609 8.82664C1.97211 8.9404 2.03826 9.04906 2.13808 9.13305L2.13674 9.13387C2.04827 9.18823 1.8941 9.27606 1.71938 9.35312C1.53814 9.43306 1.36859 9.48616 1.24058 9.49774C1.1971 9.50168 1.17002 9.50026 1.15438 9.49798C1.14131 9.46092 1.11535 9.3498 1.15143 9.09736C1.35861 7.97173 1.62563 7.03674 1.84077 6.2834C1.93847 5.94129 2.02547 5.63665 2.09131 5.36863C2.14181 5.16304 2.1827 4.96549 2.19729 4.79389C2.20935 4.65209 2.21832 4.3993 2.07539 4.1867C2.03317 4.12391 1.98106 4.06964 1.92095 4.02576C2.11112 3.91118 2.29949 3.80437 2.47504 3.71486C2.78996 3.55428 2.99522 3.48593 3.08459 3.47889ZM3.16035 3.48063C3.16029 3.48069 3.15925 3.48047 3.15738 3.47978C3.15947 3.48023 3.1604 3.48057 3.16035 3.48063ZM3.10709 3.4366C3.10672 3.43591 3.10656 3.43553 3.10657 3.43552L3.10709 3.4366ZM1.13626 9.49306C1.13648 9.49286 1.13858 9.49346 1.14188 9.49545C1.13769 9.49426 1.13604 9.49326 1.13626 9.49306ZM2.91996 0.639379C3.01166 0.553459 3.1426 0.5 3.28541 0.5C3.42823 0.5 3.55917 0.553459 3.65087 0.639379C3.74147 0.724266 3.78571 0.832173 3.78571 0.937244C3.78571 1.04232 3.74147 1.15022 3.65087 1.23511C3.55917 1.32103 3.42823 1.37449 3.28541 1.37449C3.1426 1.37449 3.01166 1.32103 2.91996 1.23511C2.82936 1.15022 2.78511 1.04232 2.78511 0.937244C2.78511 0.832173 2.82936 0.724266 2.91996 0.639379Z" fill="#A2A3FD" stroke="#A2A3FD"/>
</svg>
