<svg width="26" height="26" viewBox="0 0 26 26" fill="none" xmlns="http://www.w3.org/2000/svg">
<path fill-rule="evenodd" clip-rule="evenodd" d="M12.677 5H13.323C14.5516 5 15.5087 5 16.2759 5.06251C17.0551 5.12651 17.6876 5.25749 18.2569 5.54772C19.2022 6.02933 19.9707 6.79783 20.4523 7.74307C20.7425 8.31237 20.8735 8.94493 20.9375 9.72409C21 10.4913 21 11.4484 21 12.677V15.3777C21 15.6121 21 15.752 20.9926 15.8874C20.9307 17.0303 20.4804 18.1178 19.7163 18.9699C19.6247 19.0711 19.5265 19.17 19.3606 19.336L19.3479 19.3479L19.336 19.3606C19.17 19.5265 19.0711 19.6247 18.9699 19.7163C18.118 20.4803 17.0308 20.9305 15.8882 20.9926C15.752 21 15.6128 21 15.3777 21H12.677C11.4484 21 10.4913 21 9.72409 20.9375C8.94493 20.8735 8.31237 20.7425 7.74307 20.4523C6.79783 19.9707 6.02933 19.2022 5.54772 18.2569C5.25749 17.6876 5.12651 17.0551 5.06251 16.2759C5 15.5087 5 14.5516 5 13.323V12.677C5 11.4484 5 10.4913 5.06251 9.72409C5.12651 8.94493 5.25749 8.31237 5.54772 7.74307C6.02933 6.79783 6.79783 6.02933 7.74307 5.54772C8.31237 5.25749 8.94493 5.12651 9.72409 5.06251C10.4913 5 11.4484 5 12.677 5ZM9.81488 6.17581C9.10493 6.23312 8.63535 6.34549 8.24986 6.54195C7.51446 6.91657 6.91657 7.51446 6.54195 8.24986C6.34549 8.63535 6.23312 9.10567 6.17507 9.81488C6.11702 10.5315 6.11628 11.4424 6.11628 12.7023V13.2977C6.11628 14.5568 6.11628 15.4685 6.17581 16.1851C6.23312 16.8951 6.34549 17.3647 6.54195 17.7501C6.91657 18.4855 7.51446 19.0834 8.24986 19.458C8.63535 19.6545 9.10567 19.7669 9.81488 19.8249C10.5315 19.883 11.4424 19.8837 12.7023 19.8837H15.4186V18.3358C15.4186 17.9377 15.4186 17.6065 15.4409 17.3349C15.4633 17.0521 15.5139 16.7872 15.6419 16.5364C15.8379 16.1514 16.1508 15.8382 16.5356 15.6419C16.7872 15.5139 17.0521 15.4633 17.3349 15.4409C17.6065 15.4186 17.9377 15.4186 18.3358 15.4186H19.8837V12.7023C19.8837 11.4424 19.8837 10.5315 19.8242 9.81488C19.7669 9.10493 19.6545 8.63535 19.458 8.24986C19.0834 7.51446 18.4855 6.91657 17.7501 6.54195C17.3647 6.34549 16.8943 6.23312 16.1851 6.17507C15.4685 6.11702 14.5568 6.11628 13.2977 6.11628H12.7023C11.4424 6.11628 10.5315 6.11628 9.81488 6.17581ZM18.2242 18.885C17.7433 19.3166 17.1629 19.6221 16.5349 19.7743V18.3581C16.5349 17.9325 16.5349 17.646 16.5535 17.4257C16.5706 17.2121 16.6019 17.1101 16.6361 17.0432C16.7253 16.8678 16.8678 16.7253 17.0432 16.6361C17.1101 16.6019 17.2121 16.5706 17.4264 16.5535C17.646 16.5356 17.9325 16.5349 18.3581 16.5349H19.7743C19.6221 17.1629 19.3166 17.7433 18.885 18.2242C18.8166 18.3008 18.7407 18.3775 18.5591 18.5591C18.3775 18.7407 18.3008 18.8166 18.2242 18.885ZM9.27907 8.72093C9.13104 8.72093 8.98908 8.77973 8.88441 8.88441C8.77973 8.98908 8.72093 9.13104 8.72093 9.27907C8.72093 9.4271 8.77973 9.56906 8.88441 9.67373C8.98908 9.77841 9.13104 9.83721 9.27907 9.83721H15.2326C15.3806 9.83721 15.5226 9.77841 15.6272 9.67373C15.7319 9.56906 15.7907 9.4271 15.7907 9.27907C15.7907 9.13104 15.7319 8.98908 15.6272 8.88441C15.5226 8.77973 15.3806 8.72093 15.2326 8.72093H9.27907ZM8.72093 12.2558C8.72093 12.1078 8.77973 11.9658 8.88441 11.8611C8.98908 11.7565 9.13104 11.6977 9.27907 11.6977H13.7442C13.8922 11.6977 14.0342 11.7565 14.1389 11.8611C14.2435 11.9658 14.3023 12.1078 14.3023 12.2558C14.3023 12.4038 14.2435 12.5458 14.1389 12.6505C14.0342 12.7551 13.8922 12.814 13.7442 12.814H9.27907C9.13104 12.814 8.98908 12.7551 8.88441 12.6505C8.77973 12.5458 8.72093 12.4038 8.72093 12.2558ZM9.27907 14.6744C9.13104 14.6744 8.98908 14.7332 8.88441 14.8379C8.77973 14.9426 8.72093 15.0845 8.72093 15.2326C8.72093 15.3806 8.77973 15.5226 8.88441 15.6272C8.98908 15.7319 9.13104 15.7907 9.27907 15.7907H10.7674C10.9155 15.7907 11.0574 15.7319 11.1621 15.6272C11.2668 15.5226 11.3256 15.3806 11.3256 15.2326C11.3256 15.0845 11.2668 14.9426 11.1621 14.8379C11.0574 14.7332 10.9155 14.6744 10.7674 14.6744H9.27907Z" fill="#5455A9"/>
</svg>
