<svg width="16" height="16" viewBox="0 0 16 16" fill="none" xmlns="http://www.w3.org/2000/svg">
<path fill-rule="evenodd" clip-rule="evenodd" d="M7.67702 0H8.32298C9.55163 0 10.5087 -5.54462e-09 11.2759 0.0625116C12.0551 0.126512 12.6876 0.257488 13.2569 0.547721C14.2022 1.02933 14.9707 1.79783 15.4523 2.74307C15.7425 3.31237 15.8735 3.94493 15.9375 4.72409C16 5.49135 16 6.44837 16 7.67702V10.3777C16 10.6121 16 10.752 15.9926 10.8874C15.9307 12.0303 15.4804 13.1178 14.7163 13.9699C14.6247 14.0711 14.5265 14.17 14.3606 14.336L14.3479 14.3479L14.336 14.3606C14.17 14.5265 14.0711 14.6247 13.9699 14.7163C13.118 15.4803 12.0308 15.9305 10.8882 15.9926C10.752 16 10.6128 16 10.3777 16H7.67702C6.44837 16 5.49135 16 4.72409 15.9375C3.94493 15.8735 3.31237 15.7425 2.74307 15.4523C1.79783 14.9707 1.02933 14.2022 0.547721 13.2569C0.257488 12.6876 0.126512 12.0551 0.0625116 11.2759C-5.54462e-09 10.5087 0 9.55163 0 8.32298V7.67702C0 6.44837 -5.54462e-09 5.49135 0.0625116 4.72409C0.126512 3.94493 0.257488 3.31237 0.547721 2.74307C1.02933 1.79783 1.79783 1.02933 2.74307 0.547721C3.31237 0.257488 3.94493 0.126512 4.72409 0.0625116C5.49135 -5.54462e-09 6.44837 0 7.67702 0ZM4.81488 1.17581C4.10493 1.23312 3.63535 1.34549 3.24986 1.54195C2.51446 1.91657 1.91657 2.51446 1.54195 3.24986C1.34549 3.63535 1.23312 4.10567 1.17507 4.81488C1.11702 5.53153 1.11628 6.44242 1.11628 7.70233V8.29767C1.11628 9.55684 1.11628 10.4685 1.17581 11.1851C1.23312 11.8951 1.34549 12.3647 1.54195 12.7501C1.91657 13.4855 2.51446 14.0834 3.24986 14.458C3.63535 14.6545 4.10567 14.7669 4.81488 14.8249C5.53153 14.883 6.44242 14.8837 7.70233 14.8837H10.4186V13.3358C10.4186 12.9377 10.4186 12.6065 10.4409 12.3349C10.4633 12.0521 10.5139 11.7872 10.6419 11.5364C10.8379 11.1514 11.1508 10.8382 11.5356 10.6419C11.7872 10.5139 12.0521 10.4633 12.3349 10.4409C12.6065 10.4186 12.9377 10.4186 13.3358 10.4186H14.8837V7.70233C14.8837 6.44242 14.8837 5.53153 14.8242 4.81488C14.7669 4.10493 14.6545 3.63535 14.458 3.24986C14.0834 2.51446 13.4855 1.91657 12.7501 1.54195C12.3647 1.34549 11.8943 1.23312 11.1851 1.17507C10.4685 1.11702 9.55684 1.11628 8.29767 1.11628H7.70233C6.44242 1.11628 5.53153 1.11628 4.81488 1.17581ZM13.2242 13.885C12.7433 14.3166 12.1629 14.6221 11.5349 14.7743V13.3581C11.5349 12.9325 11.5349 12.646 11.5535 12.4257C11.5706 12.2121 11.6019 12.1101 11.6361 12.0432C11.7253 11.8678 11.8678 11.7253 12.0432 11.6361C12.1101 11.6019 12.2121 11.5706 12.4264 11.5535C12.646 11.5356 12.9325 11.5349 13.3581 11.5349H14.7743C14.6221 12.1629 14.3166 12.7433 13.885 13.2242C13.8166 13.3008 13.7407 13.3775 13.5591 13.5591C13.3775 13.7407 13.3008 13.8166 13.2242 13.885ZM4.27907 3.72093C4.13104 3.72093 3.98908 3.77973 3.88441 3.88441C3.77973 3.98908 3.72093 4.13104 3.72093 4.27907C3.72093 4.4271 3.77973 4.56906 3.88441 4.67373C3.98908 4.77841 4.13104 4.83721 4.27907 4.83721H10.2326C10.3806 4.83721 10.5226 4.77841 10.6272 4.67373C10.7319 4.56906 10.7907 4.4271 10.7907 4.27907C10.7907 4.13104 10.7319 3.98908 10.6272 3.88441C10.5226 3.77973 10.3806 3.72093 10.2326 3.72093H4.27907ZM3.72093 7.25581C3.72093 7.10779 3.77973 6.96582 3.88441 6.86115C3.98908 6.75648 4.13104 6.69767 4.27907 6.69767H8.74419C8.89221 6.69767 9.03418 6.75648 9.13885 6.86115C9.24352 6.96582 9.30233 7.10779 9.30233 7.25581C9.30233 7.40384 9.24352 7.54581 9.13885 7.65048C9.03418 7.75515 8.89221 7.81395 8.74419 7.81395H4.27907C4.13104 7.81395 3.98908 7.75515 3.88441 7.65048C3.77973 7.54581 3.72093 7.40384 3.72093 7.25581ZM4.27907 9.67442C4.13104 9.67442 3.98908 9.73322 3.88441 9.83789C3.77973 9.94257 3.72093 10.0845 3.72093 10.2326C3.72093 10.3806 3.77973 10.5226 3.88441 10.6272C3.98908 10.7319 4.13104 10.7907 4.27907 10.7907H5.76744C5.91547 10.7907 6.05743 10.7319 6.16211 10.6272C6.26678 10.5226 6.32558 10.3806 6.32558 10.2326C6.32558 10.0845 6.26678 9.94257 6.16211 9.83789C6.05743 9.73322 5.91547 9.67442 5.76744 9.67442H4.27907Z" fill="#C0C1FF"/>
</svg>
