<svg width="108" height="100" viewBox="0 0 108 100" fill="none" xmlns="http://www.w3.org/2000/svg">
<g filter="url(#filter0_d_52319_2817)">
<path d="M52 40.5211C55.7406 40.5211 56.1836 40.5375 57.6547 40.6031C59.0219 40.6633 59.7602 40.893 60.2523 41.0844C60.9031 41.3359 61.3734 41.6422 61.8602 42.1289C62.3523 42.6211 62.6531 43.0859 62.9047 43.7367C63.0961 44.2289 63.3258 44.9727 63.3859 46.3344C63.4516 47.8109 63.468 48.2539 63.468 51.9891C63.468 55.7297 63.4516 56.1727 63.3859 57.6438C63.3258 59.0109 63.0961 59.7492 62.9047 60.2414C62.6531 60.8922 62.3469 61.3625 61.8602 61.8492C61.368 62.3414 60.9031 62.6422 60.2523 62.8938C59.7602 63.0852 59.0164 63.3148 57.6547 63.375C56.1781 63.4406 55.7352 63.457 52 63.457C48.2594 63.457 47.8164 63.4406 46.3453 63.375C44.9781 63.3148 44.2398 63.0852 43.7477 62.8938C43.0969 62.6422 42.6266 62.3359 42.1398 61.8492C41.6477 61.357 41.3469 60.8922 41.0953 60.2414C40.9039 59.7492 40.6742 59.0055 40.6141 57.6438C40.5484 56.1672 40.532 55.7242 40.532 51.9891C40.532 48.2484 40.5484 47.8055 40.6141 46.3344C40.6742 44.9672 40.9039 44.2289 41.0953 43.7367C41.3469 43.0859 41.6531 42.6156 42.1398 42.1289C42.632 41.6367 43.0969 41.3359 43.7477 41.0844C44.2398 40.893 44.9836 40.6633 46.3453 40.6031C47.8164 40.5375 48.2594 40.5211 52 40.5211ZM52 38C48.1992 38 47.7234 38.0164 46.2305 38.082C44.743 38.1477 43.7203 38.3883 42.8344 38.7328C41.9102 39.0938 41.1281 39.5695 40.3516 40.3516C39.5695 41.1281 39.0938 41.9102 38.7328 42.8289C38.3883 43.7203 38.1477 44.7375 38.082 46.225C38.0164 47.7234 38 48.1992 38 52C38 55.8008 38.0164 56.2766 38.082 57.7695C38.1477 59.257 38.3883 60.2797 38.7328 61.1656C39.0938 62.0898 39.5695 62.8719 40.3516 63.6484C41.1281 64.425 41.9102 64.9063 42.8289 65.2617C43.7203 65.6063 44.7375 65.8469 46.225 65.9125C47.718 65.9781 48.1938 65.9945 51.9945 65.9945C55.7953 65.9945 56.2711 65.9781 57.7641 65.9125C59.2516 65.8469 60.2742 65.6063 61.1602 65.2617C62.0789 64.9063 62.8609 64.425 63.6375 63.6484C64.4141 62.8719 64.8953 62.0898 65.2508 61.1711C65.5953 60.2797 65.8359 59.2625 65.9016 57.775C65.9672 56.282 65.9836 55.8063 65.9836 52.0055C65.9836 48.2047 65.9672 47.7289 65.9016 46.2359C65.8359 44.7484 65.5953 43.7258 65.2508 42.8398C64.9063 41.9102 64.4305 41.1281 63.6484 40.3516C62.8719 39.575 62.0898 39.0938 61.1711 38.7383C60.2797 38.3937 59.2625 38.1531 57.775 38.0875C56.2766 38.0164 55.8008 38 52 38Z" fill="white"/>
</g>
<path d="M52.0039 44.8125C48.0336 44.8125 44.8125 48.0336 44.8125 52.0039C44.8125 55.9742 48.0336 59.1953 52.0039 59.1953C55.9742 59.1953 59.1953 55.9742 59.1953 52.0039C59.1953 48.0336 55.9742 44.8125 52.0039 44.8125ZM52.0039 56.6687C49.4281 56.6687 47.3391 54.5797 47.3391 52.0039C47.3391 49.4281 49.4281 47.3391 52.0039 47.3391C54.5797 47.3391 56.6687 49.4281 56.6687 52.0039C56.6687 54.5797 54.5797 56.6687 52.0039 56.6687Z" fill="white"/>
<path d="M61.1547 44.5227C61.1547 45.4523 60.4 46.2016 59.4758 46.2016C58.5461 46.2016 57.7969 45.4469 57.7969 44.5227C57.7969 43.593 58.5516 42.8438 59.4758 42.8438C60.4 42.8438 61.1547 43.5984 61.1547 44.5227Z" fill="white"/>
<defs>
<filter id="filter0_d_52319_2817" x="0" y="0" width="107.984" height="107.992" filterUnits="userSpaceOnUse" color-interpolation-filters="sRGB">
<feFlood flood-opacity="0" result="BackgroundImageFix"/>
<feColorMatrix in="SourceAlpha" type="matrix" values="0 0 0 0 0 0 0 0 0 0 0 0 0 0 0 0 0 0 127 0" result="hardAlpha"/>
<feOffset dx="2" dy="2"/>
<feGaussianBlur stdDeviation="20"/>
<feComposite in2="hardAlpha" operator="out"/>
<feColorMatrix type="matrix" values="0 0 0 0 0 0 0 0 0 0 0 0 0 0 0 0 0 0 0.12 0"/>
<feBlend mode="normal" in2="BackgroundImageFix" result="effect1_dropShadow_52319_2817"/>
<feBlend mode="normal" in="SourceGraphic" in2="effect1_dropShadow_52319_2817" result="shape"/>
</filter>
</defs>
</svg>
