<svg width="205" height="40" viewBox="0 0 205 40" fill="none" xmlns="http://www.w3.org/2000/svg">
<path d="M0 37.1021V6.69834H7.02223V9.02613H2.65706V34.7743H7.02223V37.1021H0Z" fill="white"/>
<path d="M12.3393 6.69834V13.3492H9.87205V6.69834H12.3393Z" fill="white"/>
<path d="M16.5977 32.1615V13.9192H19.3022V16.7696H19.5395C19.9191 15.7957 20.5319 15.0396 21.3781 14.5012C22.2242 13.9549 23.2404 13.6817 24.4266 13.6817C25.6286 13.6817 26.6289 13.9549 27.4276 14.5012C28.2342 15.0396 28.8629 15.7957 29.3137 16.7696H29.5035C29.97 15.8274 30.6699 15.0792 31.603 14.5249C32.5362 13.9628 33.6551 13.6817 34.9599 13.6817C36.589 13.6817 37.9214 14.1924 38.9574 15.2138C39.9933 16.2272 40.5113 17.8068 40.5113 19.9525V32.1615H37.7119V19.9525C37.7119 18.6065 37.3442 17.6445 36.6087 17.0665C35.8733 16.4885 35.0074 16.1995 34.011 16.1995C32.7299 16.1995 31.7375 16.5875 31.0336 17.3634C30.3298 18.1314 29.9779 19.1053 29.9779 20.285V32.1615H27.1311V19.6675C27.1311 18.6302 26.795 17.7949 26.1228 17.1615C25.4507 16.5202 24.5847 16.1995 23.5251 16.1995C22.7975 16.1995 22.1175 16.3935 21.4848 16.7815C20.8601 17.1694 20.354 17.7078 19.9665 18.3967C19.5869 19.0776 19.3971 19.8654 19.3971 20.7601V32.1615H16.5977Z" fill="white"/>
<path d="M44.2063 32.1615L50.9438 13.9192H53.7907L60.5282 32.1615H57.4916L52.4621 17.6247H52.2723L47.2429 32.1615H44.2063Z" fill="white"/>
<path d="M67.0226 21.1876V32.1615H64.2232V13.9192H66.9277V16.7696H67.1649C67.592 15.8432 68.2404 15.099 69.1103 14.5368C69.9802 13.9667 71.1031 13.6817 72.4791 13.6817C73.7127 13.6817 74.7921 13.9351 75.7174 14.4418C76.6426 14.9406 77.3622 15.7007 77.8762 16.7221C78.3902 17.7355 78.6472 19.0182 78.6472 20.5701V32.1615H75.8478V20.7601C75.8478 19.327 75.4762 18.2106 74.7328 17.4109C73.9895 16.6033 72.9694 16.1995 71.6725 16.1995C70.7789 16.1995 69.9802 16.3935 69.2764 16.7815C68.5805 17.1694 68.0309 17.7355 67.6275 18.4798C67.2242 19.2241 67.0226 20.1267 67.0226 21.1876Z" fill="white"/>
<path d="M91.2594 14.4893V17.1021H83.1459V14.4893H91.2594ZM88.7921 14.4893V32.1615H85.5182V14.4893H88.7921ZM91.2594 29.5487V32.1615H83.1459V29.5487H91.2594Z" fill="white"/>
<path d="M103.658 13.9192V16.2945H94.216V13.9192H103.658ZM96.9679 9.54869H99.7673V26.9359C99.7673 27.7276 99.882 28.3215 100.111 28.7173C100.349 29.1053 100.649 29.3666 101.013 29.5012C101.384 29.6279 101.776 29.6912 102.187 29.6912C102.496 29.6912 102.749 29.6754 102.946 29.6437C103.144 29.6041 103.302 29.5724 103.421 29.5487L103.99 32.0665C103.8 32.1378 103.535 32.209 103.195 32.2803C102.855 32.3595 102.424 32.399 101.902 32.399C101.112 32.399 100.337 32.2288 99.5775 31.8884C98.8263 31.5479 98.2016 31.0293 97.7034 30.3325C97.2131 29.6358 96.9679 28.7569 96.9679 27.696V9.54869Z" fill="white"/>
<path d="M115.075 32.5416C113.43 32.5416 111.987 32.1496 110.745 31.3658C109.512 30.5819 108.547 29.4854 107.851 28.076C107.163 26.6667 106.819 25.0198 106.819 23.1354C106.819 21.2352 107.163 19.5764 107.851 18.1591C108.547 16.7419 109.512 15.6413 110.745 14.8575C111.987 14.0736 113.43 13.6817 115.075 13.6817C116.72 13.6817 118.159 14.0736 119.393 14.8575C120.634 15.6413 121.599 16.7419 122.287 18.1591C122.983 19.5764 123.331 21.2352 123.331 23.1354C123.331 25.0198 122.983 26.6667 122.287 28.076C121.599 29.4854 120.634 30.5819 119.393 31.3658C118.159 32.1496 116.72 32.5416 115.075 32.5416ZM115.075 30.0238C116.325 30.0238 117.353 29.7031 118.159 29.0618C118.966 28.4204 119.563 27.5772 119.95 26.5321C120.338 25.4869 120.532 24.3547 120.532 23.1354C120.532 21.9161 120.338 20.7799 119.95 19.7268C119.563 18.6738 118.966 17.8226 118.159 17.1734C117.353 16.5241 116.325 16.1995 115.075 16.1995C113.826 16.1995 112.798 16.5241 111.991 17.1734C111.184 17.8226 110.587 18.6738 110.2 19.7268C109.812 20.7799 109.619 21.9161 109.619 23.1354C109.619 24.3547 109.812 25.4869 110.2 26.5321C110.587 27.5772 111.184 28.4204 111.991 29.0618C112.798 29.7031 113.826 30.0238 115.075 30.0238Z" fill="white"/>
<path d="M127.604 32.1615V13.9192H130.309V16.6746H130.498C130.831 15.772 131.432 15.0396 132.301 14.4774C133.171 13.9153 134.152 13.6342 135.243 13.6342C135.449 13.6342 135.706 13.6382 136.014 13.6461C136.323 13.654 136.556 13.6659 136.714 13.6817V16.5321C136.619 16.5083 136.402 16.4727 136.062 16.4252C135.73 16.3698 135.378 16.342 135.006 16.342C134.12 16.342 133.33 16.5281 132.634 16.9002C131.946 17.2645 131.4 17.7712 130.997 18.4204C130.601 19.0618 130.404 19.7941 130.404 20.6176V32.1615H127.604Z" fill="white"/>
<path d="M144.113 0V40H141.741V0H144.113Z" fill="white"/>
<path d="M162.443 24.7031V13.9192H165.242V32.1615H162.443V29.0736H162.253C161.826 30 161.161 30.7878 160.26 31.4371C159.358 32.0784 158.22 32.399 156.844 32.399C155.705 32.399 154.693 32.1496 153.807 31.6508C152.921 31.1441 152.225 30.384 151.719 29.3705C151.213 28.3492 150.96 27.0625 150.96 25.5107V13.9192H153.76V25.3207C153.76 26.6508 154.131 27.7118 154.875 28.5036C155.626 29.2953 156.583 29.6912 157.745 29.6912C158.441 29.6912 159.149 29.5131 159.869 29.1568C160.596 28.8005 161.205 28.2542 161.695 27.5178C162.193 26.7815 162.443 25.8432 162.443 24.7031Z" fill="white"/>
<path d="M170.369 32.1615V13.9192H173.074V16.7696H173.311C173.691 15.7957 174.303 15.0396 175.15 14.5012C175.996 13.9549 177.012 13.6817 178.198 13.6817C179.4 13.6817 180.4 13.9549 181.199 14.5012C182.006 15.0396 182.634 15.7957 183.085 16.7696H183.275C183.742 15.8274 184.441 15.0792 185.375 14.5249C186.308 13.9628 187.427 13.6817 188.731 13.6817C190.36 13.6817 191.693 14.1924 192.729 15.2138C193.765 16.2272 194.283 17.8068 194.283 19.9525V32.1615H191.483V19.9525C191.483 18.6065 191.116 17.6445 190.38 17.0665C189.645 16.4885 188.779 16.1995 187.782 16.1995C186.501 16.1995 185.509 16.5875 184.805 17.3634C184.101 18.1314 183.749 19.1053 183.749 20.285V32.1615H180.903V19.6675C180.903 18.6302 180.567 17.7949 179.894 17.1615C179.222 16.5202 178.356 16.1995 177.297 16.1995C176.569 16.1995 175.889 16.3935 175.256 16.7815C174.632 17.1694 174.126 17.7078 173.738 18.3967C173.358 19.0776 173.169 19.8654 173.169 20.7601V32.1615H170.369Z" fill="white"/>
<path d="M205 6.69834V37.1021H197.978V34.7743H202.343V9.02613H197.978V6.69834H205Z" fill="white"/>
</svg>
