<svg width="228" height="30" viewBox="0 0 228 30" fill="none" xmlns="http://www.w3.org/2000/svg">
<path d="M0.21875 29.2031V0.40625H9.375V2.70312H4.21875V26.8906H9.375V29.2031H0.21875ZM16.48 1.36V10.128H13.28V1.36H16.48ZM20.375 26V10H24.625V12.7812C25.125 11.7917 25.8073 11.0312 26.6719 10.5C27.5365 9.95833 28.5312 9.6875 29.6562 9.6875C30.9896 9.6875 32.125 10.0104 33.0625 10.6562C34 11.3021 34.6875 12.2031 35.125 13.3594C35.6042 12.1719 36.3125 11.2656 37.25 10.6406C38.1979 10.0052 39.3229 9.6875 40.625 9.6875C42.6458 9.6875 44.2292 10.3177 45.375 11.5781C46.5208 12.8281 47.0938 14.5729 47.0938 16.8125V26H42.5781V17.1719C42.5781 15.599 42.3073 14.3958 41.7656 13.5625C41.224 12.7188 40.4531 12.2969 39.4531 12.2969C38.4427 12.2969 37.6042 12.7604 36.9375 13.6875C36.2812 14.6042 35.9531 15.776 35.9531 17.2031V26H31.4844V17.1719C31.4844 15.599 31.2083 14.3958 30.6562 13.5625C30.1042 12.7188 29.3333 12.2969 28.3438 12.2969C27.3229 12.2969 26.4792 12.7917 25.8125 13.7812C25.1562 14.7604 24.8281 15.9948 24.8281 17.4844V26H20.375ZM60.927 8.528L67.583 26H62.591L59.231 16.048C59.103 15.6427 58.9857 15.2373 58.879 14.832C58.7937 14.4053 58.719 13.9893 58.655 13.584C58.6123 13.1787 58.5803 12.8053 58.559 12.464H58.431C58.4097 12.8267 58.367 13.2107 58.303 13.616C58.239 14.0213 58.1537 14.4267 58.047 14.832C57.9617 15.2373 57.855 15.6427 57.727 16.048L54.367 26H49.375L56.031 8.528H60.927ZM70.2188 26V10H74.4688V12.8125C74.9896 11.8125 75.6979 11.0417 76.5938 10.5C77.5 9.95833 78.5521 9.6875 79.75 9.6875C81.8125 9.6875 83.4375 10.3385 84.625 11.6406C85.8125 12.9427 86.4062 14.7344 86.4062 17.0156V26H81.9375V17.3594C81.9375 15.7448 81.625 14.5 81 13.625C80.3854 12.7396 79.5312 12.2969 78.4375 12.2969C77.3438 12.2969 76.4427 12.7917 75.7344 13.7812C75.026 14.7604 74.6719 15.9948 74.6719 17.4844V26H70.2188ZM98.6068 8.528V10.864L96.4308 11.792V22.736L98.6068 23.6V26H89.9028V23.6L92.1428 22.736V11.792L89.9028 10.864V8.528H98.6068ZM109.469 26.3125C105.594 26.3125 103.656 24.5312 103.656 20.9688V12.2969H100.297V10H102.75C103.115 10 103.396 9.90104 103.594 9.70312C103.802 9.49479 103.906 9.19792 103.906 8.8125V6.15625H108.125L108.094 10H113.766V12.2969H108.094V20.75C108.094 21.7917 108.328 22.5677 108.797 23.0781C109.266 23.5781 109.984 23.8281 110.953 23.8281C111.578 23.8281 112.516 23.6771 113.766 23.375V25.6875C113.234 25.8854 112.557 26.0365 111.734 26.1406C110.911 26.2552 110.156 26.3125 109.469 26.3125ZM124.359 26.3125C122.661 26.3125 121.135 25.9583 119.781 25.25C118.427 24.5312 117.37 23.5417 116.609 22.2812C115.849 21.0104 115.469 19.5833 115.469 18C115.469 16.4062 115.849 14.9792 116.609 13.7188C117.37 12.4479 118.427 11.4583 119.781 10.75C121.135 10.0417 122.661 9.6875 124.359 9.6875C126.932 9.6875 129.052 10.4688 130.719 12.0312C132.396 13.5938 133.234 15.5833 133.234 18C133.234 20.4062 132.396 22.3958 130.719 23.9688C129.052 25.5312 126.932 26.3125 124.359 26.3125ZM124.359 23.9844C125.661 23.9844 126.708 23.4531 127.5 22.3906C128.292 21.3177 128.688 19.8542 128.688 18C128.688 16.1354 128.292 14.6667 127.5 13.5938C126.708 12.5208 125.661 11.9844 124.359 11.9844C123.047 11.9844 122 12.5208 121.219 13.5938C120.438 14.6562 120.047 16.125 120.047 18C120.047 19.8542 120.438 21.3177 121.219 22.3906C122 23.4531 123.047 23.9844 124.359 23.9844ZM137.156 26V10H141.406V12.9688C141.885 11.9271 142.562 11.1198 143.438 10.5469C144.323 9.97396 145.323 9.6875 146.438 9.6875C148.073 9.6875 149.359 10.2135 150.297 11.2656C151.245 12.3073 151.719 13.8073 151.719 15.7656V16.5625H147.297V15.8906C147.297 13.6719 146.464 12.5625 144.797 12.5625C143.87 12.5625 143.104 13.026 142.5 13.9531C141.906 14.8802 141.609 16.0365 141.609 17.4219V26H137.156ZM155.969 29.2031V0.40625H158.312V29.2031H155.969ZM171.484 26.3125C169.422 26.3125 167.792 25.6562 166.594 24.3438C165.396 23.0312 164.797 21.2344 164.797 18.9531V10H169.281L169.312 18.6094C169.312 20.2344 169.615 21.4896 170.219 22.375C170.823 23.2604 171.672 23.7031 172.766 23.7031C173.87 23.7031 174.776 23.2135 175.484 22.2344C176.193 21.2448 176.547 19.9948 176.547 18.4844V10H181V26H176.766V23.1562C176.245 24.1667 175.531 24.9479 174.625 25.5C173.729 26.0417 172.682 26.3125 171.484 26.3125ZM186.25 26V10H190.5V12.7812C191 11.7917 191.682 11.0312 192.547 10.5C193.411 9.95833 194.406 9.6875 195.531 9.6875C196.865 9.6875 198 10.0104 198.938 10.6562C199.875 11.3021 200.562 12.2031 201 13.3594C201.479 12.1719 202.188 11.2656 203.125 10.6406C204.073 10.0052 205.198 9.6875 206.5 9.6875C208.521 9.6875 210.104 10.3177 211.25 11.5781C212.396 12.8281 212.969 14.5729 212.969 16.8125V26H208.453V17.1719C208.453 15.599 208.182 14.3958 207.641 13.5625C207.099 12.7188 206.328 12.2969 205.328 12.2969C204.318 12.2969 203.479 12.7604 202.812 13.6875C202.156 14.6042 201.828 15.776 201.828 17.2031V26H197.359V17.1719C197.359 15.599 197.083 14.3958 196.531 13.5625C195.979 12.7188 195.208 12.2969 194.219 12.2969C193.198 12.2969 192.354 12.7917 191.688 13.7812C191.031 14.7604 190.703 15.9948 190.703 17.4844V26H186.25ZM227.031 0.40625V29.2031H217.875V26.8906H223.031V2.70312H217.875V0.40625H227.031Z" fill="white"/>
</svg>
