<svg width="598" height="107" viewBox="0 0 598 107" fill="none" xmlns="http://www.w3.org/2000/svg">
<path d="M0 100.17V19.7607H24.9661V29.8634H13.0368V90.035H24.9661V100.17H0Z" fill="#5354A4"/>
<path d="M40.2258 17.092V36.2491H31.8088V17.092H40.2258Z" fill="#5354A4"/>
<path d="M50.4227 86.0321V37.234H63.2696V45.8435H63.8392C64.8518 42.9843 66.5394 40.7286 68.902 39.0766C71.2647 37.4246 74.0914 36.5986 77.3823 36.5986C80.7153 36.5986 83.5526 37.4352 85.8942 39.1084C88.2357 40.7604 89.7968 43.0054 90.5773 45.8435H91.0836C92.0751 43.0478 93.8681 40.8133 96.4629 39.1401C99.0786 37.4458 102.169 36.5986 105.734 36.5986C110.27 36.5986 113.951 38.0494 116.777 40.951C119.625 43.8315 121.049 47.9191 121.049 53.2141V86.0321H107.601V55.8827C107.601 53.1717 106.884 51.1385 105.449 49.783C104.015 48.4275 102.222 47.7497 100.07 47.7497C97.6231 47.7497 95.714 48.5334 94.3428 50.1007C92.9716 51.6468 92.286 53.6906 92.286 56.2322V86.0321H79.2176V55.5968C79.2176 53.2035 78.532 51.2973 77.1608 49.8783C75.8107 48.4592 74.0282 47.7497 71.8132 47.7497C70.3154 47.7497 68.9653 48.1309 67.7629 48.8934C66.5816 49.6347 65.6428 50.6831 64.9467 52.0386C64.2506 53.3729 63.9025 54.9402 63.9025 56.7405V86.0321H50.4227Z" fill="#5354A4"/>
<path d="M127.837 86.0321L144.829 37.234H160.017L177.009 86.0321H162.739L152.676 51.1173H152.17L142.076 86.0321H127.837Z" fill="#5354A4"/>
<path d="M197.387 57.8207V86.0321H183.908V37.234H196.754V45.8435H197.324C198.4 43.0054 200.204 40.7604 202.735 39.1084C205.266 37.4352 208.336 36.5986 211.943 36.5986C215.318 36.5986 218.261 37.3399 220.771 38.8224C223.282 40.305 225.233 42.423 226.625 45.1764C228.017 47.9086 228.714 51.1702 228.714 54.9614V86.0321H215.234V57.3759C215.255 54.3895 214.495 52.0598 212.956 50.3866C211.416 48.6922 209.296 47.845 206.595 47.845C204.781 47.845 203.178 48.2368 201.786 49.0205C200.414 49.8041 199.339 50.9478 198.558 52.4516C197.799 53.9342 197.408 55.7239 197.387 57.8207Z" fill="#5354A4"/>
<path d="M268.227 38.7589V49.4017H241.489V38.7589H268.227ZM261.424 38.7589V86.0321H248.134V38.7589H261.424ZM268.227 75.2939V86.0321H241.489V75.2939H268.227Z" fill="#5354A4"/>
<path d="M306.958 37.234V47.4002H277.689V37.234H306.958ZM284.334 25.5428H297.813V71.0368C297.813 72.2864 298.003 73.2607 298.383 73.9596C298.763 74.6374 299.29 75.1139 299.965 75.3893C300.661 75.6646 301.463 75.8023 302.37 75.8023C303.003 75.8023 303.636 75.7493 304.269 75.6434C304.901 75.5163 305.387 75.421 305.724 75.3575L307.844 85.4284C307.169 85.6402 306.22 85.8838 304.996 86.1591C303.773 86.4557 302.286 86.6357 300.535 86.6992C297.286 86.8263 294.438 86.3921 291.991 85.3967C289.565 84.4012 287.677 82.8551 286.327 80.7583C284.977 78.6615 284.313 76.0141 284.334 72.8159V25.5428Z" fill="#5354A4"/>
<path d="M337.177 86.9852C332.262 86.9852 328.011 85.9368 324.425 83.84C320.86 81.722 318.107 78.778 316.166 75.008C314.225 71.2168 313.255 66.822 313.255 61.8236C313.255 56.7829 314.225 52.3775 316.166 48.6075C318.107 44.8163 320.86 41.8723 324.425 39.7755C328.011 37.6576 332.262 36.5986 337.177 36.5986C342.092 36.5986 346.332 37.6576 349.897 39.7755C353.484 41.8723 356.247 44.8163 358.188 48.6075C360.129 52.3775 361.099 56.7829 361.099 61.8236C361.099 66.822 360.129 71.2168 358.188 75.008C356.247 78.778 353.484 81.722 349.897 83.84C346.332 85.9368 342.092 86.9852 337.177 86.9852ZM337.24 76.5012C339.476 76.5012 341.343 75.8658 342.841 74.595C344.339 73.3031 345.467 71.5451 346.227 69.3213C347.007 67.0974 347.398 64.5664 347.398 61.7283C347.398 58.8902 347.007 56.3593 346.227 54.1354C345.467 51.9115 344.339 50.1536 342.841 48.8616C341.343 47.5697 339.476 46.9237 337.24 46.9237C334.983 46.9237 333.084 47.5697 331.545 48.8616C330.026 50.1536 328.876 51.9115 328.096 54.1354C327.336 56.3593 326.956 58.8902 326.956 61.7283C326.956 64.5664 327.336 67.0974 328.096 69.3213C328.876 71.5451 330.026 73.3031 331.545 74.595C333.084 75.8658 334.983 76.5012 337.24 76.5012Z" fill="#5354A4"/>
<path d="M369.864 86.0321V37.234H382.932V45.7482H383.439C384.325 42.7195 385.812 40.4321 387.9 38.886C389.989 37.3187 392.394 36.535 395.115 36.535C395.79 36.535 396.518 36.5774 397.298 36.6621C398.079 36.7468 398.764 36.8633 399.355 37.0116V49.0205C398.722 48.8299 397.847 48.6604 396.729 48.5122C395.611 48.3639 394.587 48.2898 393.659 48.2898C391.676 48.2898 389.904 48.724 388.343 49.5923C386.803 50.4395 385.58 51.6256 384.673 53.1505C383.787 54.6755 383.344 56.4334 383.344 58.4243V86.0321H369.864Z" fill="#5354A4"/>
<path d="M423.981 0V107H411.197V0H423.981Z" fill="#5354A4"/>
<path d="M470.82 65.2548V37.234H484.3V86.0321H471.358V77.1684H470.852C469.755 80.0276 467.93 82.3256 465.377 84.0623C462.846 85.7991 459.756 86.6675 456.106 86.6675C452.857 86.6675 449.999 85.9262 447.531 84.4436C445.063 82.961 443.133 80.8536 441.74 78.1214C440.369 75.3893 439.673 72.117 439.652 68.3046V37.234H453.132V65.8901C453.153 68.7706 453.923 71.0474 455.442 72.7206C456.96 74.3938 458.996 75.2304 461.549 75.2304C463.173 75.2304 464.692 74.8598 466.105 74.1185C467.519 73.356 468.658 72.2335 469.523 70.7509C470.409 69.2683 470.841 67.4363 470.82 65.2548Z" fill="#5354A4"/>
<path d="M495.082 86.0321V37.234H507.929V45.8435H508.499C509.511 42.9843 511.199 40.7286 513.561 39.0766C515.924 37.4246 518.751 36.5986 522.042 36.5986C525.375 36.5986 528.212 37.4352 530.554 39.1084C532.895 40.7604 534.456 43.0054 535.237 45.8435H535.743C536.734 43.0478 538.528 40.8133 541.122 39.1401C543.738 37.4458 546.828 36.5986 550.394 36.5986C554.929 36.5986 558.61 38.0494 561.437 40.951C564.285 43.8315 565.709 47.9191 565.709 53.2141V86.0321H552.26V55.8827C552.26 53.1717 551.543 51.1385 550.109 49.783C548.674 48.4275 546.881 47.7497 544.729 47.7497C542.282 47.7497 540.373 48.5334 539.002 50.1007C537.631 51.6468 536.945 53.6906 536.945 56.2322V86.0321H523.877V55.5968C523.877 53.2035 523.191 51.2973 521.82 49.8783C520.47 48.4592 518.688 47.7497 516.473 47.7497C514.975 47.7497 513.625 48.1309 512.422 48.8934C511.241 49.6347 510.302 50.6831 509.606 52.0386C508.91 53.3729 508.562 54.9402 508.562 56.7405V86.0321H495.082Z" fill="#5354A4"/>
<path d="M598 19.7607V100.17H573.034V90.035H584.963V29.8634H573.034V19.7607H598Z" fill="#5354A4"/>
</svg>
