<svg width="24" height="24" viewBox="0 0 24 24" fill="none" xmlns="http://www.w3.org/2000/svg">
<path d="M4 12L7.92857 15V12.75H15V11.25H7.92857V9L4 12Z" fill="#5455A9"/>
<path d="M12.9703 5.00003C12.0468 4.99748 11.1319 5.17743 10.2787 5.52945C9.42558 5.88147 8.65104 6.39857 8 7.0508L9.10433 8.15045C10.1368 7.12234 11.5098 6.55541 12.9703 6.55541C14.4307 6.55541 15.8037 7.12234 16.8362 8.15045C17.8687 9.17856 18.438 10.5457 18.438 12C18.438 13.4543 17.8687 14.8215 16.8362 15.8496C15.8037 16.8777 14.4307 17.4446 12.9703 17.4446C11.5098 17.4446 10.1368 16.8777 9.10433 15.8496L8 16.9492C9.32691 18.2713 11.092 19 12.9703 19C14.8486 19 16.6136 18.2713 17.9405 16.9492C19.2682 15.6279 20 13.8704 20 12C20 10.1297 19.2682 8.37209 17.9405 7.0508C17.2895 6.39857 16.5149 5.88147 15.6618 5.52945C14.8086 5.17743 13.8938 4.99748 12.9703 5.00003Z" fill="#5455A9"/>
</svg>
