<svg width="58" height="40" viewBox="0 0 58 40" fill="none" xmlns="http://www.w3.org/2000/svg">
<g clip-path="url(#clip0_52243_68918)">
<mask id="path-1-inside-1_52243_68918" fill="white">
<path d="M10.5964 5.98304C14.5233 -1.81726 25.7234 -1.81727 29.6503 5.98304L39.06 24.674C42.6043 31.7143 37.4537 40.0002 29.533 40.0002H10.7137C2.79302 40.0002 -2.35761 31.7143 1.18672 24.674L10.5964 5.98304Z"/>
</mask>
<path d="M1.18672 24.674L-1.49288 23.325L1.18672 24.674ZM39.06 24.674L36.3804 26.023L39.06 24.674ZM29.6503 5.98304L32.3299 4.63404L29.6503 5.98304ZM10.5964 5.98304L13.276 7.33204V7.33204L10.5964 5.98304ZM26.9707 7.33203L36.3804 26.023L41.7396 23.325L32.3299 4.63404L26.9707 7.33203ZM29.533 37.0002H10.7137V43.0002H29.533V37.0002ZM3.86631 26.023L13.276 7.33204L7.91677 4.63405L-1.49288 23.325L3.86631 26.023ZM10.7137 37.0002C4.99656 37.0002 1.33996 31.0412 3.86631 26.023L-1.49288 23.325C-6.05519 32.3874 0.589478 43.0002 10.7137 43.0002V37.0002ZM36.3804 26.023C38.9067 31.0412 35.2501 37.0002 29.533 37.0002V43.0002C39.6572 43.0002 46.3019 32.3874 41.7396 23.325L36.3804 26.023ZM32.3299 4.63404C27.2947 -5.3676 12.9519 -5.36759 7.91677 4.63405L13.276 7.33204C16.0947 1.73307 24.152 1.73307 26.9707 7.33203L32.3299 4.63404Z" fill="white" mask="url(#path-1-inside-1_52243_68918)"/>
<rect x="52.0781" width="5.91837" height="40" rx="2" fill="white"/>
</g>
<defs>
<clipPath id="clip0_52243_68918">
<rect width="58" height="40" fill="white"/>
</clipPath>
</defs>
</svg>
