<svg width="16" height="16" viewBox="0 0 16 16" fill="none" xmlns="http://www.w3.org/2000/svg">
<path d="M15.1148 13.8698L12.0774 10.7829C12.0556 10.7607 12.0308 10.744 12.0071 10.7246C13.7691 8.23126 13.5541 4.74085 11.3488 2.49952C10.1226 1.25363 8.51587 0.630859 6.90926 0.630859C5.30265 0.630859 3.69578 1.25363 2.46976 2.49967C0.0178941 4.99156 0.0178941 9.03155 2.46976 11.5236C3.69578 12.7697 5.30235 13.3924 6.90926 13.3924C8.29911 13.3924 9.68766 12.924 10.8313 11.9918C10.8402 12.0019 10.8472 12.0135 10.8568 12.0234L13.8942 15.1103C14.0627 15.2821 14.2836 15.3677 14.5047 15.3677C14.7256 15.3677 14.9465 15.2821 15.115 15.1109C15.4519 14.7681 15.4519 14.2126 15.115 13.8701L15.1148 13.8698ZM6.90897 11.638C5.69308 11.638 4.55003 11.1566 3.69002 10.2829C1.91511 8.47899 1.91511 5.54422 3.69002 3.7401C4.54959 2.8665 5.69308 2.38497 6.90897 2.38497C8.12486 2.38497 9.26791 2.86635 10.1279 3.7401C11.9028 5.54399 11.9028 8.47877 10.1279 10.2829C9.26806 11.1566 8.12501 11.638 6.90897 11.638Z" fill="#5455A9"/>
</svg>
