<svg width="15" height="15" viewBox="0 0 15 15" fill="none" xmlns="http://www.w3.org/2000/svg">
<circle cx="7.25068" cy="7.24684" r="3.45238" stroke="#1B1B1E" stroke-width="0.690476"/>
<circle cx="7.25068" cy="7.24684" r="3.45238" stroke="#C0C1FF" stroke-opacity="0.05" stroke-width="0.690476"/>
<circle cx="7.25001" cy="1.03571" r="0.794048" stroke="#1B1B1E" stroke-width="0.483333"/>
<circle cx="7.25001" cy="1.03571" r="0.794048" stroke="#C0C1FF" stroke-opacity="0.05" stroke-width="0.483333"/>
<circle cx="13.4643" cy="7.25056" r="0.794048" transform="rotate(90 13.4643 7.25056)" stroke="#1B1B1E" stroke-width="0.483333"/>
<circle cx="13.4643" cy="7.25056" r="0.794048" transform="rotate(90 13.4643 7.25056)" stroke="#C0C1FF" stroke-opacity="0.05" stroke-width="0.483333"/>
<circle cx="11.6436" cy="11.6445" r="0.794048" transform="rotate(135 11.6436 11.6445)" stroke="#1B1B1E" stroke-width="0.483333"/>
<circle cx="11.6436" cy="11.6445" r="0.794048" transform="rotate(135 11.6436 11.6445)" stroke="#C0C1FF" stroke-opacity="0.05" stroke-width="0.483333"/>
<circle cx="11.6437" cy="2.85535" r="0.794048" transform="rotate(45 11.6437 2.85535)" stroke="#1B1B1E" stroke-width="0.483333"/>
<circle cx="11.6437" cy="2.85535" r="0.794048" transform="rotate(45 11.6437 2.85535)" stroke="#C0C1FF" stroke-opacity="0.05" stroke-width="0.483333"/>
<circle cx="7.25001" cy="13.4654" r="0.794048" stroke="#1B1B1E" stroke-width="0.483333"/>
<circle cx="7.25001" cy="13.4654" r="0.794048" stroke="#C0C1FF" stroke-opacity="0.05" stroke-width="0.483333"/>
<circle cx="1.0357" cy="7.25056" r="0.794048" transform="rotate(90 1.0357 7.25056)" stroke="#1B1B1E" stroke-width="0.483333"/>
<circle cx="1.0357" cy="7.25056" r="0.794048" transform="rotate(90 1.0357 7.25056)" stroke="#C0C1FF" stroke-opacity="0.05" stroke-width="0.483333"/>
<circle cx="2.85614" cy="2.85547" r="0.794048" transform="rotate(135 2.85614 2.85547)" stroke="#1B1B1E" stroke-width="0.483333"/>
<circle cx="2.85614" cy="2.85547" r="0.794048" transform="rotate(135 2.85614 2.85547)" stroke="#C0C1FF" stroke-opacity="0.05" stroke-width="0.483333"/>
<circle cx="2.85632" cy="11.6444" r="0.794048" transform="rotate(45 2.85632 11.6444)" stroke="#1B1B1E" stroke-width="0.483333"/>
<circle cx="2.85632" cy="11.6444" r="0.794048" transform="rotate(45 2.85632 11.6444)" stroke="#C0C1FF" stroke-opacity="0.05" stroke-width="0.483333"/>
</svg>
