<svg width="27" height="26" viewBox="0 0 27 26" fill="none" xmlns="http://www.w3.org/2000/svg">
<path d="M14 26C21.1797 26 27 20.1797 27 13C27 5.8203 21.1797 0 14 0C6.8203 0 1 5.8203 1 13C1 20.1797 6.8203 26 14 26Z" fill="#5455A9"/>
<path d="M3.97958 17V9.70526H6.98084C7.62695 9.70526 8.17926 9.80947 8.63779 10.0179C9.10326 10.2263 9.46105 10.5251 9.71116 10.9141C9.96126 11.3032 10.0863 11.7652 10.0863 12.3001C10.0863 12.8351 9.96126 13.2971 9.71116 13.6861C9.46105 14.0752 9.10326 14.3739 8.63779 14.5823C8.17926 14.7907 7.62695 14.8949 6.98084 14.8949H4.72989L5.33432 14.2593V17H3.97958ZM5.33432 14.4052L4.72989 13.7486H6.91832C7.51579 13.7486 7.96389 13.6236 8.26263 13.3735C8.56832 13.1164 8.72116 12.7586 8.72116 12.3001C8.72116 11.8346 8.56832 11.4768 8.26263 11.2267C7.96389 10.9766 7.51579 10.8516 6.91832 10.8516H4.72989L5.33432 10.1846V14.4052ZM13.3305 17.1042C12.8234 17.1042 12.3683 17.0208 11.9654 16.8541C11.5624 16.6874 11.2463 16.4581 11.017 16.1663C10.7878 15.8745 10.6732 15.5376 10.6732 15.1555C10.6732 14.8081 10.7496 14.4955 10.9024 14.2176C11.0553 13.9397 11.2984 13.6757 11.6319 13.4256C11.9654 13.1685 12.3926 12.9115 12.9137 12.6544C13.3236 12.4529 13.6432 12.2758 13.8724 12.1229C14.1086 11.9701 14.2719 11.8242 14.3622 11.6853C14.4595 11.5463 14.5081 11.4004 14.5081 11.2476C14.5081 11.0392 14.4352 10.8724 14.2893 10.7474C14.1434 10.6154 13.9349 10.5494 13.664 10.5494C13.3722 10.5494 13.1429 10.6223 12.9762 10.7682C12.8164 10.9072 12.7365 11.0913 12.7365 11.3205C12.7365 11.4386 12.7574 11.5533 12.799 11.6644C12.8477 11.7756 12.931 11.9006 13.0492 12.0396C13.1673 12.1785 13.3375 12.3557 13.5598 12.5711L17.4156 16.2705L16.6965 17.1146L12.5281 13.1129C12.2919 12.8837 12.1008 12.6718 11.9549 12.4773C11.809 12.2827 11.7048 12.0952 11.6423 11.9145C11.5798 11.7269 11.5485 11.5359 11.5485 11.3414C11.5485 11.0009 11.6354 10.7022 11.809 10.4452C11.9827 10.1812 12.2294 9.97968 12.5489 9.84074C12.8685 9.69484 13.2402 9.6219 13.664 9.6219C14.06 9.6219 14.4004 9.6879 14.6853 9.8199C14.977 9.94495 15.2028 10.1291 15.3626 10.3722C15.5294 10.6084 15.6127 10.8933 15.6127 11.2267C15.6127 11.5185 15.5398 11.7895 15.3939 12.0396C15.248 12.2827 15.0187 12.5155 14.7061 12.7378C14.4004 12.9601 13.9905 13.1928 13.4764 13.436C13.0943 13.6236 12.7921 13.8007 12.5698 13.9675C12.3475 14.1342 12.1877 14.3009 12.0904 14.4677C11.9932 14.6344 11.9445 14.8185 11.9445 15.02C11.9445 15.2215 12.0036 15.3986 12.1217 15.5515C12.2467 15.7043 12.4204 15.8259 12.6427 15.9162C12.865 15.9996 13.1256 16.0413 13.4243 16.0413C13.8689 16.0413 14.2719 15.944 14.6332 15.7495C15.0014 15.548 15.3105 15.2493 15.5606 14.8533C15.8107 14.4573 15.9914 13.9675 16.1025 13.3839L17.155 13.7278C17.0092 14.4295 16.7556 15.0339 16.3943 15.5411C16.04 16.0413 15.6023 16.4268 15.0813 16.6978C14.5602 16.9687 13.9766 17.1042 13.3305 17.1042ZM18.5833 17V9.70526H19.938V15.8537H23.7521V17H18.5833Z" fill="white"/>
</svg>
