<svg width="21" height="9" viewBox="0 0 21 9" fill="none" xmlns="http://www.w3.org/2000/svg">
<path d="M0.979579 8V0.705263H3.98084C4.62695 0.705263 5.17926 0.809474 5.63779 1.0179C6.10326 1.22632 6.46105 1.52505 6.71116 1.91411C6.96126 2.30316 7.08632 2.76516 7.08632 3.30011C7.08632 3.83505 6.96126 4.29705 6.71116 4.68611C6.46105 5.07516 6.10326 5.37389 5.63779 5.58232C5.17926 5.79074 4.62695 5.89495 3.98084 5.89495H1.72989L2.33432 5.25926V8H0.979579ZM2.33432 5.40516L1.72989 4.74863H3.91832C4.51579 4.74863 4.96389 4.62358 5.26263 4.37347C5.56832 4.11642 5.72116 3.75863 5.72116 3.30011C5.72116 2.83463 5.56832 2.47684 5.26263 2.22674C4.96389 1.97663 4.51579 1.85158 3.91832 1.85158H1.72989L2.33432 1.18463V5.40516ZM10.3305 8.10421C9.82336 8.10421 9.36831 8.02084 8.96536 7.85411C8.56241 7.68737 8.24631 7.45811 8.01705 7.16632C7.78778 6.87453 7.67315 6.53758 7.67315 6.15547C7.67315 5.80811 7.74957 5.49547 7.90241 5.21758C8.05526 4.93968 8.29841 4.67568 8.63189 4.42558C8.96536 4.16853 9.39262 3.91147 9.91368 3.65442C10.3236 3.45295 10.6432 3.27579 10.8724 3.12295C11.1086 2.97011 11.2719 2.82421 11.3622 2.68526C11.4595 2.54632 11.5081 2.40042 11.5081 2.24758C11.5081 2.03916 11.4352 1.87242 11.2893 1.74737C11.1434 1.61537 10.9349 1.54937 10.664 1.54937C10.3722 1.54937 10.1429 1.62232 9.9762 1.76821C9.81641 1.90716 9.73652 2.09126 9.73652 2.32053C9.73652 2.43863 9.75736 2.55326 9.79905 2.66442C9.84768 2.77558 9.93105 2.90063 10.0492 3.03958C10.1673 3.17853 10.3375 3.35568 10.5598 3.57105L14.4156 7.27053L13.6965 8.11463L9.5281 4.11295C9.29189 3.88368 9.10084 3.67179 8.95494 3.47726C8.80905 3.28274 8.70484 3.09516 8.64231 2.91453C8.57978 2.72695 8.54852 2.53589 8.54852 2.34137C8.54852 2.00095 8.63536 1.70221 8.80905 1.44516C8.98273 1.18116 9.22936 0.979684 9.54894 0.840737C9.86852 0.694842 10.2402 0.621895 10.664 0.621895C11.06 0.621895 11.4004 0.687895 11.6853 0.819895C11.977 0.944948 12.2028 1.12905 12.3626 1.37221C12.5294 1.60842 12.6127 1.89326 12.6127 2.22674C12.6127 2.51853 12.5398 2.78947 12.3939 3.03958C12.248 3.28274 12.0187 3.51547 11.7061 3.73779C11.4004 3.96011 10.9905 4.19284 10.4764 4.436C10.0943 4.62358 9.7921 4.80074 9.56978 4.96747C9.34747 5.13421 9.18768 5.30095 9.09041 5.46768C8.99315 5.63442 8.94452 5.81853 8.94452 6.02C8.94452 6.22147 9.00357 6.39863 9.12168 6.55147C9.24673 6.70432 9.42041 6.82589 9.64273 6.91621C9.86505 6.99958 10.1256 7.04126 10.4243 7.04126C10.8689 7.04126 11.2719 6.944 11.6332 6.74947C12.0014 6.548 12.3105 6.24926 12.5606 5.85326C12.8107 5.45726 12.9914 4.96747 13.1025 4.38389L14.155 4.72779C14.0092 5.42947 13.7556 6.03389 13.3943 6.54105C13.04 7.04126 12.6023 7.42684 12.0813 7.69779C11.5602 7.96874 10.9766 8.10421 10.3305 8.10421ZM15.5833 8V0.705263H16.938V6.85368H20.7521V8H15.5833Z" fill="#5455A9"/>
</svg>
