<svg width="24" height="24" viewBox="0 0 24 24" fill="none" xmlns="http://www.w3.org/2000/svg">
<mask id="path-1-inside-1_52424_11745" fill="white">
<path d="M6.21153 3.58826C8.51352 -1.09192 15.0791 -1.09192 17.3811 3.58826L22.8971 14.8028C24.9748 19.027 21.9555 23.9986 17.3123 23.9986H6.2803C1.63715 23.9986 -1.38218 19.027 0.695526 14.8028L6.21153 3.58826Z"/>
</mask>
<path d="M0.695526 14.8028L-1.99646 13.4787L0.695526 14.8028ZM22.8971 14.8028L20.2051 16.1269L22.8971 14.8028ZM17.3811 3.58826L20.0731 2.26418L17.3811 3.58826ZM6.21153 3.58826L8.90351 4.91235V4.91235L6.21153 3.58826ZM14.6891 4.91234L20.2051 16.1269L25.5891 13.4787L20.0731 2.26418L14.6891 4.91234ZM17.3123 20.9986H6.2803V26.9986H17.3123V20.9986ZM3.38752 16.1269L8.90351 4.91235L3.51954 2.26418L-1.99646 13.4787L3.38752 16.1269ZM6.2803 20.9986C3.94212 20.9986 2.25327 18.4329 3.38752 16.1269L-1.99646 13.4787C-5.01764 19.6211 -0.66782 26.9986 6.2803 26.9986V20.9986ZM20.2051 16.1269C21.3393 18.4329 19.6505 20.9986 17.3123 20.9986V26.9986C24.2604 26.9986 28.6103 19.6211 25.5891 13.4787L20.2051 16.1269ZM20.0731 2.26418C16.672 -4.65056 6.92062 -4.65056 3.51954 2.26418L8.90351 4.91235C10.1064 2.46672 13.4862 2.46672 14.6891 4.91234L20.0731 2.26418Z" fill="#C0C1FF" mask="url(#path-1-inside-1_52424_11745)"/>
</svg>
