<svg width="18" height="18" viewBox="0 0 18 18" fill="none" xmlns="http://www.w3.org/2000/svg">
<path fill-rule="evenodd" clip-rule="evenodd" d="M8.69767 0.875H8.67198C7.42413 0.875 6.45215 0.875 5.67291 0.938488C4.88157 1.00349 4.23913 1.13651 3.66093 1.43128C2.70092 1.92041 1.92041 2.70092 1.43128 3.66093C1.13651 4.23913 1.00349 4.88157 0.938488 5.67291C0.875 6.45215 0.875 7.42413 0.875 8.67198V9.32802C0.875 10.5759 0.875 11.5478 0.938488 12.3271C1.00349 13.1184 1.13651 13.7609 1.43128 14.3391C1.92041 15.2991 2.70092 16.0796 3.66093 16.5687C4.23913 16.8635 4.88157 16.9965 5.67291 17.0615C6.45215 17.125 7.42413 17.125 8.67198 17.125H9.32802C10.5759 17.125 11.5478 17.125 12.3271 17.0615C13.1184 16.9965 13.7609 16.8635 14.3391 16.5687C15.2991 16.0796 16.0796 15.2991 16.5687 14.3391C16.8635 13.7609 16.9965 13.1184 17.0615 12.3271C17.125 11.5478 17.125 10.5759 17.125 9.32802V8.67198C17.125 7.42413 17.125 6.45215 17.0615 5.67291C16.9965 4.88157 16.8635 4.23913 16.5687 3.66093C16.0796 2.70092 15.2991 1.92041 14.3391 1.43128C13.7609 1.13651 13.1184 1.00349 12.3271 0.938488C11.5478 0.875 10.5759 0.875 9.32802 0.875H8.69767ZM4.17564 2.44105C4.56715 2.24151 5.04483 2.12738 5.76512 2.06843C6.49296 2.00948 7.41808 2.00872 8.69767 2.00872H9.30233C10.5812 2.00872 11.507 2.00872 12.2349 2.06919C12.9559 2.12738 13.4328 2.24151 13.8244 2.44105C14.5713 2.82152 15.1785 3.42874 15.559 4.17564C15.7585 4.56715 15.8726 5.04483 15.9316 5.76512C15.9905 6.49296 15.9913 7.41808 15.9913 8.69767V9.30233C15.9913 10.5812 15.9913 11.507 15.9308 12.2349C15.8726 12.9559 15.7585 13.4328 15.559 13.8244C15.1785 14.5713 14.5713 15.1785 13.8244 15.559C13.4328 15.7585 12.9552 15.8726 12.2349 15.9316C11.507 15.9905 10.5812 15.9913 9.30233 15.9913H8.69767C7.41808 15.9913 6.49296 15.9913 5.76512 15.9308C5.04407 15.8726 4.56715 15.7585 4.17564 15.559C3.42874 15.1785 2.82152 14.5713 2.44105 13.8244C2.24151 13.4328 2.12738 12.9552 2.06843 12.2349C2.00948 11.507 2.00872 10.5812 2.00872 9.30233V8.69767C2.00872 7.41808 2.00872 6.49296 2.06919 5.76512C2.12738 5.04407 2.24151 4.56715 2.44105 4.17564C2.82152 3.42874 3.42874 2.82152 4.17564 2.44105ZM9.56686 5.97674C9.56686 5.8264 9.50714 5.68222 9.40083 5.57591C9.29452 5.46961 9.15034 5.40988 9 5.40988C8.84966 5.40988 8.70548 5.46961 8.59917 5.57591C8.49286 5.68222 8.43314 5.8264 8.43314 5.97674V8.43314H5.97674C5.8264 8.43314 5.68222 8.49286 5.57591 8.59917C5.46961 8.70548 5.40988 8.84966 5.40988 9C5.40988 9.15034 5.46961 9.29452 5.57591 9.40083C5.68222 9.50714 5.8264 9.56686 5.97674 9.56686H8.43314V12.0233C8.43314 12.1736 8.49286 12.3178 8.59917 12.4241C8.70548 12.5304 8.84966 12.5901 9 12.5901C9.15034 12.5901 9.29452 12.5304 9.40083 12.4241C9.50714 12.3178 9.56686 12.1736 9.56686 12.0233V9.56686H12.0233C12.1736 9.56686 12.3178 9.50714 12.4241 9.40083C12.5304 9.29452 12.5901 9.15034 12.5901 9C12.5901 8.84966 12.5304 8.70548 12.4241 8.59917C12.3178 8.49286 12.1736 8.43314 12.0233 8.43314H9.56686V5.97674Z" fill="#C0C1FF"/>
</svg>
