<svg width="9" height="14" viewBox="0 0 9 14" fill="none" xmlns="http://www.w3.org/2000/svg">
<path d="M5.4 9.49899H3.06628C3.07326 8.93649 3.12907 8.46472 3.23372 8.08367C3.33837 7.69657 3.51279 7.34577 3.75698 7.03125C4.00814 6.71673 4.33953 6.38407 4.75116 6.03327C5.07209 5.76714 5.36163 5.51613 5.61977 5.28024C5.87791 5.03831 6.08372 4.78427 6.23721 4.51815C6.3907 4.24597 6.46744 3.93448 6.46744 3.58367C6.46744 3.20262 6.39419 2.87903 6.24767 2.6129C6.10116 2.34677 5.88488 2.14415 5.59884 2.00504C5.31977 1.86593 4.97093 1.79637 4.55233 1.79637C4.20349 1.79637 3.87558 1.85685 3.5686 1.97782C3.26163 2.09274 3.01395 2.27419 2.82558 2.52218C2.63721 2.76411 2.53605 3.08468 2.52209 3.48387H0C0.0139535 2.72177 0.223256 2.08065 0.627907 1.56048C1.03256 1.04032 1.57674 0.650202 2.26047 0.390121C2.94419 0.13004 3.70814 0 4.55233 0C5.48721 0 6.28605 0.139113 6.94884 0.417339C7.61163 0.689516 8.11744 1.08871 8.46628 1.61492C8.82209 2.13508 9 2.76411 9 3.50202C9 4.03427 8.87791 4.51815 8.63372 4.95363C8.38953 5.38306 8.07209 5.78528 7.6814 6.16028C7.2907 6.52923 6.8686 6.89819 6.41512 7.26714C6.02442 7.5756 5.7593 7.91129 5.61977 8.27419C5.48023 8.63105 5.40698 9.03931 5.4 9.49899ZM2.85698 12.3296C2.85698 12.003 2.98605 11.7278 3.24419 11.504C3.50233 11.2742 3.85465 11.1593 4.30116 11.1593C4.74767 11.1593 5.1 11.2742 5.35814 11.504C5.61628 11.7278 5.74535 12.003 5.74535 12.3296C5.74535 12.6562 5.61628 12.9345 5.35814 13.1643C5.1 13.3881 4.74767 13.5 4.30116 13.5C3.85465 13.5 3.50233 13.3881 3.24419 13.1643C2.98605 12.9345 2.85698 12.6562 2.85698 12.3296Z" fill="#5455A9"/>
</svg>
