<svg width="18" height="16" viewBox="0 0 18 16" fill="none" xmlns="http://www.w3.org/2000/svg">
<path d="M18 7.39284C18 6.29859 17.106 5.40909 16.0072 5.40909C15.471 5.40909 14.985 5.62359 14.6273 5.96859C13.2698 5.07534 11.433 4.50684 9.399 4.43409L10.5113 0.932344L13.5233 1.63809L13.5187 1.68159C13.5187 2.57634 14.25 3.30384 15.1493 3.30384C16.0477 3.30384 16.7782 2.57634 16.7782 1.68159C16.7782 0.786844 16.047 0.0585938 15.1493 0.0585938C14.4592 0.0585938 13.8712 0.489094 13.6335 1.09284L10.3868 0.331594C10.245 0.297094 10.101 0.378844 10.0568 0.518344L8.81625 4.42359C6.68775 4.44909 4.7595 5.02209 3.34125 5.94234C2.98575 5.61384 2.514 5.40834 1.992 5.40834C0.89325 5.40834 0 6.29859 0 7.39284C0 8.12034 0.39975 8.75109 0.98775 9.0961C0.94875 9.30759 0.92325 9.52134 0.92325 9.73884C0.92325 12.6721 4.52925 15.0586 8.9625 15.0586C13.3958 15.0586 17.0025 12.6721 17.0025 9.73884C17.0025 9.53334 16.9807 9.33084 16.9462 9.13134C17.5702 8.79609 18 8.14734 18 7.39284ZM5.082 8.75484C5.082 8.10384 5.6145 7.57359 6.2685 7.57359C6.9225 7.57359 7.45425 8.10384 7.45425 8.75484C7.45425 9.40584 6.9225 9.93534 6.2685 9.93534C5.6145 9.93534 5.082 9.40584 5.082 8.75484ZM11.8778 12.2566C11.28 12.8513 10.3417 13.1408 9.00975 13.1408L9 13.1386L8.99025 13.1408C7.6575 13.1408 6.71925 12.8513 6.12225 12.2566C6.0135 12.1486 6.0135 11.9723 6.12225 11.8643C6.231 11.7556 6.408 11.7556 6.51675 11.8643C7.00425 12.3496 7.8135 12.5851 8.99025 12.5851L9 12.5873L9.00975 12.5851C10.1865 12.5851 10.9957 12.3488 11.4832 11.8636C11.592 11.7548 11.769 11.7556 11.8778 11.8636C11.9865 11.9723 11.9865 12.1478 11.8778 12.2566ZM11.736 9.93534C11.082 9.93534 10.5503 9.40584 10.5503 8.75484C10.5503 8.10384 11.082 7.57359 11.736 7.57359C12.39 7.57359 12.9218 8.10384 12.9218 8.75484C12.9218 9.40584 12.39 9.93534 11.736 9.93534Z" fill="#C0C1FF"/>
</svg>
