<svg width="26" height="26" viewBox="0 0 26 26" fill="none" xmlns="http://www.w3.org/2000/svg">
<path d="M13 26C20.1797 26 26 20.1797 26 13C26 5.8203 20.1797 0 13 0C5.8203 0 0 5.8203 0 13C0 20.1797 5.8203 26 13 26Z" fill="#C0C1FF"/>
<path d="M22 12.3928C22 11.2986 21.106 10.4091 20.0072 10.4091C19.471 10.4091 18.985 10.6236 18.6273 10.9686C17.2698 10.0753 15.433 9.50684 13.399 9.43409L14.5113 5.93234L17.5233 6.63809L17.5187 6.68159C17.5187 7.57634 18.25 8.30384 19.1493 8.30384C20.0477 8.30384 20.7782 7.57634 20.7782 6.68159C20.7782 5.78684 20.047 5.05859 19.1493 5.05859C18.4592 5.05859 17.8712 5.48909 17.6335 6.09284L14.3868 5.33159C14.245 5.29709 14.101 5.37884 14.0568 5.51834L12.8162 9.42359C10.6877 9.44909 8.7595 10.0221 7.34125 10.9423C6.98575 10.6138 6.514 10.4083 5.992 10.4083C4.89325 10.4083 4 11.2986 4 12.3928C4 13.1203 4.39975 13.7511 4.98775 14.0961C4.94875 14.3076 4.92325 14.5213 4.92325 14.7388C4.92325 17.6721 8.52925 20.0586 12.9625 20.0586C17.3958 20.0586 21.0025 17.6721 21.0025 14.7388C21.0025 14.5333 20.9807 14.3308 20.9462 14.1313C21.5702 13.7961 22 13.1473 22 12.3928ZM9.082 13.7548C9.082 13.1038 9.6145 12.5736 10.2685 12.5736C10.9225 12.5736 11.4543 13.1038 11.4543 13.7548C11.4543 14.4058 10.9225 14.9353 10.2685 14.9353C9.6145 14.9353 9.082 14.4058 9.082 13.7548ZM15.8778 17.2566C15.28 17.8513 14.3417 18.1408 13.0097 18.1408L13 18.1386L12.9903 18.1408C11.6575 18.1408 10.7193 17.8513 10.1223 17.2566C10.0135 17.1486 10.0135 16.9723 10.1223 16.8643C10.231 16.7556 10.408 16.7556 10.5168 16.8643C11.0043 17.3496 11.8135 17.5851 12.9903 17.5851L13 17.5873L13.0097 17.5851C14.1865 17.5851 14.9957 17.3488 15.4832 16.8636C15.592 16.7548 15.769 16.7556 15.8778 16.8636C15.9865 16.9723 15.9865 17.1478 15.8778 17.2566ZM15.736 14.9353C15.082 14.9353 14.5503 14.4058 14.5503 13.7548C14.5503 13.1038 15.082 12.5736 15.736 12.5736C16.39 12.5736 16.9218 13.1038 16.9218 13.7548C16.9218 14.4058 16.39 14.9353 15.736 14.9353Z" fill="#242477"/>
</svg>
