<svg width="26" height="26" viewBox="0 0 26 26" fill="none" xmlns="http://www.w3.org/2000/svg">
<path d="M11.4609 5.93049C11.5088 5.4035 11.9506 5 12.4798 5H13.5202C14.0494 5 14.4912 5.4035 14.5391 5.93049C14.5785 6.36314 14.8898 6.71634 15.2966 6.8688C15.4012 6.90799 15.5046 6.94979 15.6066 6.9941C16.009 7.16903 16.4825 7.1355 16.8196 6.85454C17.2362 6.50736 17.8489 6.53515 18.2323 6.91863L18.9667 7.65298C19.3323 8.01861 19.3588 8.6027 19.0278 8.99994C18.7521 9.33079 18.7264 9.79796 18.9118 10.1867C18.992 10.3551 19.0653 10.5274 19.1312 10.7033C19.2837 11.1101 19.6369 11.4215 20.0695 11.4609C20.5965 11.5088 21 11.9506 21 12.4798V13.5202C21 14.0494 20.5965 14.4912 20.0695 14.5391C19.6369 14.5785 19.2837 14.8898 19.1312 15.2966C19.072 15.4546 19.0069 15.6096 18.9362 15.7614C18.7642 16.1304 18.7921 16.571 19.0526 16.8837C19.3696 17.264 19.3442 17.8233 18.9942 18.1734L18.1734 18.9942C17.8233 19.3442 17.264 19.3696 16.8837 19.0526C16.571 18.7921 16.1304 18.7642 15.7614 18.9362C15.6096 19.0069 15.4546 19.072 15.2966 19.1312C14.8898 19.2837 14.5785 19.6369 14.5391 20.0695C14.4912 20.5965 14.0494 21 13.5202 21H12.4798C11.9506 21 11.5088 20.5965 11.4609 20.0695C11.4215 19.6369 11.1101 19.2837 10.7033 19.1312C10.5274 19.0653 10.3551 18.992 10.1867 18.9118C9.79797 18.7264 9.3308 18.7521 8.99994 19.0278C8.6027 19.3588 8.0186 19.3323 7.65298 18.9667L6.91863 18.2323C6.53514 17.8489 6.50736 17.2362 6.85454 16.8196C7.13551 16.4825 7.16903 16.009 6.9941 15.6066C6.94979 15.5046 6.908 15.4013 6.8688 15.2966C6.71635 14.8898 6.36314 14.5785 5.93049 14.5391C5.4035 14.4912 5 14.0494 5 13.5202V12.4798C5 11.9506 5.4035 11.5088 5.93049 11.4609C6.36314 11.4215 6.71635 11.1101 6.86881 10.7033C6.91488 10.5804 6.96454 10.4592 7.01767 10.3399C7.20568 9.91773 7.17443 9.41806 6.87857 9.06302C6.51778 8.63006 6.54666 7.99343 6.94516 7.59492L7.59491 6.94517C7.99342 6.54666 8.63006 6.51778 9.06301 6.87858C9.41805 7.17444 9.91772 7.20568 10.3399 7.01767C10.4592 6.96454 10.5804 6.91488 10.7033 6.86881C11.1101 6.71635 11.4215 6.36314 11.4609 5.93049Z" stroke="#C0C1FF" stroke-width="1.5" stroke-linecap="round" stroke-linejoin="round"/>
<path d="M15 13C15 14.1046 14.1046 15 13 15C11.8954 15 11 14.1046 11 13C11 11.8954 11.8954 11 13 11C14.1046 11 15 11.8954 15 13Z" stroke="#C0C1FF" stroke-width="1.5" stroke-linecap="round" stroke-linejoin="round"/>
</svg>
