<svg width="13" height="7" viewBox="0 0 13 7" fill="none" xmlns="http://www.w3.org/2000/svg">
<path d="M4.63281 6.5C4.63281 6.36739 4.68549 6.24021 4.77926 6.14645C4.87303 6.05268 5.0002 6 5.13281 6H8.13281C8.26542 6 8.3926 6.05268 8.48637 6.14645C8.58013 6.24021 8.63281 6.36739 8.63281 6.5C8.63281 6.63261 8.58013 6.75979 8.48637 6.85355C8.3926 6.94732 8.26542 7 8.13281 7H5.13281C5.0002 7 4.87303 6.94732 4.77926 6.85355C4.68549 6.75979 4.63281 6.63261 4.63281 6.5ZM2.63281 3.5C2.63281 3.36739 2.68549 3.24021 2.77926 3.14645C2.87303 3.05268 3.0002 3 3.13281 3H10.1328C10.2654 3 10.3926 3.05268 10.4864 3.14645C10.5801 3.24021 10.6328 3.36739 10.6328 3.5C10.6328 3.63261 10.5801 3.75979 10.4864 3.85355C10.3926 3.94732 10.2654 4 10.1328 4H3.13281C3.0002 4 2.87303 3.94732 2.77926 3.85355C2.68549 3.75979 2.63281 3.63261 2.63281 3.5ZM0.632812 0.5C0.632812 0.367392 0.685491 0.240215 0.779259 0.146447C0.873027 0.0526785 1.0002 0 1.13281 0H12.1328C12.2654 0 12.3926 0.0526785 12.4864 0.146447C12.5801 0.240215 12.6328 0.367392 12.6328 0.5C12.6328 0.632608 12.5801 0.759785 12.4864 0.853553C12.3926 0.947321 12.2654 1 12.1328 1H1.13281C1.0002 1 0.873027 0.947321 0.779259 0.853553C0.685491 0.759785 0.632812 0.632608 0.632812 0.5Z" fill="#1B1B1E"/>
</svg>
