<svg width="88" height="100" viewBox="0 0 88 100" fill="none" xmlns="http://www.w3.org/2000/svg">
<g filter="url(#filter0_d_51833_35783)">
<path fill-rule="evenodd" clip-rule="evenodd" d="M66 52C66 59.732 59.732 66 52 66C44.268 66 38 59.732 38 52C38 44.268 44.268 38 52 38C59.732 38 66 44.268 66 52ZM52.5017 48.3352C51.14 48.9015 48.4185 50.0738 44.3372 51.8519C43.6745 52.1155 43.3273 52.3733 43.2957 52.6254C43.2423 53.0515 43.7758 53.2193 44.5024 53.4477C44.6012 53.4788 44.7036 53.511 44.8086 53.5451C45.5234 53.7775 46.4849 54.0493 46.9848 54.0601C47.4382 54.0699 47.9443 53.883 48.5031 53.4993C52.3163 50.9252 54.2848 49.6242 54.4083 49.5961C54.4955 49.5763 54.6163 49.5515 54.6982 49.6242C54.7801 49.697 54.772 49.8348 54.7633 49.8717C54.7105 50.0971 52.6161 52.0442 51.5323 53.0518C51.1944 53.3659 50.9547 53.5888 50.9057 53.6396C50.796 53.7536 50.6841 53.8615 50.5766 53.9651C49.9125 54.6053 49.4145 55.0854 50.6042 55.8693C51.1759 56.2461 51.6334 56.5576 52.0898 56.8684C52.5882 57.2078 53.0853 57.5464 53.7285 57.968C53.8924 58.0754 54.0489 58.187 54.2013 58.2957C54.7814 58.7092 55.3025 59.0807 55.9463 59.0215C56.3204 58.987 56.7069 58.6353 56.9031 57.5861C57.3669 55.1067 58.2785 49.7346 58.4892 47.5209C58.5077 47.3269 58.4845 47.0787 58.4658 46.9697C58.4472 46.8608 58.4082 46.7055 58.2666 46.5906C58.0988 46.4545 57.8399 46.4258 57.7241 46.4278C57.1975 46.4371 56.3896 46.718 52.5017 48.3352Z" fill="white"/>
</g>
<defs>
<filter id="filter0_d_51833_35783" x="0" y="0" width="108" height="108" filterUnits="userSpaceOnUse" color-interpolation-filters="sRGB">
<feFlood flood-opacity="0" result="BackgroundImageFix"/>
<feColorMatrix in="SourceAlpha" type="matrix" values="0 0 0 0 0 0 0 0 0 0 0 0 0 0 0 0 0 0 127 0" result="hardAlpha"/>
<feOffset dx="2" dy="2"/>
<feGaussianBlur stdDeviation="20"/>
<feComposite in2="hardAlpha" operator="out"/>
<feColorMatrix type="matrix" values="0 0 0 0 0 0 0 0 0 0 0 0 0 0 0 0 0 0 0.12 0"/>
<feBlend mode="normal" in2="BackgroundImageFix" result="effect1_dropShadow_51833_35783"/>
<feBlend mode="normal" in="SourceGraphic" in2="effect1_dropShadow_51833_35783" result="shape"/>
</filter>
</defs>
</svg>
