<svg width="24" height="24" viewBox="0 0 24 24" fill="none" xmlns="http://www.w3.org/2000/svg">
<path d="M23.6884 11.3283L24 10.3008L22.9693 10.3342C22.8822 10.3342 22.2492 10.3157 21.6352 9.85698C21.681 9.86162 21.7267 9.86806 21.7734 9.86806C22.4055 9.86806 23.0169 9.47596 23.262 8.9155L23.7055 7.90285C23.1498 7.91021 22.6416 7.83808 22.6416 7.83808C22.6371 7.83716 22.2367 7.7844 21.7734 7.29708C21.4412 6.94748 21.0301 6.76251 20.5847 6.76251C20.3899 6.76251 20.2157 6.79858 20.0658 6.84761C20.0892 6.76532 20.1116 6.68206 20.1242 6.59604C20.266 5.64812 19.6735 4.9249 19.6735 4.92581L18.8987 3.93718L18.4184 5.09878C18.4166 5.1025 18.2954 5.37436 18.0781 5.50756C18.0126 5.1663 17.8519 4.78246 17.508 4.41535C16.8598 3.72358 16.0706 3.62092 15.6576 3.62092C15.4664 3.62092 15.33 3.64221 15.2967 3.64774L14.3612 3.83732C14.4151 3.62183 14.53 3.2473 14.7401 2.90975L15.2563 2.08108L13.9572 2.23367L13.5433 1.32831L12.7425 1.75374L12.0018 1L11.2629 1.75374L10.4594 1.32831L10.0464 2.23367L8.74819 2.08108L9.26526 2.90975C9.47538 3.2473 9.59031 3.62092 9.64329 3.83641L8.75081 3.65516L8.72032 3.64956C8.67541 3.64221 8.53989 3.62092 8.34774 3.62092C7.93474 3.62092 7.1456 3.7245 6.49914 4.41535C6.15438 4.78155 5.9937 5.1663 5.92727 5.50756C5.71182 5.37625 5.59148 5.10803 5.59148 5.10803L5.11027 3.93998L4.32293 4.93506C4.22683 5.06363 3.75193 5.74334 3.88119 6.59788C3.89468 6.68298 3.91621 6.76624 3.93957 6.84853C3.79054 6.7995 3.61634 6.76343 3.42155 6.76343C2.97622 6.76343 2.56505 6.9484 2.23196 7.298C1.77044 7.78353 1.37182 7.83808 1.37546 7.83808C1.37546 7.83808 0.954367 7.91578 0.302574 7.90373L0.743383 8.91642C0.988514 9.47775 1.60076 9.86898 2.23196 9.86898C2.27955 9.86898 2.32531 9.8625 2.37201 9.8579C1.75971 10.3166 1.12675 10.3351 1.05041 10.336L0 10.3008L0.317828 11.3274C0.477652 11.8564 1.01181 12.7331 2.03535 12.8274C1.92399 13.3084 1.6771 13.8466 1.13484 14.0788L0.352856 14.4107L0.779287 15.1756C1.01991 15.5881 1.58463 16.0708 2.38903 16.0708C2.56323 16.0699 2.73109 16.0523 2.89273 16.0172C2.93404 16.2058 2.98608 16.3945 3.04716 16.5813C3.28684 17.3156 3.08036 17.8279 3.07767 17.8335L2.6916 18.6668L3.5535 18.9008C3.5643 18.9044 3.82463 18.9775 4.15055 18.9775C4.2987 18.9775 4.43962 18.9618 4.57252 18.9294C4.67303 18.9054 4.76915 18.873 4.86158 18.8342C4.97292 19.0404 5.10849 19.2281 5.26651 19.3964C5.81868 19.98 6.60067 20.2759 7.5918 20.2759H7.5954L8.30288 20.2667L6.84123 20.8919L7.95094 21.444C8.35404 21.6465 8.83255 21.886 9.31917 22.0691L9.1809 22.4595L9.56337 22.6389C9.59745 22.6545 10.3328 22.994 11.5556 23.0661C11.5556 23.0661 11.851 23.08 12.0134 23.08C12.176 23.08 12.4677 23.0651 12.4677 23.0651C13.6825 22.9912 14.4124 22.6555 14.4465 22.6389L14.8298 22.4585L14.6898 22.0673C15.1908 21.8786 15.6863 21.6299 16.0724 21.4357L17.1614 20.891L15.7043 20.2648L16.4145 20.274C17.4066 20.274 18.1894 19.9782 18.7406 19.3937C18.8978 19.2263 19.0334 19.0385 19.1456 18.8323C19.2381 18.8711 19.335 18.9035 19.4356 18.9276C19.5675 18.9599 19.7085 18.9756 19.8566 18.9756C20.1771 18.9756 20.4402 18.9026 20.4474 18.9008L21.3129 18.6649L20.9358 17.8474C20.9268 17.8261 20.7203 17.3147 20.96 16.5794C21.0211 16.3917 21.0722 16.2031 21.1135 16.0153C21.2761 16.0505 21.4457 16.069 21.6208 16.069C22.6452 16.069 23.1363 15.3263 23.2315 15.1654L23.6534 14.4089L22.8714 14.0778C22.3283 13.8457 22.0823 13.3065 21.9718 12.8265C22.981 12.7378 23.5232 11.861 23.6884 11.3283ZM9.71145 4.19062L9.70076 4.19336L9.70972 4.18138L9.71145 4.19062Z" fill="white"/>
<path d="M11.9996 3.87891C11.2469 3.8796 10.6829 4.09373 10.5596 4.34543L11.9996 4.83891L13.4396 4.34543C13.3171 4.09373 12.753 3.8796 11.9996 3.87891Z" fill="white"/>
<path d="M11.5357 21.2992H11.5339H11.5205H11.5054H11.5045C11.0081 21.3018 10.3252 21.2287 9.99571 21.1602L9.59961 21.9265C9.86074 21.9932 10.7452 22.1202 11.5205 22.1202C12.294 22.1202 13.1794 21.9926 13.4396 21.9265L13.0444 21.1602C12.7141 21.2294 12.032 21.3018 11.5357 21.2992Z" fill="white"/>
<path d="M14.8601 20.1992C14.5467 20.4251 13.8473 20.7639 13.4404 20.9213L13.7821 22.1192C14.4117 21.9005 14.9309 21.6446 15.3604 21.3707L14.6515 21.0703L14.8601 20.1992Z" fill="white"/>
<path d="M9.1402 20.1992L9.34984 21.0703L8.63965 21.3707C9.06841 21.6446 9.59066 21.9005 10.2178 22.1192L10.5596 20.9213C10.1545 20.7639 9.4537 20.4239 9.1402 20.1992Z" fill="white"/>
<path d="M12.4782 3.32546C13.112 3.32546 13.7339 3.52678 14.2117 3.88094C14.2555 3.68567 14.3166 3.44917 14.3996 3.20174L14.2191 3.23086L14.0294 3.2575L13.9491 3.02826L13.7074 2.34907L13.267 2.65473L13.0956 2.77118L12.9588 2.59163L12.4801 1.96094L12.0022 2.59163L11.8654 2.77118L11.694 2.65473L11.2508 2.34907L11.0119 3.02826L10.9298 3.2575L10.7401 3.23086L10.5596 3.20174C10.6426 3.45037 10.7028 3.68567 10.7474 3.88094C11.2262 3.52678 11.8463 3.32546 12.4782 3.32546Z" fill="white"/>
<path d="M21.8453 9.58806C21.9367 9.62297 22.0301 9.63875 22.1225 9.63875C22.5214 9.63875 22.9072 9.35299 23.0402 9.02577C23.0402 9.02577 22.3082 8.97626 21.5215 8.09111C21.2708 7.80423 21.0058 7.71875 20.7784 7.71875C20.4251 7.71875 20.1602 7.92569 20.1602 7.92569C21.1104 8.48585 21.3042 9.3856 21.8453 9.58806Z" fill="white"/>
<path d="M1.87666 9.63875C1.96901 9.63875 2.06242 9.62297 2.15178 9.58806C2.69485 9.3856 2.88975 8.48585 3.83996 7.92569C3.83996 7.92569 3.57393 7.71875 3.22272 7.71875C2.99431 7.71875 2.72934 7.80423 2.47758 8.09111C1.6919 8.97626 0.959961 9.02577 0.959961 9.02577C1.09091 9.35299 1.47768 9.63875 1.87666 9.63875Z" fill="white"/>
<path d="M21.7901 12.6438C21.8048 12.6448 21.8176 12.6448 21.8333 12.6448C22.7344 12.6448 23.0404 11.6578 23.0404 11.6578H23.0229C22.8576 11.6578 21.5172 11.6183 20.5701 10.3871C19.9463 9.57765 19.4355 8.86577 18.4259 8.58597L18.3267 8.56813L18.3047 8.46481C18.2771 8.30697 18.3828 8.15955 18.6226 7.99994C20.0152 7.0674 19.0699 5.87846 19.0699 5.87846C19.0699 5.87846 18.6721 6.82983 17.782 6.82983C17.7608 6.82983 17.7379 6.8289 17.7158 6.8289C17.6148 6.8232 17.5174 6.81941 17.4191 6.79788L17.2546 6.76504C17.2546 6.76504 17.5082 6.05973 16.8964 5.41174C16.4352 4.92248 15.8739 4.83984 15.5496 4.83984C15.3861 4.83984 15.2823 4.8614 15.2823 4.8614C15.59 5.27278 15.8124 5.95455 15.4569 6.37524C15.1501 6.73678 14.4004 6.75467 14.4004 7.29367C14.4004 7.5219 14.6089 7.78862 14.9837 8.02806C16.1109 8.75399 17.2299 9.71661 17.6947 11.007C18.2762 12.6166 17.6212 13.6844 16.6861 14.2967C16.6861 14.2967 16.9791 14.5727 17.4044 14.6075C17.4908 14.616 17.5753 14.6197 17.6543 14.6197C18.5518 14.6197 19.0157 14.1896 19.0157 14.1896C19.0157 14.1896 18.9395 14.7841 18.4719 15.3363C18.041 15.8462 17.4751 16.1458 16.6125 16.1589C16.6125 16.1589 16.5849 16.5684 16.9671 16.9224C17.2115 17.1459 17.7765 17.2191 17.7765 17.2191C17.7765 17.2191 16.7191 17.438 16.6024 19.0345C16.539 19.8994 16.3231 20.1998 16.3231 20.1998H16.3425C18.7962 20.1998 18.7328 18.0484 18.7328 18.0484C18.7328 18.0484 18.9036 18.6851 19.588 18.8513C19.6707 18.8739 19.7589 18.8823 19.8434 18.8823C20.0639 18.8823 20.255 18.8297 20.255 18.8297C20.255 18.8297 19.8967 18.0568 20.2522 16.976C20.5471 16.0791 20.4994 15.4142 20.4994 15.4142C20.4994 15.4142 20.83 15.9251 21.6495 15.9298H21.6578C22.3404 15.9298 22.638 15.401 22.638 15.401C21.0019 14.7071 21.1636 12.4663 21.1636 12.4663C21.1636 12.4663 21.3758 12.6278 21.7901 12.6438ZM21.2976 14.9841C20.6325 14.6488 20.2118 13.7586 20.1099 13.4374C19.9996 15.2029 19.1563 16.4284 18.1705 17.6079C17.6589 18.2193 17.4807 18.8138 17.4807 18.8138C17.4807 18.8138 17.5789 18.1404 18.0217 17.592C18.9413 16.4622 19.815 15.0564 19.8802 13.4308C19.9252 12.2964 19.6395 11.376 19.194 10.6182C19.4429 11.408 19.408 12.3753 18.5619 13.2778C18.5619 13.2778 20.2458 11.2144 17.8913 9.09961C16.9487 8.29482 15.918 7.79801 15.3871 7.44585C17.3052 8.08537 18.2413 7.38102 18.2413 7.38102C17.6285 7.92385 16.8358 7.91446 16.3442 7.8365C16.4775 7.9032 16.6162 7.97266 16.7659 8.0544C18.3828 8.95219 19.8361 10.4294 20.0841 12.4757V12.4597C20.4608 14.4685 21.2976 14.9841 21.2976 14.9841Z" fill="white"/>
<path d="M6.22443 17.2191C6.22443 17.2191 6.78949 17.1468 7.03389 16.9224C7.41512 16.5684 7.38856 16.1589 7.38856 16.1589C6.52492 16.1467 5.95986 15.8462 5.52623 15.3372C5.06221 14.785 4.98506 14.1905 4.98506 14.1905C4.98506 14.1905 5.44898 14.6206 6.34572 14.6206C6.4266 14.6206 6.51021 14.6169 6.59653 14.6084C7.02195 14.5737 7.31594 14.2976 7.31594 14.2976C6.3806 13.6853 5.72468 12.6166 6.30531 11.007C6.77114 9.71754 7.88922 8.75399 9.01661 8.02806C9.39143 7.78862 9.59996 7.52288 9.59996 7.29367C9.59996 6.75467 8.85117 6.73678 8.54428 6.37524C8.1888 5.95455 8.41204 5.27179 8.71889 4.8614C8.71889 4.8614 8.61689 4.83984 8.45241 4.83984C8.12904 4.83984 7.56766 4.92248 7.10646 5.41174C6.49272 6.05973 6.74725 6.76504 6.74725 6.76504L6.58277 6.79788C6.4845 6.81941 6.38614 6.8232 6.28601 6.8289C6.26308 6.8289 6.24282 6.82983 6.2208 6.82983C5.32869 6.82983 4.9327 5.87939 4.9327 5.87939C4.9327 5.87939 3.98728 7.06834 5.37919 8.00083C5.619 8.16048 5.72377 8.308 5.6962 8.46569L5.67409 8.56902L5.57305 8.58686C4.56518 8.86671 4.05345 9.57858 3.42961 10.388C2.48419 11.6174 1.14555 11.6578 0.978398 11.6578H0.959961C0.959961 11.6578 1.26594 12.6448 2.16723 12.6448C2.18194 12.6448 2.19479 12.6448 2.2104 12.6438C2.62475 12.6288 2.8379 12.4663 2.8379 12.4663C2.8379 12.4663 2.99779 14.7061 1.36332 15.401C1.36332 15.401 1.66102 15.9298 2.34363 15.9298H2.35192C3.17233 15.9251 3.5022 15.4142 3.5022 15.4142C3.5022 15.4142 3.45441 16.0791 3.74843 16.976C4.10394 18.0568 3.74748 18.8297 3.74748 18.8297C3.74748 18.8297 3.93859 18.8823 4.15816 18.8823C4.2436 18.8823 4.33091 18.8739 4.41268 18.8513C5.09618 18.6851 5.26802 18.0484 5.26802 18.0484C5.26802 18.0484 5.20553 20.1998 7.65957 20.1998H7.67696C7.67696 20.1998 7.46203 19.8994 7.39954 19.0345C7.28197 17.438 6.22443 17.2191 6.22443 17.2191ZM5.83035 17.6079C4.84451 16.4284 4.00199 15.2029 3.89079 13.4374C3.78885 13.7576 3.36987 14.6488 2.70473 14.9841C2.70473 14.9841 3.54075 14.4685 3.91655 12.4597V12.4757C4.16555 10.4304 5.6181 8.95219 7.23597 8.0544C7.38392 7.97177 7.52447 7.90227 7.6568 7.8365C7.16527 7.91446 6.37238 7.92385 5.75955 7.38102C5.75955 7.38102 6.69576 8.08537 8.61321 7.44585C8.08222 7.79801 7.05224 8.29482 6.10958 9.09961C3.7539 11.2144 5.4389 13.2778 5.4389 13.2778C4.59184 12.3743 4.55787 11.408 4.80682 10.6182C4.36032 11.3769 4.07548 12.2964 4.12142 13.4308C4.18572 15.0564 5.05944 16.4622 5.9773 17.592C6.42111 18.1395 6.52124 18.8138 6.52124 18.8138C6.52124 18.8138 6.34109 18.2193 5.83035 17.6079Z" fill="white"/>
<path d="M10.2674 8.91345C10.306 8.96134 10.3437 9.01317 10.3798 9.06511C10.3885 9.07731 10.3964 9.08854 10.4051 9.10282C10.4385 9.15465 10.4728 9.20962 10.5052 9.26556C10.5122 9.27679 10.5193 9.29 10.5271 9.30327C10.5667 9.37246 10.6035 9.44363 10.6404 9.51693C10.9782 10.1937 11.5197 10.5977 11.9996 10.5988C12.4805 10.5977 13.0202 10.1937 13.3598 9.51693C13.3976 9.44166 13.4353 9.36836 13.4747 9.30018C13.4809 9.29 13.4871 9.28089 13.4923 9.27067C13.5256 9.21271 13.5608 9.15566 13.5976 9.10074C13.6055 9.08854 13.6125 9.07837 13.6195 9.06819C13.6573 9.01423 13.6959 8.96134 13.7354 8.91244C13.7424 8.90429 13.7476 8.8972 13.7538 8.89113C13.9258 8.68653 14.1311 8.53083 14.3996 8.44432L14.2803 8.36394H14.2733L13.7976 8.04337L13.3089 7.71875L12.0031 8.54302L11.9996 8.53999L11.997 8.54302L10.6904 7.71875L10.2025 8.04236L9.726 8.36292H9.72071L9.59961 8.44331C9.869 8.52981 10.0735 8.68349 10.2463 8.88804C10.2542 8.89619 10.2595 8.90535 10.2674 8.91345ZM11.4713 8.84734H12.0242H12.5762V9.28697C12.4463 9.10282 12.1936 9.14043 12.1936 9.14043V9.77443C12.1936 9.77443 12.2032 10.0858 12.2971 10.2212H12.0242H11.7504C11.846 10.0869 11.8549 9.77443 11.8549 9.77443V9.14043C11.8549 9.14043 11.603 9.10282 11.4713 9.28697V8.84734Z" fill="white"/>
<path d="M12.4796 7.71984V5.3512L10.5596 4.83984L11.0664 7.13546L12.4796 7.71984ZM12.067 5.93283V6.31307L11.9739 6.27939C11.9692 6.27655 11.8332 6.25223 11.5947 6.10422C11.2012 5.86449 11.194 5.64344 11.194 5.64344L12.067 5.93283Z" fill="white"/>
<path d="M13.8957 7.13546L14.4005 4.83984L12.4805 5.3512V7.71984L13.8957 7.13546ZM12.8934 5.93283L13.7668 5.64432C13.7668 5.64432 13.7597 5.86542 13.3647 6.1052C13.1273 6.25316 12.99 6.27748 12.9852 6.28032L12.8922 6.314V5.93283H12.8934Z" fill="white"/>
<path d="M10.0047 13.4091C10.1723 13.4673 10.375 13.4795 10.4785 13.4795C10.4828 13.4673 10.4881 13.452 10.4935 13.4336C10.503 13.4041 10.5116 13.3756 10.518 13.3429C10.5468 13.2002 10.5575 13.0382 10.5596 12.9342C10.4891 12.8925 10.3899 12.8181 10.3345 12.707C10.2705 12.5786 10.1797 12.5195 10.0463 12.5195C9.87346 12.5195 9.6878 12.6184 9.60879 12.6652C9.54592 13.0209 9.82008 13.3439 10.0047 13.4091Z" fill="white"/>
<path d="M13.0638 12.5195C12.8031 12.8598 12.293 13.4524 12.2677 13.4827L12.2372 13.5204L10.625 13.49C10.6241 13.6816 10.5979 13.8449 10.5727 13.9642C10.5683 13.9841 10.564 14.0051 10.5596 14.026L12.4778 14.4395C12.6775 14.272 13.2268 13.7905 13.4396 13.602C13.2843 13.3299 13.2695 13.0074 13.3044 12.7802C13.2033 12.7017 13.1257 12.6138 13.0638 12.5195Z" fill="white"/>
<path d="M13.0465 9.64317C12.692 9.99836 12.3518 10.1293 12.0481 10.1596C11.9932 10.1655 11.9374 10.1689 11.8809 10.1689H11.8767H11.8733C11.8168 10.1689 11.7602 10.1655 11.7053 10.1596C11.652 10.1545 11.5963 10.1461 11.5406 10.1336C11.5206 10.2133 11.4956 10.3804 11.5672 10.5383C11.6312 10.6819 11.7619 10.7885 11.9524 10.8591L12.0164 10.8842L12.0173 10.9539C12.0173 10.9749 12.0323 11.4267 12.5207 11.5518C12.6005 11.4687 12.6729 11.394 12.7262 11.3318C12.6263 11.095 12.6787 10.8532 12.8235 10.7347C12.8169 10.7599 12.7536 11.3528 13.2246 11.5728L13.302 11.6098L13.2786 11.6929C13.2711 11.7181 13.1139 12.2916 13.6838 12.5049L13.7845 12.5435L13.7396 12.6426C13.7296 12.6644 13.5058 13.1851 14.0325 13.4806H15.1748V12.5653C14.7688 12.5149 14.5965 12.1858 14.5525 11.9524C14.3636 11.9196 14.2172 11.8373 14.1173 11.703C13.8777 11.3847 14.084 11.0933 14.0865 11.0774C14.0857 11.0799 14.0865 11.3906 14.2762 11.582C14.3702 11.6744 14.4818 11.7458 14.6506 11.7618L14.7338 11.7693L14.7413 11.855C14.743 11.8734 14.7888 12.2933 15.1756 12.3596L15.1748 10.4904C15.1748 10.2007 15.2589 9.90935 15.3595 9.64062H13.0465V9.64317Z" fill="white"/>
<path d="M9.66356 10.9645L9.59961 12.4956L9.878 12.5216L10.5596 11.0529L10.2137 10.6016L9.66356 10.9645Z" fill="white"/>
<path d="M13.4041 17.2037C13.4144 17.2037 13.4263 17.2055 13.4374 17.2082C13.646 17.2714 13.6988 18.0698 14.0649 18.1411C14.1007 18.1492 14.1339 18.1511 14.1629 18.1511C14.2685 18.1511 14.3315 18.1032 14.3996 18.0183C14.3996 18.0183 14.2157 17.7113 14.0777 17.5044C13.8946 17.2335 13.7525 16.9057 13.4118 16.9057C13.4041 16.9057 13.3939 16.9057 13.3854 16.9066C13.273 16.9129 13.204 16.9707 13.204 16.9707C13.066 16.8786 12.9375 16.847 12.8208 16.847C12.6071 16.847 12.441 16.9508 12.3584 16.9508H12.355L11.5937 16.8714C11.4745 16.8597 11.3808 16.7323 11.3468 16.6826C11.3383 16.6691 11.334 16.6609 11.334 16.6609C11.334 16.6393 11.334 16.6167 11.3323 16.5968C11.3067 15.9367 10.8247 15.654 10.6536 15.6495C10.6536 15.6495 10.674 15.5239 10.6272 15.4761L10.4594 15.6919L9.90843 15.3984L10.301 15.8852L9.96803 16.2816C9.92632 16.3268 9.93141 16.3882 9.94846 16.4135L10.0924 16.5481L10.2746 16.4307C10.284 16.4234 10.3002 16.4217 10.3206 16.4217C10.3708 16.4217 10.4466 16.4352 10.5147 16.4352C10.5888 16.4352 10.6536 16.418 10.6612 16.344C10.6382 16.5887 10.4245 17.0141 10.565 17.3482L10.6689 17.6002L9.99615 17.4972L9.68105 18.0616C9.58399 18.2495 9.56867 18.4527 9.66236 18.5629L9.77984 18.7191C9.77984 18.7191 9.94505 18.5331 9.98251 18.4112L9.92884 18.3488C9.88372 18.2965 9.88629 18.2495 9.91356 18.1926L10.1111 17.8449L10.9056 18.0436L10.9474 17.9678C11.001 17.8729 11.0785 17.844 11.1637 17.844C11.1986 17.844 11.2343 17.8485 11.2718 17.8548C11.4192 17.8855 11.6618 17.9271 11.9045 17.9271C12.1711 17.9271 12.4351 17.8765 12.5755 17.7094C12.8634 18.1619 13.4467 18.2342 13.4008 18.4635L13.2475 19.2384C13.3488 19.2339 13.4467 19.2267 13.5395 19.2131L13.6852 18.4066C13.7014 18.319 13.7167 18.2007 13.7167 18.2007C13.6605 18.1402 13.5242 18.012 13.4476 17.8567C13.3445 17.6471 13.4008 17.5379 13.3045 17.2651C13.3079 17.2669 13.3369 17.2037 13.4041 17.2037ZM10.4322 16.0712C10.393 16.0703 10.3649 16.0351 10.3665 15.9935C10.37 15.9538 10.4015 15.9222 10.4398 15.9258C10.479 15.9276 10.5071 15.9638 10.5054 16.0035C10.502 16.0433 10.4696 16.074 10.4322 16.0712Z" fill="white"/>
<path d="M9.67501 18.2803C9.67501 18.2803 9.89923 18.1623 9.91953 18.0777L9.88979 17.982C9.86874 17.9197 9.87164 17.8519 9.91228 17.8147L10.1546 17.6001L10.5596 17.6995C10.5596 17.6995 10.4863 17.5823 10.4936 17.4254L10.1075 17.3203L9.7432 17.6047C9.58717 17.7543 9.57555 17.9987 9.62709 18.1437L9.67501 18.2803Z" fill="white"/>
<path d="M13.4404 19.2412C13.5918 19.238 13.7584 19.2364 13.9417 19.2364C13.9417 19.2364 14.3763 18.5658 14.4004 18.5442C14.1567 18.4875 13.6509 18.346 13.4555 18.2812C13.5843 18.3828 13.8977 18.4995 13.8357 18.589L13.4404 19.2412Z" fill="white"/>
<path d="M15.3596 14.4414H8.63965V17.0879C8.63965 18.17 9.38769 18.8476 10.4914 18.8476C11.4139 18.8476 11.657 18.8848 12.0001 19.2414C12.2364 18.9948 12.4321 18.9026 12.8336 18.868L12.8429 18.8272L13.0547 18.1416C13.0428 18.1265 12.6964 17.7141 12.6964 17.7141C12.5592 17.762 12.444 17.77 12.25 17.77C12.0509 17.77 11.8265 17.746 11.5833 17.6982C11.5587 17.6919 11.5359 17.6902 11.513 17.6902C11.4833 17.6902 11.4808 17.6928 11.4732 17.7079L11.4308 17.7806L11.3537 17.9137L11.2089 17.8791L10.5643 17.7203L10.4761 17.8728L10.4897 17.8888L10.5685 17.9793L10.5338 18.0972C10.4863 18.2516 10.3321 18.4316 10.2856 18.4813L10.1246 18.6622L9.97809 18.468L9.86797 18.3234C9.75187 18.1877 9.72482 17.9793 9.79001 17.7611C9.78829 17.7629 9.78574 17.7638 9.78327 17.7638L9.60114 17.8427L9.51891 17.6565L9.46134 17.5243C9.36227 17.2919 9.39862 16.9523 9.66553 16.7474L10.1848 16.4405L10.6786 16.5425C10.6905 16.4928 10.7082 16.3154 10.7227 16.2702C10.7134 16.2693 10.7041 16.2667 10.6947 16.2667L10.4101 16.3775L10.1356 16.1789C10.1356 16.1789 10.028 16.0707 10.1254 15.9624L10.3914 15.5411L9.71799 14.656L10.7531 15.1012L10.8218 15.0116L10.9615 14.837L11.12 14.9948C11.1648 15.04 11.1902 15.0959 11.2029 15.1518C11.4884 15.268 11.9992 15.6112 12.0441 16.1691L11.884 16.2365V16.241C11.9205 16.2862 11.9509 16.3048 11.9602 16.3066L12.6989 16.3828C12.7176 16.3793 12.7413 16.3705 12.7676 16.3625C12.859 16.3296 12.9971 16.2826 13.1606 16.2826C13.2936 16.2826 13.4223 16.3146 13.546 16.3749C13.5918 16.3571 13.6477 16.3438 13.7121 16.3394L13.7476 16.3385C14.1432 16.3385 14.3397 16.648 14.4973 16.8946C14.5236 16.9372 14.5498 16.978 14.5769 17.0179C14.715 17.2219 14.8954 17.5208 14.9031 17.5331L14.9844 17.6662L14.8844 17.7877C14.8073 17.8809 14.6921 17.9899 14.4939 17.9899C14.4533 17.9899 14.4084 17.9855 14.3601 17.9758C14.3178 17.9678 14.2796 17.9544 14.2424 17.9385C14.2364 17.9793 14.2288 18.0281 14.2211 18.0698L14.0915 18.7775C14.8666 18.578 15.3588 17.9651 15.3588 17.0888L15.3596 14.4414Z" fill="#FFDD2D"/>
<path d="M8.83795 13.4806H14.3996C14.1219 13.2137 14.1256 12.8755 14.1968 12.6555C14.1157 12.6194 14.049 12.5758 13.9895 12.5288C13.7722 12.6782 13.1086 13.1281 12.9355 13.2405L12.8986 13.2641L10.7159 12.8964H10.6717C10.6195 12.8964 10.5428 12.8948 10.459 12.8855C10.4355 12.977 10.3508 13.04 10.2534 13.04C10.2426 13.04 10.23 13.0391 10.2182 13.0366C10.1614 13.0274 10.1119 13.0005 10.0785 12.9561C10.0443 12.9124 10.0308 12.8603 10.0407 12.8066L10.0488 12.763C9.82338 12.6153 9.61603 12.2854 9.70796 11.9379L9.71696 11.901L9.74856 11.88C9.75306 11.8766 9.79089 11.8531 9.84682 11.8229L9.68813 11.8002C9.62864 11.7902 9.58898 11.739 9.59803 11.6844C9.60792 11.629 9.6638 11.5896 9.7224 11.6005L10.1001 11.6559L10.1344 10.417L10.697 9.86302L11.0477 10.5505L10.6771 11.7423L11.0108 11.791C11.0693 11.7994 11.1099 11.8506 11.1009 11.9068C11.0919 11.9563 11.0468 11.9908 10.9936 11.9908C10.9882 11.9908 10.9819 11.9908 10.9764 11.9899L10.7051 11.9488C10.7087 11.9563 10.7141 11.9606 10.7177 11.969C10.7466 12.0243 10.8106 12.0646 10.8484 12.0814L12.5127 12.1058C12.583 12.042 12.758 11.8825 12.9374 11.7138C12.5281 11.5695 12.3793 11.2404 12.354 11.0222C12.1251 10.9315 11.9673 10.7956 11.8798 10.6184C11.7734 10.3994 11.8113 10.1803 11.8392 10.0737C11.6175 9.99816 11.384 9.86056 11.146 9.64062H8.63965C8.74695 9.90924 8.83795 10.2005 8.83795 10.49V13.4806Z" fill="#FFDD2D"/>
<path d="M10.6369 15.3987C10.5965 15.395 10.5624 15.4273 10.5597 15.4681C10.557 15.5106 10.5876 15.5466 10.6289 15.5476C10.6683 15.5513 10.7034 15.5198 10.7069 15.4782C10.7069 15.4375 10.6783 15.3996 10.6369 15.3987Z" fill="#1B1B1E"/>
<path d="M15.5546 20.7699L15.1443 20.6081L15.2574 20.1716L15.3822 19.6953C15.3822 19.6953 14.655 20.1013 13.6306 20.4065C13.3397 20.4924 13.1198 20.5313 13.1198 20.5313V20.855C13.1198 20.855 12.5721 20.953 12.0182 20.953H12.0118H12.0038H11.993H11.9867C11.4328 20.953 10.8851 20.855 10.8851 20.855V20.5313C10.8851 20.5313 10.6642 20.4924 10.3743 20.4065C9.34986 20.1013 8.62357 19.6953 8.62357 19.6953L8.74653 20.1716L8.86235 20.6081L8.45117 20.7699L7.99512 20.9456C8.51853 21.2055 9.24301 21.5847 9.90656 21.7715L9.75031 22.2117C9.75031 22.2117 10.5915 22.6067 11.993 22.6103V22.6113H11.9975H12.0038H12.0092H12.0128V22.6103C13.4161 22.6067 14.2564 22.2117 14.2564 22.2117L14.0992 21.7715C14.7627 21.5847 15.4891 21.2055 16.0098 20.9456L15.5546 20.7699ZM8.4817 20.9753L9.15683 20.744L8.95754 20.0735C9.25468 20.2474 9.92182 20.5082 10.3078 20.6294L9.98195 21.5514C9.38576 21.3821 8.88929 21.1852 8.4817 20.9753ZM12.0038 22.3791C11.22 22.3791 10.3249 22.1933 10.0619 22.097L10.4622 20.9808C10.7944 21.0806 11.4858 21.187 11.9876 21.1833H11.9885H12.0038H12.0172H12.0191C12.521 21.187 13.2104 21.0806 13.5444 20.9808L13.9439 22.097C13.6809 22.1942 12.7867 22.3791 12.0038 22.3791ZM14.0238 21.5514L13.6989 20.6294C14.0858 20.5082 14.751 20.2474 15.0491 20.0735L14.8507 20.744L15.525 20.9753C15.1164 21.1852 14.6226 21.3821 14.0238 21.5514Z" fill="#1B1B1E"/>
<path d="M12.0025 3.34772C12.8375 3.34772 13.5054 3.63254 13.8744 3.93682C13.8744 3.93682 13.9839 3.25709 14.3583 2.65686L13.6858 2.73551L13.3339 1.96509L12.6579 2.32394L12.0025 1.65625L11.3489 2.32394L10.672 1.96509L10.3209 2.73551L9.64844 2.65686C10.0228 3.25709 10.1324 3.93682 10.1324 3.93682C10.5022 3.63254 11.1684 3.34772 12.0025 3.34772ZM10.2903 3.00554L10.4771 3.02586L10.5579 2.85112L10.7931 2.33318L11.2295 2.56533L11.3983 2.65413L11.5329 2.51722L12.0034 2.03632L12.4747 2.51722L12.6094 2.65413L12.7782 2.56533L13.2119 2.33318L13.4498 2.85112L13.5287 3.02586L13.7155 3.00554L13.8932 2.98334C13.8115 3.17292 13.7514 3.35234 13.7082 3.50123C13.2378 3.23119 12.6255 3.07768 12.0016 3.07768C11.3803 3.07768 10.7689 3.23119 10.2966 3.50123C10.2527 3.35234 10.1934 3.17201 10.1117 2.98334L10.2903 3.00554Z" fill="#1B1B1E"/>
<path d="M21.7984 12.3688C22.8785 12.3688 23.2394 11.2369 23.2546 11.1888L23.3749 10.7902L22.97 10.8031H22.9683C22.8255 10.8031 21.6341 10.7708 20.7893 9.66469L20.7094 9.56202C20.1572 8.8388 19.6338 8.15166 18.6983 7.83812C18.7252 7.81319 18.7638 7.78173 18.8168 7.74658C19.3133 7.40995 19.6024 7.0012 19.6751 6.5268C19.7811 5.81283 19.3393 5.24403 19.3196 5.22091L19.0188 4.83805L18.8312 5.29214C18.8186 5.32078 18.5026 6.04771 17.8382 6.04771H17.7888C17.7431 6.0449 17.6999 6.04306 17.6569 6.03938C17.6802 5.71476 17.6227 5.21258 17.181 4.7419C16.6504 4.17493 15.9986 4.08984 15.6575 4.08984C15.4752 4.08984 15.3541 4.11302 15.3414 4.11484L14.8872 4.20735L15.1673 4.58741C15.3872 4.88057 15.5865 5.42162 15.3504 5.7046C15.275 5.79434 15.1197 5.86739 14.9706 5.94044C14.6645 6.08566 14.247 6.28723 14.247 6.80147C14.247 7.13437 14.4975 7.48208 14.9518 7.77804C16.2967 8.64924 17.1262 9.55829 17.4845 10.5617C18.0384 12.1053 17.3157 12.9857 16.6136 13.449L16.2985 13.658L16.5741 13.9188C16.6109 13.9521 16.9485 14.2582 17.4468 14.3026C17.5411 14.3091 17.6317 14.3147 17.7161 14.3147C18.0357 14.3147 18.3078 14.2628 18.5286 14.1935C18.4675 14.3036 18.393 14.4154 18.2988 14.5283C17.8975 15.0074 17.4037 15.2256 16.6935 15.2367L16.4295 15.2413L16.4089 15.5141C16.4062 15.5687 16.3865 16.0746 16.8515 16.5046C16.9225 16.5712 17.0086 16.6258 17.0984 16.6711C16.7833 16.9633 16.4628 17.4719 16.4009 18.3441C16.3488 19.0719 16.18 19.341 16.1782 19.3438L15.8864 19.8025L16.4134 19.8099C17.2843 19.8099 17.9514 19.562 18.4137 19.0719C18.6866 18.7815 18.8429 18.4541 18.9353 18.1637C19.0871 18.2969 19.2828 18.4135 19.5378 18.4754C19.6347 18.4985 19.7407 18.5115 19.8547 18.5115C20.1007 18.5115 20.3063 18.4578 20.3296 18.4523L20.6663 18.3598L20.5173 18.0361C20.5065 18.0102 20.2255 17.3609 20.528 16.4343C20.6582 16.0339 20.7246 15.675 20.7569 15.3957C20.9688 15.5095 21.2526 15.6038 21.6197 15.6048C22.4529 15.6048 22.8201 14.9639 22.8372 14.937L23.0015 14.643L22.6971 14.5135C21.7042 14.089 21.4842 12.9487 21.4402 12.3309C21.53 12.3485 21.6323 12.3652 21.7481 12.3688H21.7984ZM22.5858 14.7863C22.5858 14.7863 22.2949 15.307 21.6278 15.307H21.6197C20.8189 15.3023 20.4957 14.7992 20.4957 14.7992C20.4957 14.7992 20.5424 15.454 20.2533 16.3373C19.9058 17.4017 20.256 18.1628 20.256 18.1628C20.256 18.1628 20.0692 18.2146 19.8538 18.2146C19.7712 18.2146 19.685 18.2062 19.6042 18.184C18.9354 18.0204 18.7684 17.3934 18.7684 17.3934C18.7684 17.3934 18.8303 19.5121 16.4322 19.5121H16.4134C16.4134 19.5121 16.6244 19.2162 16.6872 18.3644C16.8012 16.7922 17.8347 16.5767 17.8347 16.5767C17.8347 16.5767 17.2834 16.5055 17.0445 16.2845C16.671 15.9358 16.6971 15.5326 16.6971 15.5326C17.5411 15.5206 18.0932 15.2247 18.5143 14.7225C18.9704 14.1787 19.0458 13.5933 19.0458 13.5933C19.0458 13.5933 18.5923 14.0168 17.7152 14.0168C17.638 14.0168 17.5554 14.0131 17.471 14.0048C17.0562 13.9706 16.7689 13.6987 16.7689 13.6987C17.682 13.0957 18.3231 12.0433 17.7547 10.4581C17.2996 9.1884 16.206 8.23952 15.1053 7.52468C14.739 7.28879 14.5352 7.0271 14.5352 6.80147C14.5352 6.27063 15.2678 6.25393 15.5686 5.89701C15.9151 5.48262 15.6978 4.81032 15.3971 4.40617C15.3971 4.40617 15.4985 4.38488 15.6584 4.38488C15.9753 4.38488 16.5238 4.46717 16.9745 4.94808C17.5734 5.5862 17.3246 6.28075 17.3246 6.28075L17.4854 6.31313C17.5815 6.33443 17.6766 6.33811 17.7754 6.34275C17.7969 6.34275 17.8185 6.34367 17.84 6.34367C18.71 6.34367 19.0987 5.40678 19.0987 5.40678C19.0987 5.40678 20.0235 6.57855 18.6624 7.49597C18.428 7.65315 18.3248 7.79842 18.3518 7.95377L18.3733 8.05552L18.4702 8.07309C19.4569 8.34863 19.9561 9.04967 20.5657 9.84685C21.4913 11.0593 22.8013 11.0981 22.9628 11.0981H22.9799C22.9799 11.0981 22.6809 12.0701 21.8002 12.0701C21.7858 12.0701 21.7733 12.0701 21.758 12.0692C21.3531 12.0544 21.1457 11.8944 21.1457 11.8944C21.1457 11.8944 20.9868 14.1019 22.5858 14.7863Z" fill="#1B1B1E"/>
<path d="M19.9012 7.95723C20.3042 8.17821 20.5386 8.47417 20.7442 8.73688C20.9462 8.99305 21.1383 9.23989 21.4381 9.34256C21.545 9.38051 21.6581 9.39808 21.773 9.39808C22.2237 9.39808 22.6762 9.11413 22.8477 8.7211L23.0201 8.32711L22.6026 8.30126C22.5828 8.30029 22.046 8.25034 21.448 7.62055C21.202 7.36258 20.9048 7.22656 20.5843 7.22656C20.1929 7.22656 19.9029 7.42818 19.8706 7.44856L19.4863 7.72695L19.9012 7.95723ZM20.5852 7.52441C20.7863 7.52441 21.0207 7.59465 21.2425 7.8305C21.9382 8.55835 22.5855 8.59902 22.5855 8.59902C22.4679 8.86724 22.1268 9.10304 21.7739 9.10304C21.6922 9.10304 21.6105 9.09011 21.5288 9.06146C21.0503 8.89498 20.8788 8.15512 20.0376 7.69457C20.0376 7.69457 20.2728 7.52441 20.5852 7.52441Z" fill="#1B1B1E"/>
<path d="M20.0904 11.889V11.9039C19.8481 9.8896 18.4277 8.43485 16.8476 7.54976C16.7013 7.46931 16.5666 7.40091 16.4355 7.33522C16.9167 7.41195 17.6915 7.42119 18.2895 6.88672C18.2895 6.88672 17.3746 7.58031 15.5 6.95052C16.019 7.29732 17.0272 7.78657 17.9474 8.57911C20.2485 10.6618 18.6019 12.6936 18.6019 12.6936C19.4288 11.8049 19.4629 10.8523 19.2196 10.0746C19.655 10.8209 19.9334 11.7272 19.8902 12.8444C19.8265 14.4452 18.9727 15.8296 18.074 16.9422C17.6422 17.4823 17.5452 18.1455 17.5452 18.1455C17.5452 18.1455 17.7194 17.56 18.2194 16.9579C19.1828 15.7964 20.006 14.5895 20.1138 12.8509C20.2135 13.1662 20.6238 14.0439 21.2747 14.374C21.2764 14.375 20.4585 13.8672 20.0904 11.889Z" fill="#1B1B1E"/>
<path d="M7.82734 19.3399C7.82645 19.3371 7.65947 19.068 7.60564 18.3401C7.5428 17.468 7.22312 16.9594 6.90712 16.6672C6.99871 16.6228 7.08307 16.5682 7.15403 16.5007C7.6182 16.0706 7.59841 15.5647 7.5957 15.5102L7.57777 15.2374L7.312 15.2327C6.60368 15.2208 6.10893 15.0025 5.70764 14.5244C5.61428 14.4115 5.53888 14.2996 5.47782 14.1896C5.69863 14.2589 5.96888 14.3107 6.28941 14.3107C6.37563 14.3107 6.46452 14.3052 6.55877 14.2987C7.05702 14.2543 7.39463 13.9491 7.43231 13.9149L7.70792 13.6541L7.39281 13.4451C6.68804 12.9808 5.96799 12.1004 6.52105 10.5578C6.87925 9.55438 7.70792 8.64533 9.05464 7.77414C9.50896 7.47817 9.7576 7.13046 9.7576 6.79756C9.7576 6.28332 9.34104 6.08079 9.03489 5.93653C8.88584 5.86348 8.73057 5.79043 8.65517 5.70069C8.41812 5.41863 8.61829 4.87666 8.83738 4.58351L9.1193 4.20338L8.6632 4.11093C8.64976 4.10905 8.53034 4.08594 8.3472 4.08594C8.006 4.08594 7.35603 4.17102 6.82449 4.73793C6.38189 5.20959 6.32358 5.71177 6.34599 6.03548C6.3029 6.03916 6.25981 6.041 6.2149 6.0438H6.16644C5.50027 6.0438 5.18516 5.31687 5.1726 5.28823L4.98489 4.83415L4.68145 5.21701C4.66441 5.24012 4.22092 5.8098 4.32864 6.52289C4.40046 6.99729 4.68953 7.40605 5.18601 7.74267C5.23988 7.77782 5.2776 7.80928 5.30453 7.83421C4.36995 8.14775 3.84741 8.83582 3.29524 9.55903L3.21533 9.6617C2.37144 10.7678 1.17734 10.8001 1.03459 10.8001L0.62793 10.7871L0.751787 11.1858C0.76616 11.2339 1.12618 12.3659 2.2071 12.3659L2.2592 12.364C2.3732 12.3602 2.47559 12.3446 2.56717 12.3261C2.52223 12.9429 2.30227 14.0832 1.30841 14.5086L1.00496 14.6381L1.1693 14.9322C1.18544 14.9591 1.55355 15.5999 2.38846 15.5999C2.75299 15.599 3.03667 15.5047 3.24948 15.3909C3.2818 15.6702 3.34822 16.0291 3.47842 16.4295C3.78099 17.3562 3.49907 18.0054 3.48827 18.0313L3.33925 18.3549L3.67685 18.4474C3.69926 18.453 3.90667 18.5066 4.15174 18.5066C4.26668 18.5066 4.37265 18.4936 4.46783 18.4706C4.7237 18.4086 4.92117 18.292 5.07107 18.1589C5.16266 18.4493 5.3198 18.7766 5.59187 19.0671C6.05506 19.5572 6.72123 19.8051 7.59215 19.8051L8.12004 19.7977L7.82734 19.3399ZM7.57236 19.5091C5.17433 19.5091 5.23544 17.3904 5.23544 17.3904C5.23544 17.3904 5.06845 18.0174 4.39958 18.181C4.31967 18.2033 4.23435 18.2116 4.15086 18.2116C3.93542 18.2116 3.74954 18.1598 3.74954 18.1598C3.74954 18.1598 4.09788 17.3987 3.75042 16.3342C3.46316 15.451 3.50987 14.7962 3.50987 14.7962C3.50987 14.7962 3.18752 15.2993 2.38582 15.304H2.37772C1.71067 15.304 1.41978 14.7833 1.41978 14.7833C3.01784 14.0998 2.86071 11.8932 2.86071 11.8932C2.86071 11.8932 2.65336 12.0523 2.24753 12.068C2.23315 12.069 2.21972 12.069 2.20534 12.069C1.32367 12.069 1.02561 11.097 1.02561 11.097H1.04357C1.20609 11.097 2.51419 11.0582 3.43981 9.8457C4.04942 9.04857 4.54948 8.34845 5.53435 8.0719L5.63309 8.05432L5.6547 7.95262C5.68164 7.79723 5.57926 7.65205 5.34496 7.49483C3.98388 6.57644 4.90861 5.40567 4.90861 5.40567C4.90861 5.40567 5.29557 6.34156 6.16733 6.34156C6.18885 6.34156 6.20864 6.34064 6.23105 6.34064C6.3289 6.33512 6.42591 6.33139 6.52105 6.31014L6.68178 6.27776C6.68178 6.27776 6.43305 5.58321 7.03279 4.94514C7.48352 4.46327 8.03205 4.38189 8.34805 4.38189C8.50877 4.38189 8.60844 4.40318 8.60844 4.40318C8.3086 4.80824 8.09133 5.47963 8.43782 5.89398C8.73771 6.25002 9.46942 6.26759 9.46942 6.79843C9.46942 7.02319 9.26565 7.2858 8.89937 7.52164C7.7977 8.23653 6.70423 9.18542 6.24991 10.4552C5.68253 12.0403 6.32265 13.0918 7.2375 13.6957C7.2375 13.6957 6.95021 13.9676 6.53454 14.0018C6.45014 14.0101 6.36844 14.0138 6.28941 14.0138C5.41317 14.0138 4.95978 13.5903 4.95978 13.5903C4.95978 13.5903 5.03517 14.1757 5.4886 14.7195C5.91235 15.2217 6.46452 15.5176 7.30845 15.5296C7.30845 15.5296 7.33539 15.9328 6.96188 16.2815C6.72221 16.5016 6.17088 16.5737 6.17088 16.5737C6.17088 16.5737 7.20519 16.7893 7.31831 18.3614C7.38025 19.2132 7.58944 19.5091 7.58944 19.5091H7.57236Z" fill="#1B1B1E"/>
<path d="M2.23159 9.40102C2.34741 9.40102 2.46053 9.38345 2.56732 9.34555C2.86901 9.24288 3.06023 8.99595 3.26223 8.73977C3.46876 8.47716 3.70128 8.18124 4.10436 7.96021L4.51918 7.73086L4.13399 7.45246C4.10166 7.43117 3.81258 7.23047 3.42206 7.23047C3.10065 7.23047 2.80259 7.36552 2.55746 7.62446C1.95953 8.25337 1.42355 8.3042 1.40378 8.30512L0.986328 8.3301L1.15783 8.72501C1.33015 9.11619 1.78175 9.40102 2.23159 9.40102ZM2.76305 7.83344C2.98571 7.59764 3.22005 7.52735 3.42206 7.52735C3.73267 7.52735 3.96789 7.69751 3.96789 7.69751C3.12758 8.15902 2.9552 8.89792 2.47485 9.0644C2.39588 9.0931 2.31327 9.10607 2.23159 9.10607C1.87873 9.10607 1.53756 8.8711 1.42086 8.60196C1.42086 8.60108 2.06725 8.56037 2.76305 7.83344Z" fill="#1B1B1E"/>
<path d="M4.11579 12.8444C4.07091 11.7272 4.34925 10.8209 4.78554 10.0746C4.54223 10.8523 4.57547 11.8049 5.40325 12.6937C5.40325 12.6937 3.75665 10.6618 6.05859 8.5791C6.97979 7.78657 7.98712 7.29731 8.50516 6.95052C6.63144 7.58031 5.71655 6.88672 5.71655 6.88672C6.31446 7.42128 7.08931 7.41199 7.57057 7.3343C7.44037 7.39999 7.30387 7.46843 7.15929 7.54889C5.57743 8.43393 4.15797 9.88868 3.91466 11.9029V11.8872C3.54749 13.8653 2.73047 14.3731 2.73047 14.3731C3.3805 14.0429 3.78992 13.1662 3.88955 12.8499C3.99821 14.5885 4.82144 15.7955 5.7848 16.957C6.28487 17.5591 6.46086 18.1445 6.46086 18.1445C6.46086 18.1445 6.36301 17.4814 5.92937 16.9413C5.03245 15.8306 4.17863 14.4452 4.11579 12.8444Z" fill="#1B1B1E"/>
<path d="M11.4609 8.76953V9.16904C11.5947 9.00165 11.8533 9.03583 11.8533 9.03583V9.61198C11.8533 9.61198 11.8443 9.89497 11.7465 10.018H12.0266H12.3058C12.2097 9.89598 12.1998 9.61198 12.1998 9.61198V9.03583C12.1998 9.03583 12.4584 9.00165 12.5913 9.16904V8.76953H12.0266H11.4609Z" fill="#1B1B1E"/>
<path d="M11.2206 6.4003C11.3992 6.54639 11.5025 6.5705 11.5061 6.57321L11.5761 6.60656V6.23014L10.9189 5.94531C10.9189 5.94623 10.9252 6.16354 11.2206 6.4003Z" fill="#1B1B1E"/>
<path d="M12.7843 6.4003C13.0815 6.16354 13.0868 5.94531 13.0868 5.94531L12.4297 6.23014V6.60656L12.4988 6.57321C12.5033 6.5705 12.6056 6.54639 12.7843 6.4003Z" fill="#1B1B1E"/>
<path d="M13.9682 4.86909C13.9682 4.29848 13.0353 3.78516 12.0056 3.78516H12.0047H12.002H11.9993C10.9695 3.78516 10.0367 4.29848 10.0367 4.86909L10.0574 5.00965L10.4685 7.44098L10.0556 7.68791L8.98717 8.33067H8.9908C8.9908 8.33067 8.7502 8.45735 8.63882 8.53592C8.23216 8.82728 8.14598 9.25177 8.38206 9.42749C8.44046 9.08162 8.70618 8.71904 9.20354 8.71904C9.56179 8.71904 9.8347 8.90962 10.0556 9.19533C10.1121 9.2675 10.166 9.34423 10.2163 9.42749C10.2782 9.532 10.3401 9.62354 10.4021 9.71232H7.65039C7.85239 10.1312 8.04449 10.5752 8.04449 11.057V17.3309C8.04449 18.8495 9.17842 19.5746 10.4048 19.5746C11.3529 19.5746 11.4804 19.5302 12.0038 20.0666C12.5245 19.5293 12.652 19.5746 13.601 19.5746C14.8283 19.5746 15.9604 18.8495 15.9604 17.3309V11.057C15.9604 10.5752 16.1526 10.1312 16.3554 9.71232H13.6028C13.6638 9.62451 13.7258 9.532 13.7877 9.42749C13.8389 9.34423 13.8918 9.2675 13.9475 9.19533C14.1702 8.90866 14.4422 8.71904 14.8004 8.71904C15.2978 8.71904 15.5627 9.0807 15.6219 9.42749C15.8581 9.25177 15.7727 8.82728 15.3633 8.53592C15.2538 8.45735 15.0132 8.33067 15.0132 8.33067H15.0168L13.9484 7.68791L13.5372 7.44098L13.9484 5.00965L13.9682 4.86909ZM10.4416 5.15209L11.8871 5.65701V7.99583L10.8232 7.41789L10.4416 5.15209ZM10.7406 10.1202C10.9776 10.3634 11.2102 10.5142 11.431 10.5974C11.4022 10.7148 11.3646 10.9571 11.4714 11.1985C11.5585 11.3927 11.7165 11.5425 11.9436 11.6424C11.9688 11.8829 12.116 12.2445 12.5245 12.4045C12.3459 12.5904 12.1717 12.7651 12.1007 12.8363L10.4443 12.8095C10.4066 12.7901 10.3428 12.7466 10.3142 12.6847C10.3105 12.6764 10.3052 12.6718 10.3025 12.6625L10.5727 12.7078C10.579 12.7088 10.5843 12.7088 10.5898 12.7088C10.6418 12.7088 10.6876 12.6718 10.6966 12.6163C10.7056 12.5543 10.6652 12.4979 10.6068 12.4887L10.2746 12.435L10.6436 11.1227L10.2944 10.3652L9.73419 10.9756L9.70002 12.3407L9.32389 12.2796C9.26549 12.2676 9.20984 12.312 9.19999 12.3721C9.19098 12.4322 9.23048 12.4887 9.28972 12.4997L9.44774 12.5247C9.39121 12.558 9.35442 12.5839 9.34989 12.5876L9.31754 12.6107L9.30858 12.6514C9.21703 13.0343 9.4244 13.3977 9.64801 13.5605L9.63989 13.6086C9.63092 13.6678 9.64348 13.7251 9.67761 13.7732C9.70991 13.8222 9.76019 13.8518 9.81584 13.862C9.82755 13.8638 9.84007 13.8647 9.8509 13.8647C9.94781 13.8647 10.0323 13.7954 10.0565 13.6946C10.14 13.7048 10.2163 13.7066 10.2683 13.7066H10.3124L12.4859 14.1108L12.5227 14.0858C12.696 13.961 13.3559 13.4652 13.5722 13.3016C13.6315 13.3543 13.6979 13.4024 13.7787 13.4421C13.7087 13.6844 13.7042 14.0571 13.9817 14.3512H8.44223V11.058C8.44223 10.7389 8.35157 10.418 8.24471 10.122H10.7406V10.1202ZM13.4268 13.1332C13.2069 13.2997 12.6412 13.7251 12.4365 13.8731L10.4614 13.5078C10.4659 13.4893 10.4703 13.4717 10.4749 13.4532C10.5009 13.3478 10.5269 13.2035 10.5287 13.0343L12.1887 13.062L12.2202 13.0287C12.2453 13.0028 12.7714 12.4794 13.0399 12.1779C13.1036 12.2602 13.1835 12.3388 13.2876 12.4082C13.2517 12.6079 13.267 12.8928 13.4268 13.1332ZM10.1202 12.7809C10.1669 12.8817 10.2513 12.9492 10.3097 12.9871C10.3078 13.0815 10.2989 13.2285 10.2746 13.3579C10.2692 13.3867 10.2621 13.4135 10.254 13.4403C10.2495 13.4569 10.245 13.4708 10.2414 13.4819C10.1543 13.4819 9.98282 13.4708 9.84277 13.4181C9.6875 13.3589 9.45586 13.0657 9.50969 12.743C9.57705 12.7004 9.73237 12.6107 9.87783 12.6107C9.99006 12.6098 10.0663 12.6643 10.1202 12.7809ZM9.91462 12.3749L9.94781 11.0644L10.2333 10.7528L10.4129 11.1393L10.0592 12.3971L9.91462 12.3749ZM13.4089 19.1685C13.3011 19.1685 13.2014 19.1704 13.1117 19.1741L13.3469 18.4204C13.3837 18.3159 13.1978 18.1818 13.1215 18.0644C13.2373 18.1392 13.5372 18.303 13.6818 18.3686C13.6665 18.3927 13.4089 19.1685 13.4089 19.1685ZM14.1468 18.3122L13.9933 19.1371C13.8955 19.151 13.7913 19.1584 13.6845 19.163L13.8461 18.3695C13.8945 18.1337 13.2796 18.0607 12.9761 17.5973C12.828 17.7693 12.5488 17.8202 12.2687 17.8202C12.0128 17.8202 11.7569 17.7777 11.6016 17.7462C11.5621 17.7397 11.5243 17.7351 11.4876 17.7351C11.3978 17.7351 11.316 17.7638 11.2595 17.8618L11.2146 17.9395L10.377 17.7361L10.1687 18.0912C10.1391 18.1485 10.1373 18.1975 10.1849 18.2512L10.2414 18.315C10.2028 18.4407 10.0287 18.6303 10.0287 18.6303L9.90388 18.4704C9.80505 18.3566 9.82125 18.1494 9.92451 17.9571L10.2567 17.3791L10.966 17.4845L10.8555 17.2255C10.7074 16.8834 10.9327 16.4478 10.957 16.1971C10.9489 16.273 10.8815 16.2896 10.8025 16.2896C10.7307 16.2896 10.6508 16.2758 10.5978 16.2758C10.5772 16.2758 10.5592 16.2776 10.5494 16.285L10.3572 16.4052L10.2055 16.2675C10.1875 16.2406 10.1813 16.1786 10.2261 16.1324L10.5772 15.7274L10.1625 15.2289L10.7433 15.5294L10.9201 15.3084C10.9687 15.3574 10.948 15.486 10.948 15.486C11.1294 15.4906 11.6375 15.78 11.6644 16.4552C11.6662 16.4755 11.6662 16.4986 11.6662 16.5208C11.6662 16.5208 11.6707 16.5292 11.6797 16.543C11.7156 16.5939 11.8143 16.7243 11.94 16.7363L12.7427 16.8177H12.7462C12.8343 16.8177 13.0093 16.7114 13.2337 16.7114C13.3559 16.7114 13.4923 16.7437 13.6378 16.838C13.6378 16.838 13.7105 16.7789 13.829 16.7724C13.838 16.7715 13.8479 16.7715 13.8569 16.7715C14.2169 16.7715 14.3659 17.1062 14.5589 17.3846C14.7044 17.5964 14.8983 17.9108 14.8983 17.9108C14.8265 17.9987 14.76 18.0468 14.6487 18.0468C14.6182 18.0468 14.5832 18.044 14.5454 18.0366C14.1594 17.9635 14.1038 17.146 13.8838 17.0813C13.8721 17.0776 13.8596 17.0766 13.8488 17.0766C13.7778 17.0766 13.7465 17.1414 13.7465 17.1414C13.8469 17.4198 13.7886 17.5326 13.8964 17.7471C13.9771 17.9062 14.1208 18.0375 14.18 18.0995C14.18 18.1013 14.1639 18.2216 14.1468 18.3122ZM9.83652 17.5316L9.8733 17.6269C9.84908 17.7102 9.5708 17.8285 9.5708 17.8285L9.51058 17.6935C9.44685 17.5493 9.4603 17.306 9.65427 17.1571L10.1049 16.8741L10.5826 16.9786C10.5736 17.1349 10.6643 17.2514 10.6643 17.2514L10.1633 17.1525L9.86345 17.3661C9.81318 17.4022 9.80958 17.4697 9.83652 17.5316ZM14.2223 19.0918L14.3596 18.3538C14.3668 18.3103 14.3758 18.2595 14.3821 18.217C14.4207 18.2336 14.462 18.2474 14.5068 18.2558C14.558 18.2659 14.6056 18.2706 14.6487 18.2706C14.8588 18.2706 14.9809 18.1568 15.0626 18.0598L15.1685 17.933L15.0824 17.7943C15.0743 17.7804 14.8839 17.4697 14.7367 17.257C14.708 17.2154 14.6801 17.1737 14.6523 17.1284C14.4853 16.8714 14.2761 16.5486 13.8569 16.5486L13.8192 16.5495C13.75 16.5541 13.6908 16.568 13.6432 16.5865C13.5112 16.5227 13.3756 16.4903 13.2346 16.4903C13.0614 16.4903 12.915 16.5393 12.8181 16.5735C12.7903 16.5819 12.7651 16.5911 12.7454 16.5948L11.9616 16.5153C11.9517 16.5134 11.9194 16.494 11.8808 16.4459V16.4423L12.0505 16.3719C12.0029 15.7903 11.4606 15.4323 11.1581 15.3112C11.1446 15.2529 11.1177 15.1946 11.0701 15.1475L10.9013 14.9829L10.7531 15.166L10.6805 15.2594L9.58335 14.7951L10.2971 15.7181L10.0152 16.1574C9.91191 16.2702 10.026 16.383 10.026 16.383L10.3168 16.5892L10.6185 16.4737C10.6292 16.4737 10.6383 16.4764 10.6481 16.4774C10.6338 16.5246 10.6149 16.7095 10.6023 16.7613L10.0789 16.6549L9.52855 16.9749C9.24574 17.1886 9.20714 17.5428 9.31222 17.785L9.37323 17.9229L9.4603 18.117L9.65245 18.0347C9.65515 18.0339 9.65786 18.0329 9.65959 18.0311C9.5905 18.2586 9.61837 18.475 9.74222 18.6174L9.85893 18.769L10.0143 18.9716L10.1849 18.7829C10.2351 18.7311 10.3976 18.5434 10.4479 18.3825L10.4847 18.2595L10.4012 18.1651L10.3878 18.1485L10.4812 17.9894L11.1643 18.155L11.3179 18.191L11.3996 18.0524L11.4445 17.9765C11.4525 17.9608 11.4552 17.958 11.4867 17.958C11.5109 17.958 11.5351 17.9608 11.5612 17.9663C11.8188 18.0163 12.0567 18.0412 12.2677 18.0412C12.4724 18.0412 12.5945 18.0329 12.7409 17.9829C12.7409 17.9829 13.1081 18.4121 13.1206 18.4288L12.8962 19.1426L12.8863 19.1862C12.4608 19.2213 12.2534 19.3174 12.0029 19.5755C11.6393 19.2037 11.3816 19.1649 10.4039 19.1649C9.23407 19.1649 8.44134 18.4583 8.44134 17.33V14.5713H15.5627L15.5645 17.33C15.5653 18.2456 15.0437 18.8838 14.2223 19.0918ZM15.762 10.1202C15.6534 10.4161 15.5627 10.737 15.5627 11.0561L15.5636 13.1147C15.1461 13.0426 15.0967 12.5793 15.0949 12.5589L15.0868 12.4646L14.9971 12.4563C14.8157 12.4387 14.6954 12.3592 14.594 12.2574C14.3892 12.0466 14.3883 11.7044 14.3892 11.7016C14.3866 11.7192 14.1639 12.0401 14.4225 12.3906C14.5311 12.5386 14.6882 12.6292 14.892 12.6652C14.9396 12.9223 15.1254 13.2849 15.5636 13.3403V14.3484H14.3318C13.7635 14.0229 14.0041 13.4495 14.0157 13.4254L14.0642 13.3163L13.9556 13.2738C13.3406 13.0389 13.5094 12.4064 13.5184 12.3795L13.5435 12.287L13.46 12.2463C12.9518 12.004 13.021 11.3502 13.0273 11.3234C12.8711 11.4538 12.8145 11.7201 12.9222 11.9809C12.8639 12.0494 12.7858 12.1326 12.7005 12.2232C12.1744 12.0854 12.1583 11.5869 12.1583 11.5638L12.1573 11.487L12.0882 11.4593C11.8826 11.3807 11.7416 11.2632 11.6725 11.1051C11.5944 10.9303 11.6222 10.7472 11.6438 10.6594C11.7039 10.6732 11.7641 10.6834 11.8215 10.688C11.8808 10.6945 11.9418 10.6982 12.0029 10.6982H12.0065H12.011C12.072 10.6982 12.1322 10.6945 12.1914 10.688C12.5191 10.6547 12.8863 10.5095 13.2688 10.1193H15.762V10.1202ZM13.8425 8.03935L14.3291 8.33067H14.3363L14.4584 8.40371C14.1837 8.48237 13.9736 8.62382 13.7976 8.80971C13.7913 8.81528 13.7851 8.82264 13.7787 8.82917C13.7383 8.87356 13.6979 8.92158 13.6602 8.97062C13.6531 8.97986 13.6459 8.99003 13.6378 9.00024C13.6001 9.05015 13.5651 9.10103 13.5309 9.15466C13.5256 9.16391 13.5193 9.17316 13.513 9.18148C13.4726 9.24344 13.434 9.31005 13.3954 9.3785C13.0488 9.99347 12.4958 10.3606 12.0038 10.3616C11.5127 10.3606 10.9597 9.99347 10.6131 9.3785C10.5754 9.31189 10.5377 9.24717 10.4973 9.18429C10.4892 9.17224 10.482 9.16018 10.4749 9.15002C10.4407 9.09919 10.4066 9.04928 10.3716 9.00208C10.3626 8.98911 10.3545 8.97894 10.3456 8.9679C10.3078 8.92066 10.2692 8.87356 10.2306 8.83004C10.2226 8.82356 10.2172 8.81528 10.2091 8.80787C10.0323 8.62198 9.82303 8.48136 9.54741 8.40371L9.67131 8.33067H9.67668L10.1633 8.03935L10.6634 7.7443L11.9993 8.49341L12.002 8.49061L12.0056 8.49341L13.3415 7.7443L13.8425 8.03935ZM13.1835 7.41881L12.1187 7.99675V5.65701L13.5633 5.15209L13.1835 7.41881ZM12.0029 5.39993L10.4192 4.7553C10.5539 4.42699 11.1751 4.14771 12.0029 4.14679C12.8316 4.14771 13.4528 4.42699 13.5866 4.7553L12.0029 5.39993Z" fill="#1B1B1E"/>
</svg>
