<svg width="28" height="24" viewBox="0 0 28 24" fill="none" xmlns="http://www.w3.org/2000/svg">
<path d="M8.80852 23.3758C19.372 23.3758 25.1513 14.622 25.1513 7.03303C25.1513 6.78693 25.1459 6.53537 25.1349 6.28928C26.2592 5.47623 27.2294 4.46915 28 3.31537C26.9529 3.78122 25.8412 4.08547 24.7029 4.21771C25.9015 3.49925 26.799 2.37057 27.2289 1.04092C26.1013 1.70917 24.8682 2.18057 23.5823 2.4349C22.716 1.51434 21.5705 0.904824 20.323 0.700581C19.0754 0.496338 17.7954 0.708747 16.6807 1.30497C15.566 1.90119 14.6788 2.84801 14.1562 3.99905C13.6335 5.15009 13.5047 6.44124 13.7895 7.67287C11.5062 7.55829 9.27259 6.96518 7.23331 5.93197C5.19403 4.89876 3.39464 3.44853 1.9518 1.67529C1.21847 2.93964 0.994066 4.43577 1.3242 5.85963C1.65434 7.28348 2.51424 8.52821 3.72914 9.34084C2.81707 9.31188 1.92497 9.06631 1.12656 8.62443V8.69553C1.12575 10.0224 1.58445 11.3085 2.42469 12.3354C3.26494 13.3623 4.43488 14.0665 5.73562 14.3283C4.89073 14.5595 4.00398 14.5932 3.14398 14.4268C3.51103 15.5679 4.22517 16.5659 5.18673 17.2816C6.1483 17.9973 7.30931 18.3949 8.50773 18.419C6.47316 20.0171 3.95987 20.884 1.37266 20.8799C0.913835 20.8792 0.455466 20.8511 0 20.7957C2.62833 22.4819 5.68579 23.3775 8.80852 23.3758Z" fill="white"/>
</svg>
