<svg width="547" height="520" viewBox="0 0 547 520" fill="none" xmlns="http://www.w3.org/2000/svg">
<path d="M313.084 183.382C313.084 182.901 312.964 182.3 312.844 181.818C310.683 170.027 299.038 161.004 284.992 161.004C284.632 161.004 284.271 161.004 284.031 161.004C284.632 164.493 285.232 167.862 284.872 171.351C289.194 178.329 294.116 184.826 299.158 190.361C300.239 191.443 301.319 192.526 302.4 193.609C303.84 195.053 305.281 196.376 306.721 197.459C307.322 198.061 308.042 198.542 308.642 199.023C309.123 198.301 309.603 197.579 310.083 196.858C312.124 193.489 313.204 189.639 313.204 185.548C313.204 184.946 313.204 184.225 313.084 183.382Z" fill="#0E0B09"/>
<path d="M369.39 218.153C369.631 218.754 369.15 218.754 368.91 218.754C368.67 218.995 368.43 219.236 368.19 219.476L366.509 221.522L339.017 256.774C335.655 259.3 331.333 259.541 327.852 257.375C327.371 257.135 327.011 256.894 326.531 256.653C325.451 256.052 324.25 255.33 323.05 254.488C322.569 254.247 322.209 253.886 321.729 253.645C320.168 252.683 318.487 251.6 316.807 250.517C316.326 250.156 315.846 249.916 315.366 249.555C313.925 248.592 312.485 247.63 311.164 246.667C310.924 246.547 310.684 246.306 310.444 246.066C309.603 245.464 308.883 244.863 308.043 244.381C307.803 244.141 307.563 244.02 307.322 243.78C304.681 241.734 302.16 239.809 299.999 237.764C299.639 237.403 299.279 237.042 298.919 236.802C297.958 235.839 297.118 234.997 296.277 234.034C296.157 233.914 295.917 233.673 295.797 233.553C295.677 233.433 295.557 233.192 295.437 233.072C295.317 232.951 295.197 232.711 295.077 232.591C294.957 232.47 294.837 232.23 294.717 232.109C294.597 231.989 294.597 231.869 294.477 231.748C293.516 230.305 292.796 228.861 292.556 227.537C292.556 227.297 292.436 227.176 292.436 226.936C292.316 225.733 292.556 224.65 293.276 223.687C295.437 220.8 297.118 217.311 298.679 213.822C297.838 213.822 297.118 213.822 296.277 213.822C295.437 213.822 294.717 213.822 293.876 213.822L292.916 214.303V214.062C292.916 214.062 312.125 209.851 313.325 202.271C314.166 196.857 333.854 194.571 344.419 193.729C348.381 193.368 351.022 193.368 351.022 193.368C351.382 193.849 362.547 206.362 371.671 215.145C370.951 216.108 370.231 217.19 369.39 218.153Z" fill="#FEBBA7"/>
<path d="M353.059 197.098C353.059 197.94 352.939 198.783 352.819 199.504C352.819 199.625 352.819 199.865 352.699 199.986C352.699 200.106 352.579 200.226 352.579 200.347C352.579 200.347 352.579 200.467 352.459 200.467C352.339 200.587 352.339 200.708 352.218 200.828C352.098 200.948 352.098 201.069 351.978 201.189C351.858 201.429 351.618 201.55 351.498 201.67C351.378 201.79 351.258 201.911 351.018 202.031C350.898 202.151 350.658 202.272 350.538 202.392C350.178 202.633 349.817 202.873 349.337 202.994C348.857 203.114 348.377 203.354 347.897 203.595C347.416 203.715 346.936 203.956 346.456 204.076C346.336 204.076 346.216 204.197 346.096 204.197C345.736 204.317 345.255 204.437 344.775 204.558C344.655 204.558 344.535 204.558 344.415 204.678C343.575 204.798 342.854 205.039 342.014 205.159C341.894 205.159 341.774 205.159 341.774 205.159C341.294 205.28 340.693 205.28 340.213 205.4C340.093 205.4 340.093 205.4 339.973 205.4C339.013 205.52 337.932 205.64 336.972 205.64H336.852C336.251 205.64 335.651 205.761 335.051 205.761C334.33 205.761 333.61 205.881 332.89 205.881C332.53 205.881 332.049 205.881 331.689 205.881C331.329 205.881 330.849 205.881 330.489 205.881C328.928 205.881 327.367 205.881 326.047 205.881C325.446 205.881 324.846 205.881 324.246 205.881C324.006 205.881 323.766 205.881 323.646 205.881C323.526 205.881 323.285 205.881 323.165 205.881C323.045 205.881 322.925 205.881 322.805 205.881H322.685C322.445 205.881 322.325 205.881 322.085 205.881C321.845 205.881 321.725 205.881 321.485 205.881C321.485 205.881 321.485 205.881 321.365 205.881C321.124 205.881 321.004 205.881 320.884 205.881C320.404 205.881 320.164 205.881 320.164 205.881L320.644 205.4C321.004 205.52 321.365 205.52 321.725 205.64C322.085 205.64 322.325 205.761 322.565 205.761C322.805 205.761 323.045 205.881 323.165 205.881C323.406 205.881 323.646 205.881 323.886 206.001C325.206 206.122 326.407 206.001 327.727 205.64C329.048 205.28 330.369 204.919 331.689 204.317C331.929 204.197 332.169 204.076 332.41 203.956C333.01 203.715 333.49 203.355 334.09 203.114C334.21 202.994 334.45 202.873 334.571 202.753C335.291 202.272 336.131 201.79 336.852 201.189C337.572 200.708 338.292 200.106 339.013 199.504C339.253 199.264 339.493 199.144 339.733 198.903C339.973 198.662 340.213 198.422 340.453 198.181C340.693 197.94 340.933 197.7 341.174 197.459C341.534 197.098 341.894 196.737 342.254 196.376C342.974 195.654 343.575 194.812 344.295 193.97C344.535 193.729 344.775 193.368 344.895 193.128C345.135 192.767 345.495 192.406 345.736 192.045C345.976 191.684 346.216 191.323 346.456 190.962C346.696 190.722 346.816 190.481 346.936 190.24C347.536 189.278 348.137 188.315 348.737 187.232C349.457 190.601 351.018 193.85 353.059 197.098Z" fill="#634039"/>
<path d="M368.908 218.755C368.668 218.996 368.428 219.236 368.188 219.477L368.788 218.755C368.788 218.755 368.788 218.755 368.908 218.755Z" fill="#8A8ADD"/>
<path d="M366.501 221.643L339.009 256.895C335.648 259.421 331.326 259.662 327.844 257.496C327.364 257.256 327.004 257.015 326.523 256.774L337.208 248.834C340.93 249.796 342.251 239.93 345.612 238.005L366.501 221.643Z" fill="#F48462"/>
<path d="M495.68 238.004C495.68 238.004 495.56 238.125 495.32 238.365C495.44 237.643 495.68 238.004 495.68 238.004Z" fill="white"/>
<path d="M357.258 158.237C356.658 160.643 356.658 162.809 357.258 164.854C357.138 165.215 357.018 165.696 356.898 166.057C352.336 168.103 349.214 172.073 349.214 176.525C349.214 178.69 349.935 180.615 351.015 182.3C350.295 183.984 349.454 185.548 348.614 186.992C348.014 187.954 347.414 189.037 346.813 190C346.693 190.24 346.453 190.481 346.333 190.722C346.093 191.083 345.853 191.323 345.613 191.684C345.133 192.286 344.772 192.887 344.292 193.489C343.572 194.451 342.852 195.294 342.131 196.136C341.771 196.497 341.411 196.858 341.051 197.219C340.811 197.459 340.57 197.7 340.33 197.94C339.85 198.422 339.37 198.903 338.89 199.264L338.77 199.384C338.53 199.625 338.169 199.865 337.929 200.106C337.569 200.347 337.209 200.708 336.849 200.948C336.489 201.189 336.128 201.55 335.648 201.79C335.288 202.031 334.928 202.272 334.448 202.512C334.328 202.633 334.208 202.753 333.967 202.753C333.967 202.753 333.967 202.753 333.847 202.753C333.247 203.114 332.767 203.355 332.167 203.595C331.927 203.715 331.686 203.836 331.446 203.956C331.326 204.076 331.086 204.076 330.966 204.197C330.726 204.317 330.366 204.437 330.126 204.558C329.886 204.678 329.525 204.798 329.285 204.798C329.165 204.798 329.045 204.919 328.805 204.919C328.685 204.919 328.565 205.039 328.325 205.039C328.085 205.159 327.725 205.159 327.485 205.28C326.284 205.52 324.963 205.641 323.643 205.641C323.403 205.641 323.163 205.641 322.923 205.52C322.682 205.52 322.442 205.52 322.322 205.4C322.082 205.4 321.722 205.28 321.482 205.28C321.362 205.28 321.122 205.28 321.002 205.159C320.882 205.159 320.642 205.039 320.521 205.039C318.12 204.437 315.719 203.355 313.198 201.911C311.637 201.069 310.197 199.986 308.636 198.783C308.036 198.301 307.316 197.82 306.715 197.219C305.275 196.015 303.834 194.692 302.393 193.368C301.313 192.286 300.232 191.203 299.152 190.12C293.99 184.586 289.187 178.089 284.865 171.11C285.106 167.621 284.505 164.132 284.025 160.763C283.905 160.042 283.785 159.32 283.665 158.718C283.425 156.913 283.425 154.988 283.305 153.063C283.305 151.86 284.145 151.259 284.865 150.537C287.747 147.769 289.908 144.521 291.468 140.791C292.309 138.626 292.909 136.34 293.509 134.174C294.47 130.565 295.31 127.075 296.751 123.586C297.351 122.263 298.311 121.421 299.392 120.578C301.913 118.413 304.794 118.052 307.916 117.571C310.437 117.21 312.598 116.007 314.399 114.202C315.359 113.239 316.32 112.157 317.28 111.194C317.88 110.592 318.481 110.592 318.961 111.314C321.722 116.007 326.164 117.811 331.326 118.653C333.007 118.894 334.328 118.293 335.888 118.052C336.849 117.932 337.209 117.932 337.809 118.774C341.171 124.308 346.213 127.557 352.336 129.602C353.416 129.963 354.617 130.204 355.697 130.926C357.138 132.008 357.258 132.49 356.658 134.174C355.817 135.979 354.977 137.783 354.257 139.588C351.856 145.123 352.576 150.176 356.658 154.627C357.138 155.831 357.618 156.673 357.258 158.237Z" fill="#FEBBA7"/>
<path d="M366.501 221.643L339.009 256.895C335.648 259.421 331.326 259.662 327.844 257.496C327.364 257.256 327.004 257.015 326.523 256.774L337.208 248.834C340.93 249.796 342.251 239.93 345.612 238.005L366.501 221.643Z" fill="#CC7A66"/>
<path d="M484.876 164.614C477.552 173.637 480.194 213.942 482.595 239.088C476.832 239.208 464.106 238.005 447.659 238.005C445.138 238.005 443.457 238.727 442.377 239.93C433.853 223.086 422.448 200.347 418.846 192.286C412.843 179.051 427.25 173.036 427.25 177.848C427.25 185.548 442.857 203.114 436.854 193.489C430.851 183.864 439.255 158.598 444.057 152.582C448.86 146.566 495.681 151.379 484.876 164.614Z" fill="#FEBBA7"/>
<path d="M289.91 430.627C290.03 432.793 289.55 434.477 288.95 434.598L205.992 450.84C205.992 450.84 205.992 450.84 205.992 450.72C208.033 444.945 210.314 438.809 212.835 432.913C211.395 433.154 209.954 433.274 208.633 433.395C208.753 432.071 209.114 431.109 209.594 431.109L269.021 427.86L284.988 427.018C286.308 426.777 287.629 426.537 288.829 426.055C289.67 425.695 290.51 425.334 291.351 424.973L289.91 430.627Z" fill="#8A8ADD"/>
<path d="M368.903 417.152C365.182 421.724 360.5 426.536 357.018 430.627C356.418 431.349 355.817 432.191 355.217 432.913C348.734 441.335 311.878 427.98 295.67 421.603C302.513 414.264 302.874 401.631 303.354 396.578C303.474 395.856 303.474 395.255 303.594 394.773C303.234 394.653 302.874 394.533 302.513 394.412C289.428 389.961 242.486 375.523 221.957 384.787C207.911 391.164 211.873 386.351 217.635 381.298C219.676 377.689 222.677 371.914 225.679 364.935L234.803 337.383C236.724 328.721 237.684 319.577 236.844 310.914C233.482 276.144 244.047 310.433 244.047 310.433C244.047 310.433 243.087 315.005 241.646 321.863C239.965 329.804 240.325 338.105 242.967 345.685C244.407 349.896 246.328 354.348 248.849 358.679C254.732 368.665 264.936 375.162 276.462 376.365C290.268 377.809 302.633 380.095 307.196 383.584C310.437 386.231 312.958 388.517 314.759 390.442C317.04 389.479 319.321 388.637 321.482 387.675C324.723 386.351 328.085 385.87 331.446 386.111C331.206 385.99 331.086 385.99 331.086 385.99C331.086 385.99 352.696 384.787 359.899 384.787C367.102 384.787 371.785 394.412 366.502 397.42C368.063 398.022 369.504 398.623 370.704 399.225C378.388 402.714 374.906 409.813 368.903 417.152Z" fill="#8A8ADD"/>
<path d="M320.401 398.022L305.995 395.615C305.995 395.615 305.395 395.375 304.434 395.014C304.194 394.894 303.954 394.894 303.594 394.773C303.234 394.653 302.874 394.533 302.513 394.412C289.428 389.961 242.486 375.523 221.957 384.787C207.911 391.164 211.873 386.351 217.635 381.298C218.836 380.215 220.156 379.132 221.357 378.17L225.799 364.935C229.28 356.995 232.762 347.49 234.923 337.383C236.844 328.721 237.804 319.577 236.964 310.914C233.602 276.144 244.167 310.433 244.167 310.433C244.167 310.433 243.207 315.005 241.766 321.863C240.085 329.804 240.445 338.105 243.087 345.685C244.527 349.896 246.448 354.348 248.969 358.679C254.852 368.665 265.057 375.162 276.582 376.365C290.388 377.809 302.754 380.095 307.316 383.584C310.557 386.231 313.078 388.517 314.879 390.442C319.801 395.495 320.401 398.022 320.401 398.022Z" fill="#7575AA"/>
<path d="M234.929 337.385C232.768 347.491 229.166 356.996 225.805 364.937L234.929 337.385Z" fill="#7575AA"/>
<path d="M368.908 218.755C368.668 218.996 368.428 219.236 368.188 219.477L368.788 218.755C368.788 218.755 368.788 218.755 368.908 218.755Z" fill="#8A8ADD"/>
<path d="M289.916 430.626C290.036 432.792 289.556 434.476 288.955 434.597L205.998 450.839C205.998 450.839 205.998 450.839 205.998 450.719C205.758 449.636 208.759 437.123 208.639 435.078C208.639 434.837 208.639 434.597 208.639 434.356C208.639 433.995 208.639 433.755 208.639 433.394C208.759 432.07 209.119 431.108 209.6 431.108L269.026 427.859L284.994 427.017L288.595 426.776C288.595 426.536 288.715 426.295 288.835 426.054C289.676 425.694 290.516 425.333 291.356 424.972L289.916 430.626Z" fill="#7575AA"/>
<path d="M225.804 364.936L221.362 378.17C220.162 379.133 218.841 380.215 217.641 381.298C219.682 377.689 222.683 371.914 225.804 364.936Z" fill="#7575AA"/>
<path d="M368.905 417.151C365.183 421.723 360.501 426.536 357.019 430.627C356.419 431.348 355.819 432.191 355.219 432.912C348.736 441.334 311.879 427.98 295.672 421.603C302.515 414.264 302.875 401.631 303.355 396.578L304.076 395.495C304.196 395.375 304.316 395.254 304.436 395.134C304.916 394.653 305.396 394.292 305.997 394.051C308.998 392.848 311.879 391.645 314.881 390.442C317.162 389.479 319.443 388.637 321.604 387.674C324.845 386.351 328.207 385.87 331.568 386.11C333.129 386.231 334.809 386.592 336.37 387.073C344.534 389.599 357.38 393.69 366.504 397.42C368.064 398.021 369.505 398.623 370.706 399.225C378.389 402.714 374.908 409.812 368.905 417.151Z" fill="#FEBBA7"/>
<path d="M366.627 397.42C361.585 400.187 335.053 387.795 331.571 386.111C331.331 385.99 331.211 385.99 331.211 385.99C331.211 385.99 352.821 384.787 360.024 384.787C367.227 384.787 371.909 394.412 366.627 397.42Z" fill="#C17867"/>
<path d="M418.249 160.642C416.689 161.965 415.128 163.289 413.447 164.492C411.166 166.417 409.726 168.703 409.485 171.711C409.245 173.275 409.005 174.719 408.645 176.283C407.805 179.772 405.764 182.298 402.522 183.863C401.082 184.584 399.641 185.066 398.2 185.306C394.719 185.788 391.958 187.472 389.677 190.119C387.035 193.247 383.434 195.172 379.472 196.135C377.431 196.616 375.51 197.338 373.589 197.819C370.828 198.541 367.947 199.383 364.945 198.902C364.225 198.781 363.865 199.142 363.745 199.864C363.385 199.744 363.025 199.503 362.664 199.383C362.424 198.902 362.304 198.421 362.064 197.939C360.263 194.811 359.663 191.563 360.743 188.194C356.542 187.472 353.06 185.186 351.139 182.298C349.939 180.614 349.338 178.569 349.338 176.523C349.338 171.951 352.46 168.101 357.022 166.056C357.262 165.936 357.502 165.815 357.622 165.815C357.502 165.455 357.382 165.214 357.262 164.853C356.662 162.808 356.662 160.642 357.262 158.236C357.622 156.672 357.262 155.709 356.181 154.626C352.1 150.175 351.379 145.121 353.78 139.587C354.621 137.782 355.461 135.978 356.181 134.173C356.902 132.488 356.782 132.007 355.221 130.924C354.261 130.203 353.06 129.962 351.859 129.601C345.857 127.556 340.815 124.307 337.333 118.773C336.853 117.93 336.373 117.93 335.412 118.051C333.971 118.291 332.531 119.013 330.85 118.652C325.808 117.81 321.366 115.885 318.484 111.313C318.004 110.591 317.404 110.471 316.804 111.193C315.843 112.155 314.883 113.238 313.922 114.201C312.122 116.005 309.841 117.209 307.439 117.57C304.438 118.051 301.437 118.532 298.916 120.577C297.835 121.54 296.875 122.262 296.274 123.585C294.834 126.954 293.993 130.563 293.033 134.173C292.433 136.459 291.832 138.624 290.992 140.79C289.551 144.52 287.27 147.768 284.389 150.536C283.669 151.257 282.828 151.859 282.828 153.062C282.948 154.987 282.948 156.912 283.189 158.717C283.309 159.439 283.429 160.161 283.549 160.762C284.149 164.251 284.749 167.62 284.389 171.109C288.711 178.087 293.633 184.584 298.676 190.119C299.756 191.202 300.837 192.285 301.917 193.367C303.358 194.811 304.798 196.135 306.239 197.217C306.839 197.819 307.56 198.3 308.16 198.781C307.319 199.985 306.359 200.947 305.279 202.03C303.238 203.955 300.837 205.639 298.075 206.963C297.115 207.444 296.154 207.805 295.194 208.166C294.354 208.888 293.513 209.61 292.553 210.332C289.191 212.979 285.47 214.061 281.268 212.497C280.187 212.136 279.467 212.377 278.747 212.979C277.666 213.941 276.345 214.663 275.025 215.144C269.022 217.55 263.74 216.347 259.538 211.414C258.097 209.73 258.457 209.369 255.696 210.572C254.015 211.294 252.335 212.136 250.534 212.979C245.852 215.265 241.17 215.144 236.728 212.618C228.204 207.805 223.041 200.827 222.441 190.841C222.321 189.517 222.561 188.074 222.801 186.75C223.041 185.547 222.561 185.066 221.361 184.945C219.56 184.825 217.759 184.344 216.198 183.622C209.836 180.975 206.354 176.162 205.634 169.305C205.153 165.094 205.874 160.883 207.194 156.912C209.715 148.37 214.278 140.91 219.8 134.053C220.881 132.609 222.201 131.285 223.282 129.842C224.842 127.917 224.842 127.917 223.402 125.871C222.441 124.548 221.601 123.224 220.881 121.66C218.84 117.57 218.96 113.599 221.001 109.508C221.841 107.944 222.801 106.621 223.882 105.298C224.722 104.335 225.443 103.252 226.283 102.29C228.684 99.5224 229.164 96.274 227.724 92.9052C227.604 92.5442 227.483 92.063 227.243 91.702C224.602 85.6863 225.202 79.7909 228.204 74.1362C232.406 66.3158 238.769 60.9016 246.812 57.5328C247.773 57.0516 248.493 56.45 249.213 55.7281C257.617 47.7874 267.101 41.2905 277.906 37.0795C280.908 35.8763 283.909 35.1544 287.15 34.9138C292.553 34.6732 296.635 36.8388 299.396 41.4108C300.116 42.6139 300.837 43.9374 301.437 45.2608C304.198 50.314 308.76 51.8781 314.042 49.7124C316.804 48.6296 319.205 46.9452 321.606 45.3811C327.008 41.892 332.531 39.0045 338.654 36.9591C346.337 34.5529 354.261 33.47 362.184 34.7935C366.986 35.6357 371.308 37.681 374.91 41.0498C378.151 44.178 380.192 47.9077 380.072 52.4797C380.072 54.6453 380.913 55.8484 382.833 56.5703C385.235 57.5328 387.636 58.375 389.917 59.5782C395.439 62.2251 397.72 67.6392 396.039 73.5346C395.559 75.3393 394.719 76.9034 393.758 78.4675C393.038 79.5503 392.318 80.5128 391.597 81.5956C391.117 82.1972 390.637 82.9191 390.397 83.5207C389.436 85.6863 390.157 87.6113 392.318 88.6942C394.359 89.6567 396.039 91.1005 397.24 93.0255C397.84 93.988 398.44 94.5896 399.641 94.7099C401.082 94.9505 402.402 95.6724 403.603 96.5146C404.203 96.8755 404.683 97.3568 405.404 97.3568C405.524 98.3193 406.244 99.0412 406.844 99.7631C409.365 103.252 411.046 107.102 411.166 111.434C411.166 112.637 411.766 113.238 412.727 113.84C414.288 114.682 415.608 115.885 416.809 117.329C418.61 119.735 418.97 122.502 419.45 125.27C420.53 128.157 421.011 131.165 422.331 134.053C423.052 135.496 423.532 136.94 424.012 138.384C427.494 148.37 425.813 154.145 418.249 160.642Z" fill="black"/>
<path d="M498.688 293.35C487.283 250.157 485.842 240.412 485.962 238.366C485.602 238.848 484.522 238.968 482.601 239.088C476.838 239.209 464.112 238.005 447.665 238.005C445.144 238.005 443.463 238.727 442.383 239.93C433.619 250.518 478.039 302.494 465.793 308.991C453.428 315.608 418.372 232.11 371.551 214.905C371.551 214.905 371.551 215.025 371.431 215.025C370.83 216.229 370.11 217.311 369.27 218.154C369.51 218.755 369.029 218.755 368.789 218.755C368.549 218.996 368.309 219.236 368.069 219.477L366.388 221.522L338.896 256.774C335.534 259.301 331.212 259.542 327.731 257.376C327.251 257.135 326.891 256.895 326.41 256.654C325.33 256.052 324.129 255.331 322.929 254.488C322.449 254.248 322.088 253.887 321.608 253.646C320.047 252.684 318.367 251.601 316.686 250.518C316.206 250.157 315.725 249.916 315.245 249.556C313.805 248.593 312.364 247.631 311.043 246.668C310.803 246.548 310.563 246.307 310.323 246.066C309.483 245.465 308.762 244.863 307.922 244.382C307.682 244.141 307.442 244.021 307.202 243.78C304.56 241.735 302.039 239.81 299.878 237.765C299.518 237.404 299.158 237.043 298.798 236.802C297.837 235.84 296.997 234.998 296.157 234.035C296.037 233.915 295.797 233.674 295.676 233.554C295.556 233.433 295.436 233.193 295.316 233.073C295.196 232.952 295.076 232.712 294.956 232.591C294.836 232.471 294.716 232.23 294.596 232.11C294.476 231.99 294.476 231.869 294.356 231.749C293.395 230.305 292.675 228.862 292.435 227.538C292.435 227.297 292.315 227.177 292.315 226.937C292.195 225.733 292.435 224.651 293.155 223.688C295.316 220.8 296.997 217.311 298.558 213.822C297.717 213.822 296.997 213.822 296.157 213.822C295.316 213.822 294.596 213.822 293.756 213.822L292.795 214.304L292.195 214.544L284.031 218.394L228.086 239.209C210.078 245.946 196.752 262.309 192.91 282.161C185.827 319.338 175.502 377.088 177.783 390.684C180.545 407.408 178.864 435.441 208.637 433.275C208.757 431.952 209.117 430.989 209.598 430.989L269.024 427.741L284.992 426.898C286.312 426.658 287.633 426.417 288.833 425.936C289.674 425.575 290.514 425.214 291.355 424.853L290.034 430.508C290.154 432.673 289.674 434.358 289.073 434.478L206.116 450.721C206.116 450.721 206.116 450.721 206.116 450.6C198.193 472.738 193.631 491.868 193.631 491.868C193.631 491.868 363.507 539.151 381.155 511.118C399.163 482.243 389.439 330.286 403.725 347.491C424.855 372.757 464.713 389.601 486.202 390.804C507.692 392.007 514.415 353.507 498.688 293.35ZM368.909 417.153C365.188 421.725 360.506 426.537 357.024 430.628C356.424 431.35 355.824 432.192 355.223 432.914C348.74 441.336 311.884 427.981 295.676 421.605C302.52 414.265 302.88 401.632 303.36 396.579C303.48 395.857 303.48 395.256 303.6 394.775C303.24 394.654 302.88 394.534 302.52 394.414C289.434 389.962 242.493 375.524 221.963 384.788C207.917 391.165 211.879 386.353 217.641 381.299C219.682 377.69 222.684 371.915 225.685 364.937L234.809 337.385C236.73 328.722 237.69 319.578 236.85 310.916C233.488 276.145 244.053 310.434 244.053 310.434C244.053 310.434 243.093 315.006 241.652 321.864C239.971 329.805 240.332 338.107 242.973 345.686C244.413 349.897 246.334 354.349 248.855 358.68C254.738 368.666 264.943 375.163 276.468 376.367C290.274 377.81 302.64 380.096 307.202 383.585C310.443 386.232 312.964 388.518 314.765 390.443C317.046 389.481 319.327 388.639 321.488 387.676C324.73 386.353 328.091 385.871 331.453 386.112C331.212 385.992 331.092 385.992 331.092 385.992C331.092 385.992 352.702 384.788 359.905 384.788C367.109 384.788 371.791 394.414 366.508 397.421C368.069 398.023 369.51 398.625 370.71 399.226C378.394 402.715 374.912 409.814 368.909 417.153Z" fill="#8A8ADD"/>
<path d="M284.989 427.019C284.748 427.019 284.628 427.019 284.388 427.139C282.828 427.259 270.462 428.342 268.781 428.101C268.781 428.101 268.901 428.101 269.021 427.861L284.989 427.019Z" fill="#8A8ADD"/>
<path d="M303.596 394.655V394.775C303.236 394.655 302.876 394.534 302.516 394.414C303.116 394.414 303.596 394.655 303.596 394.655Z" fill="#8A8ADD"/>
<path d="M286.914 139.949L304.082 138.746" stroke="#0E0B09" stroke-miterlimit="10"/>
<path d="M330.617 132.731L342.623 125.512" stroke="#0E0B09" stroke-miterlimit="10"/>
<path d="M336.617 141.755V153.786" stroke="#0E0B09" stroke-width="2" stroke-miterlimit="10"/>
<path d="M301.438 146.808L304.559 158.358" stroke="#0E0B09" stroke-width="2" stroke-miterlimit="10"/>
<path d="M319.806 150.778C319.566 151.26 315.964 160.163 321.006 166.419C322.447 168.344 324.368 169.427 325.809 170.029" stroke="#0E0B09" stroke-miterlimit="10"/>
<path d="M368.91 417.153L350.422 414.867" stroke="#0E0B09" stroke-width="2" stroke-miterlimit="10"/>
<path d="M357.028 430.749L333.617 422.086" stroke="#0E0B09" stroke-width="2" stroke-miterlimit="10"/>
<path d="M312.141 181.571L341.003 175.896L339.707 183.196L326.269 189.514H317.31L312.141 181.571Z" fill="white"/>
</svg>
