<svg width="120" height="120" viewBox="0 0 120 120" fill="none" xmlns="http://www.w3.org/2000/svg">
<rect width="120" height="120" fill="none"/>
<mask id="path-1-inside-1_53250_79139" fill="white">
<path d="M22.2341 30.5652C30.1672 14.185 52.7932 14.185 60.7263 30.5652L79.7353 69.8153C86.8955 84.5997 76.4903 102 60.4892 102H22.4711C6.47003 102 -3.93511 84.5997 3.22503 69.8153L22.2341 30.5652Z"/>
</mask>
<path d="M3.22503 69.8153L0.525015 68.5077L3.22503 69.8153ZM79.7353 69.8153L77.0353 71.123L79.7353 69.8153ZM60.7263 30.5652L63.4263 29.2576L63.4263 29.2576L60.7263 30.5652ZM22.2341 30.5652L24.9341 31.8729L24.9341 31.8729L22.2341 30.5652ZM58.0262 31.8729L77.0353 71.123L82.4353 68.5077L63.4263 29.2576L58.0262 31.8729ZM60.4892 98.9998H22.4711V105H60.4892V98.9998ZM5.92505 71.123L24.9341 31.8729L19.5341 29.2576L0.525015 68.5077L5.92505 71.123ZM22.4711 98.9998C8.84037 98.9998 -0.339441 84.058 5.92505 71.123L0.525015 68.5077C-7.53077 85.1414 4.09969 105 22.4711 105V98.9998ZM77.0353 71.123C83.2998 84.058 74.12 98.9998 60.4892 98.9998V105C78.8607 105 90.4911 85.1414 82.4353 68.5077L77.0353 71.123ZM63.4263 29.2576C54.4004 10.6208 28.56 10.6208 19.5341 29.2576L24.9341 31.8729C31.7743 17.7491 51.186 17.7491 58.0262 31.8729L63.4263 29.2576Z" fill="#5455A9" mask="url(#path-1-inside-1_53250_79139)"/>
<rect x="106.044" y="18" width="11.9561" height="83.9982" rx="2" fill="#1B1B1E"/>
</svg>
